<svg width="24" height="24" viewBox="0 0 24 24" fill="none" xmlns="http://www.w3.org/2000/svg">
<path d="M21.8938 23.9301C19.2028 23.9301 16.5441 23.3263 13.9177 22.1187C11.2914 20.9111 8.90177 19.1995 6.74899 16.9837C4.59621 14.7679 2.93319 12.3084 1.75993 9.60514C0.586663 6.9019 3.05176e-05 4.16541 3.05176e-05 1.39569C3.05176e-05 0.996855 0.129197 0.664489 0.387531 0.398595C0.645864 0.132702 0.968781 -0.000244141 1.35628 -0.000244141H6.58753C6.88892 -0.000244141 7.15802 0.105005 7.39482 0.315504C7.63163 0.526003 7.77156 0.775277 7.81461 1.06333L8.6542 5.71646C8.69725 6.07098 8.68649 6.37011 8.62191 6.61385C8.55732 6.85758 8.43892 7.06808 8.2667 7.24534L5.13441 10.5025C5.56496 11.3224 6.07625 12.1145 6.66826 12.879C7.26027 13.6434 7.91149 14.3801 8.62191 15.0892C9.28927 15.7761 9.98892 16.4131 10.7209 17.0003C11.4528 17.5875 12.2278 18.1248 13.0459 18.6123L16.0813 15.488C16.275 15.2886 16.528 15.139 16.8401 15.0393C17.1523 14.9396 17.4591 14.9119 17.7604 14.9562L22.2167 15.8869C22.5181 15.9755 22.7657 16.1361 22.9594 16.3688C23.1532 16.6015 23.25 16.8618 23.25 17.1499V22.5342C23.25 22.933 23.1209 23.2654 22.8625 23.5313C22.6042 23.7972 22.2813 23.9301 21.8938 23.9301ZM3.90732 7.97655L6.03857 5.78293L5.48961 2.65869H2.61566C2.72329 3.56715 2.87399 4.46454 3.06774 5.35085C3.26149 6.23716 3.54135 7.1124 3.90732 7.97655ZM15.4677 19.8753C16.3073 20.2519 17.1631 20.5511 18.0349 20.7727C18.9068 20.9942 19.7841 21.1383 20.6667 21.2047V18.2799L17.6313 17.6484L15.4677 19.8753Z" fill="#DC0000"/>
</svg>
