<svg width="52" height="52" viewBox="0 0 52 52" fill="none" xmlns="http://www.w3.org/2000/svg">
<mask id="mask0_1_1007" style="mask-type:alpha" maskUnits="userSpaceOnUse" x="0" y="0" width="52" height="52">
<rect width="52" height="52" fill="#D9D9D9"/>
</mask>
<g mask="url(#mask0_1_1007)">
<path d="M21.6666 30.3333H30.3333V26H21.6666V30.3333ZM21.6666 23.8333H39V19.5H21.6666V23.8333ZM21.6666 17.3333H39V13H21.6666V17.3333ZM17.3333 39C16.1416 39 15.1215 38.5757 14.2729 37.7271C13.4243 36.8784 13 35.8583 13 34.6666V8.66665C13 7.47498 13.4243 6.45484 14.2729 5.60623C15.1215 4.75762 16.1416 4.33331 17.3333 4.33331H43.3333C44.525 4.33331 45.5451 4.75762 46.3937 5.60623C47.2423 6.45484 47.6666 7.47498 47.6666 8.66665V34.6666C47.6666 35.8583 47.2423 36.8784 46.3937 37.7271C45.5451 38.5757 44.525 39 43.3333 39H17.3333ZM17.3333 34.6666H43.3333V8.66665H17.3333V34.6666ZM8.66665 47.6666C7.47498 47.6666 6.45484 47.2423 5.60623 46.3937C4.75762 45.5451 4.33331 44.525 4.33331 43.3333V13H8.66665V43.3333H39V47.6666H8.66665Z" fill="#DC0000"/>
</g>
</svg>
