<svg width="61" height="61" viewBox="0 0 61 61" fill="none" xmlns="http://www.w3.org/2000/svg">
<mask id="mask0_1_1016" style="mask-type:alpha" maskUnits="userSpaceOnUse" x="0" y="0" width="61" height="61">
<rect width="61" height="61" fill="#D9D9D9"/>
</mask>
<g mask="url(#mask0_1_1016)">
<path d="M2.54163 50.8334V43.7167C2.54163 42.2764 2.91229 40.9526 3.65361 39.7453C4.39492 38.538 5.37982 37.6167 6.60829 36.9813C9.23468 35.6681 11.9034 34.6832 14.6145 34.0266C17.3257 33.37 20.0791 33.0417 22.875 33.0417C25.6708 33.0417 28.4243 33.37 31.1354 34.0266C33.8465 34.6832 36.5152 35.6681 39.1416 36.9813C40.3701 37.6167 41.355 38.538 42.0963 39.7453C42.8376 40.9526 43.2083 42.2764 43.2083 43.7167V50.8334H2.54163ZM48.2916 50.8334V43.2084C48.2916 41.3445 47.7727 39.5547 46.7349 37.8391C45.697 36.1235 44.225 34.6514 42.3187 33.4229C44.4791 33.6771 46.5125 34.1113 48.4187 34.7255C50.325 35.3398 52.1041 36.0917 53.7562 36.9813C55.2812 37.8285 56.4461 38.771 57.251 39.8089C58.0559 40.8467 58.4583 41.9799 58.4583 43.2084V50.8334H48.2916ZM22.875 30.5C20.0791 30.5 17.6857 29.5045 15.6948 27.5136C13.7038 25.5226 12.7083 23.1292 12.7083 20.3334C12.7083 17.5375 13.7038 15.1441 15.6948 13.1531C17.6857 11.1622 20.0791 10.1667 22.875 10.1667C25.6708 10.1667 28.0642 11.1622 30.0552 13.1531C32.0461 15.1441 33.0416 17.5375 33.0416 20.3334C33.0416 23.1292 32.0461 25.5226 30.0552 27.5136C28.0642 29.5045 25.6708 30.5 22.875 30.5ZM48.2916 20.3334C48.2916 23.1292 47.2961 25.5226 45.3052 27.5136C43.3142 29.5045 40.9208 30.5 38.125 30.5C37.659 30.5 37.0659 30.4471 36.3458 30.3412C35.6257 30.2353 35.0326 30.1188 34.5666 29.9917C35.7104 28.6361 36.5894 27.1323 37.2036 25.4802C37.8178 23.8281 38.125 22.1125 38.125 20.3334C38.125 18.5542 37.8178 16.8386 37.2036 15.1865C36.5894 13.5344 35.7104 12.0306 34.5666 10.675C35.1597 10.4632 35.7527 10.3255 36.3458 10.262C36.9389 10.1985 37.5319 10.1667 38.125 10.1667C40.9208 10.1667 43.3142 11.1622 45.3052 13.1531C47.2961 15.1441 48.2916 17.5375 48.2916 20.3334ZM7.62496 45.75H38.125V43.7167C38.125 43.2507 38.0085 42.8271 37.7755 42.4459C37.5425 42.0646 37.2354 41.7681 36.8541 41.5563C34.5666 40.4125 32.2579 39.5547 29.9281 38.9828C27.5982 38.411 25.2472 38.125 22.875 38.125C20.5027 38.125 18.1517 38.411 15.8218 38.9828C13.492 39.5547 11.1833 40.4125 8.89579 41.5563C8.51454 41.7681 8.20743 42.0646 7.97444 42.4459C7.74145 42.8271 7.62496 43.2507 7.62496 43.7167V45.75ZM22.875 25.4167C24.2729 25.4167 25.4696 24.9189 26.4651 23.9235C27.4606 22.928 27.9583 21.7313 27.9583 20.3334C27.9583 18.9354 27.4606 17.7387 26.4651 16.7432C25.4696 15.7478 24.2729 15.25 22.875 15.25C21.477 15.25 20.2803 15.7478 19.2849 16.7432C18.2894 17.7387 17.7916 18.9354 17.7916 20.3334C17.7916 21.7313 18.2894 22.928 19.2849 23.9235C20.2803 24.9189 21.477 25.4167 22.875 25.4167Z" fill="#DC0000"/>
</g>
</svg>
