<svg width="53" height="53" viewBox="0 0 53 53" fill="none" xmlns="http://www.w3.org/2000/svg">
<mask id="mask0_1_1013" style="mask-type:alpha" maskUnits="userSpaceOnUse" x="0" y="0" width="53" height="53">
<rect width="53" height="53" fill="#D9D9D9"/>
</mask>
<g mask="url(#mask0_1_1013)">
<path d="M26.5 26.5001C27.7146 26.5001 28.7544 26.0676 29.6193 25.2027C30.4842 24.3378 30.9167 23.298 30.9167 22.0834C30.9167 20.8688 30.4842 19.8291 29.6193 18.9641C28.7544 18.0992 27.7146 17.6667 26.5 17.6667C25.2855 17.6667 24.2457 18.0992 23.3808 18.9641C22.5158 19.8291 22.0834 20.8688 22.0834 22.0834C22.0834 23.298 22.5158 24.3378 23.3808 25.2027C24.2457 26.0676 25.2855 26.5001 26.5 26.5001ZM26.5 42.7313C30.9903 38.6091 34.3212 34.8641 36.4928 31.4964C38.6643 28.1287 39.75 25.1383 39.75 22.5251C39.75 18.5133 38.471 15.2284 35.9131 12.6704C33.3551 10.1124 30.2174 8.83342 26.5 8.83342C22.7827 8.83342 19.645 10.1124 17.087 12.6704C14.529 15.2284 13.25 18.5133 13.25 22.5251C13.25 25.1383 14.3358 28.1287 16.5073 31.4964C18.6789 34.8641 22.0098 38.6091 26.5 42.7313ZM26.5 48.5834C20.5743 43.5411 16.1485 38.8575 13.2224 34.5329C10.2964 30.2082 8.83337 26.2056 8.83337 22.5251C8.83337 17.0042 10.6092 12.606 14.161 9.33029C17.7127 6.0546 21.8257 4.41675 26.5 4.41675C31.1743 4.41675 35.2874 6.0546 38.8391 9.33029C42.3908 12.606 44.1667 17.0042 44.1667 22.5251C44.1667 26.2056 42.7037 30.2082 39.7776 34.5329C36.8516 38.8575 32.4257 43.5411 26.5 48.5834Z" fill="#DC0000"/>
</g>
</svg>
