<svg width="55" height="55" viewBox="0 0 55 55" fill="none" xmlns="http://www.w3.org/2000/svg">
<mask id="mask0_1_1010" style="mask-type:alpha" maskUnits="userSpaceOnUse" x="0" y="0" width="55" height="55">
<rect width="55" height="55" fill="#D9D9D9"/>
</mask>
<g mask="url(#mask0_1_1010)">
<path d="M33.974 50.4167C33.0574 50.4167 32.1789 50.2448 31.3386 49.901C30.4983 49.5573 29.7535 49.0608 29.1042 48.4115L17.4167 36.6667L19.3074 34.7188C19.8421 34.184 20.4914 33.8212 21.2553 33.6302C22.0192 33.4392 22.7831 33.4392 23.5469 33.6302L27.5001 34.776V18.3333C27.5001 17.684 27.7197 17.1398 28.1589 16.7005C28.5982 16.2613 29.1424 16.0417 29.7917 16.0417C30.441 16.0417 30.9853 16.2613 31.4246 16.7005C31.8638 17.1398 32.0834 17.684 32.0834 18.3333V40.849L26.4688 39.2448L32.3699 45.1458C32.599 45.375 32.8473 45.5469 33.1147 45.6615C33.382 45.776 33.6685 45.8333 33.974 45.8333H43.5417C44.8022 45.8333 45.8811 45.3846 46.7787 44.487C47.6763 43.5894 48.1251 42.5104 48.1251 41.25V32.0833C48.1251 31.434 48.3447 30.8898 48.7839 30.4505C49.2232 30.0113 49.7674 29.7917 50.4167 29.7917C51.066 29.7917 51.6103 30.0113 52.0496 30.4505C52.4888 30.8898 52.7084 31.434 52.7084 32.0833V41.25C52.7084 43.7708 51.8108 45.9288 50.0157 47.724C48.2206 49.5191 46.0626 50.4167 43.5417 50.4167H33.974ZM34.3751 34.375V25.2083C34.3751 24.559 34.5947 24.0148 35.0339 23.5755C35.4732 23.1363 36.0174 22.9167 36.6667 22.9167C37.316 22.9167 37.8603 23.1363 38.2996 23.5755C38.7388 24.0148 38.9584 24.559 38.9584 25.2083V34.375H34.3751ZM41.2501 34.375V27.5C41.2501 26.8507 41.4697 26.3064 41.9089 25.8672C42.3482 25.428 42.8924 25.2083 43.5417 25.2083C44.191 25.2083 44.7353 25.428 45.1745 25.8672C45.6138 26.3064 45.8334 26.8507 45.8334 27.5V34.375H41.2501ZM9.16674 43.5417C7.90632 43.5417 6.82733 43.0929 5.92976 42.1953C5.03219 41.2977 4.5834 40.2188 4.5834 38.9583V11.4583C4.5834 10.1979 5.03219 9.11892 5.92976 8.22135C6.82733 7.32378 7.90632 6.875 9.16674 6.875H43.5417C44.8022 6.875 45.8811 7.32378 46.7787 8.22135C47.6763 9.11892 48.1251 10.1979 48.1251 11.4583V20.625H43.5417V11.4583H9.16674V38.9583H13.2917L17.8178 43.5417H9.16674Z" fill="#DC0000"/>
</g>
</svg>
