<svg width="46" height="46" viewBox="0 0 46 46" fill="none" xmlns="http://www.w3.org/2000/svg">
<path d="M24.5142 40.25L5.75 21.4858V25.3192C5.75 26.335 6.1525 27.3125 6.88083 28.0217L21.8117 42.9525C23.3067 44.4475 25.7408 44.4475 27.2358 42.9525L39.1383 31.05C40.6333 29.555 40.6333 27.1208 39.1383 25.6258L24.5142 40.25Z" fill="#DC0000"/>
<path d="M21.8117 33.3692C22.5592 34.1167 23.5367 34.5 24.5142 34.5C25.4917 34.5 26.4692 34.1167 27.2167 33.3692L39.1192 21.4667C40.6142 19.9717 40.6142 17.5375 39.1192 16.0425L24.1883 1.11167C23.4792 0.4025 22.5017 0 21.4858 0H9.58333C7.475 0 5.75 1.725 5.75 3.83333V15.7358C5.75 16.7517 6.1525 17.7292 6.88083 18.4383L21.8117 33.3692ZM9.58333 3.83333H21.4858L36.4167 18.7642L24.5142 30.6667L9.58333 15.7358V3.83333Z" fill="#DC0000"/>
<path d="M13.8958 10.5417C15.219 10.5417 16.2917 9.46902 16.2917 8.14583C16.2917 6.82265 15.219 5.75 13.8958 5.75C12.5727 5.75 11.5 6.82265 11.5 8.14583C11.5 9.46902 12.5727 10.5417 13.8958 10.5417Z" fill="#DC0000"/>
</svg>
