<svg width="53" height="53" viewBox="0 0 53 53" fill="none" xmlns="http://www.w3.org/2000/svg">
<mask id="mask0_1_1004" style="mask-type:alpha" maskUnits="userSpaceOnUse" x="0" y="0" width="53" height="53">
<rect width="53" height="53" fill="#D9D9D9"/>
</mask>
<g mask="url(#mask0_1_1004)">
<path d="M12.9188 37.7625C14.7959 36.3271 16.8938 35.1953 19.2126 34.3672C21.5313 33.5391 23.9605 33.125 26.5 33.125C29.0396 33.125 31.4688 33.5391 33.7875 34.3672C36.1063 35.1953 38.2042 36.3271 40.0813 37.7625C41.3695 36.2535 42.3724 34.542 43.0902 32.6281C43.8079 30.7143 44.1667 28.6715 44.1667 26.5C44.1667 21.6049 42.4461 17.4367 39.0047 13.9953C35.5634 10.554 31.3952 8.83335 26.5 8.83335C21.6049 8.83335 17.4367 10.554 13.9954 13.9953C10.554 17.4367 8.83338 21.6049 8.83338 26.5C8.83338 28.6715 9.19224 30.7143 9.90995 32.6281C10.6277 34.542 11.6306 36.2535 12.9188 37.7625ZM26.5 28.7084C24.3285 28.7084 22.4974 27.963 21.0068 26.4724C19.5162 24.9818 18.7709 23.1507 18.7709 20.9792C18.7709 18.8077 19.5162 16.9766 21.0068 15.486C22.4974 13.9953 24.3285 13.25 26.5 13.25C28.6716 13.25 30.5027 13.9953 31.9933 15.486C33.4839 16.9766 34.2292 18.8077 34.2292 20.9792C34.2292 23.1507 33.4839 24.9818 31.9933 26.4724C30.5027 27.963 28.6716 28.7084 26.5 28.7084ZM26.5 48.5834C23.4452 48.5834 20.5744 48.0037 17.8876 46.8443C15.2007 45.6849 12.8636 44.1115 10.8761 42.124C8.88859 40.1365 7.31516 37.7993 6.15578 35.1125C4.99641 32.4257 4.41672 29.5549 4.41672 26.5C4.41672 23.4452 4.99641 20.5743 6.15578 17.8875C7.31516 15.2007 8.88859 12.8636 10.8761 10.8761C12.8636 8.88856 15.2007 7.31512 17.8876 6.15575C20.5744 4.99637 23.4452 4.41669 26.5 4.41669C29.5549 4.41669 32.4257 4.99637 35.1126 6.15575C37.7994 7.31512 40.1365 8.88856 42.124 10.8761C44.1115 12.8636 45.6849 15.2007 46.8443 17.8875C48.0037 20.5743 48.5834 23.4452 48.5834 26.5C48.5834 29.5549 48.0037 32.4257 46.8443 35.1125C45.6849 37.7993 44.1115 40.1365 42.124 42.124C40.1365 44.1115 37.7994 45.6849 35.1126 46.8443C32.4257 48.0037 29.5549 48.5834 26.5 48.5834ZM26.5 44.1667C28.4507 44.1667 30.291 43.8814 32.0209 43.311C33.7507 42.7405 35.3334 41.9215 36.7688 40.8542C35.3334 39.7868 33.7507 38.9679 32.0209 38.3974C30.291 37.8269 28.4507 37.5417 26.5 37.5417C24.5494 37.5417 22.7091 37.8269 20.9792 38.3974C19.2494 38.9679 17.6667 39.7868 16.2313 40.8542C17.6667 41.9215 19.2494 42.7405 20.9792 43.311C22.7091 43.8814 24.5494 44.1667 26.5 44.1667ZM26.5 24.2917C27.457 24.2917 28.2483 23.9788 28.874 23.3531C29.4997 22.7274 29.8125 21.9361 29.8125 20.9792C29.8125 20.0222 29.4997 19.2309 28.874 18.6052C28.2483 17.9795 27.457 17.6667 26.5 17.6667C25.5431 17.6667 24.7518 17.9795 24.1261 18.6052C23.5004 19.2309 23.1875 20.0222 23.1875 20.9792C23.1875 21.9361 23.5004 22.7274 24.1261 23.3531C24.7518 23.9788 25.5431 24.2917 26.5 24.2917Z" fill="#DC0000"/>
</g>
</svg>
