<svg width="32" height="28" viewBox="0 0 32 28" fill="none" xmlns="http://www.w3.org/2000/svg">
<mask id="mask0_1_994" style="mask-type:alpha" maskUnits="userSpaceOnUse" x="0" y="0" width="32" height="28">
<rect width="31.1111" height="28" fill="#255582"/>
</mask>
<g mask="url(#mask0_1_994)">
<path d="M17.284 15.897C17.9969 15.897 18.6073 15.6618 19.115 15.1915C19.6227 14.7212 19.8766 14.1558 19.8766 13.4954C19.8766 12.8349 19.6227 12.2696 19.115 11.7992C18.6073 11.3289 17.9969 11.0938 17.284 11.0938C16.571 11.0938 15.9607 11.3289 15.453 11.7992C14.9452 12.2696 14.6914 12.8349 14.6914 13.4954C14.6914 14.1558 14.9452 14.7212 15.453 15.1915C15.9607 15.6618 16.571 15.897 17.284 15.897ZM17.284 24.7229C19.9198 22.4814 21.875 20.445 23.1497 18.6138C24.4244 16.7826 25.0618 15.1565 25.0618 13.7355C25.0618 11.5541 24.311 9.76787 22.8094 8.37693C21.3079 6.986 19.4661 6.29053 17.284 6.29053C15.1019 6.29053 13.2601 6.986 11.7585 8.37693C10.257 9.76787 9.5062 11.5541 9.5062 13.7355C9.5062 15.1565 10.1435 16.7826 11.4182 18.6138C12.6929 20.445 14.6482 22.4814 17.284 24.7229ZM17.284 27.9051C13.8056 25.1632 11.2076 22.6165 9.48999 20.2649C7.7724 17.9133 6.9136 15.7369 6.9136 13.7355C6.9136 10.7335 7.95604 8.34191 10.0409 6.56071C12.1258 4.77951 14.5401 3.88892 17.284 3.88892C20.0278 3.88892 22.4422 4.77951 24.527 6.56071C26.6119 8.34191 27.6543 10.7335 27.6543 13.7355C27.6543 15.7369 26.7955 17.9133 25.078 20.2649C23.3604 22.6165 20.7624 25.1632 17.284 27.9051Z" fill="#DC0000"/>
</g>
</svg>
