<svg width="185" height="42" viewBox="0 0 185 42" fill="none" xmlns="http://www.w3.org/2000/svg">
<path d="M20.709 29.8037L27.8708 34.1353C29.1824 34.9292 30.7873 33.7557 30.4422 32.2715L28.5439 24.126L34.8773 18.6381C36.0336 17.6372 35.4123 15.7389 33.8937 15.6181L25.5583 14.9105L22.2967 7.21367C21.7099 5.81582 19.708 5.81582 19.1213 7.21367L15.8596 14.8932L7.52427 15.6008C6.00561 15.7216 5.38434 17.6199 6.54059 18.6209L12.8741 24.1087L10.9758 32.2543C10.6306 33.7384 12.2356 34.9119 13.5471 34.1181L20.709 29.8037Z" fill="#DA1D1D"/>
<path d="M56.6045 29.8037L63.7663 34.1353C65.0779 34.9292 66.6828 33.7557 66.3377 32.2715L64.4394 24.126L70.7729 18.6381C71.9291 17.6372 71.3078 15.7389 69.7892 15.6181L61.4538 14.9105L58.1922 7.21367C57.6054 5.81582 55.6035 5.81582 55.0168 7.21367L51.7551 14.8932L43.4198 15.6008C41.9011 15.7216 41.2799 17.6199 42.4361 18.6209L48.7696 24.1087L46.8713 32.2543C46.5261 33.7384 48.1311 34.9119 49.4426 34.1181L56.6045 29.8037Z" fill="#DA1D1D"/>
<path d="M92.5 29.8037L99.6619 34.1353C100.973 34.9292 102.578 33.7557 102.233 32.2715L100.335 24.126L106.668 18.6381C107.825 17.6372 107.203 15.7389 105.685 15.6181L97.3494 14.9105L94.0877 7.21367C93.5009 5.81582 91.4991 5.81582 90.9123 7.21367L87.6507 14.8932L79.3153 15.6008C77.7967 15.7216 77.1754 17.6199 78.3316 18.6209L84.6651 24.1087L82.7668 32.2543C82.4217 33.7384 84.0266 34.9119 85.3382 34.1181L92.5 29.8037Z" fill="#DA1D1D"/>
<path d="M128.396 29.8037L135.557 34.1353C136.869 34.9292 138.474 33.7557 138.129 32.2715L136.23 24.126L142.564 18.6381C143.72 17.6372 143.099 15.7389 141.58 15.6181L133.245 14.9105L129.983 7.21367C129.396 5.81582 127.395 5.81582 126.808 7.21367L123.546 14.8932L115.211 15.6008C113.692 15.7216 113.071 17.6199 114.227 18.6209L120.561 24.1087L118.662 32.2543C118.317 33.7384 119.922 34.9119 121.234 34.1181L128.396 29.8037Z" fill="#DA1D1D"/>
<path d="M164.291 29.8037L171.453 34.1353C172.764 34.9292 174.369 33.7557 174.024 32.2715L172.126 24.126L178.459 18.6381C179.616 17.6372 178.994 15.7389 177.476 15.6181L169.14 14.9105L165.879 7.21367C165.292 5.81582 163.29 5.81582 162.703 7.21367L159.442 14.8932L151.106 15.6008C149.588 15.7216 148.966 17.6199 150.123 18.6209L156.456 24.1087L154.558 32.2543C154.213 33.7384 155.818 34.9119 157.129 34.1181L164.291 29.8037Z" fill="#DA1D1D"/>
</svg>
