<svg width="59" height="59" viewBox="0 0 59 59" fill="none" xmlns="http://www.w3.org/2000/svg">
<path d="M29.2971 7.35016C23.4669 7.37737 17.8848 9.71249 13.7718 13.8447C9.6589 17.9769 7.34991 23.5699 7.34998 29.4001C7.34998 35.2481 9.67309 40.8566 13.8083 44.9918C17.9434 49.127 23.5519 51.4501 29.4 51.4501C35.248 51.4501 40.8565 49.127 44.9917 44.9918C49.1268 40.8566 51.45 35.2481 51.45 29.4001C51.45 23.5521 49.1268 17.9436 44.9917 13.8084C40.8565 9.67327 35.248 7.35016 29.4 7.35016C29.3657 7.35008 29.3314 7.35008 29.2971 7.35016ZM38.4147 20.6242C38.5985 20.6206 39.0046 20.6665 39.2692 20.8815C39.445 21.0342 39.5571 21.2473 39.5834 21.4787C39.6128 21.6496 39.6495 22.0409 39.6201 22.346C39.2894 25.8335 37.8525 34.2934 37.1211 38.1981C36.8124 39.8518 36.2042 40.4049 35.6144 40.4582C34.3355 40.5776 33.3635 39.6129 32.1231 38.8007C30.1827 37.5274 29.0858 36.7354 27.2023 35.4933C25.0249 34.06 26.4361 33.2699 27.6764 31.9836C28.0016 31.6455 33.6428 26.5134 33.753 26.0485C33.7659 25.9897 33.7787 25.7729 33.6501 25.659C33.5215 25.545 33.3304 25.5836 33.1926 25.6149C32.9978 25.659 29.8979 27.7096 23.893 31.7613C23.011 32.3677 22.2153 32.6617 21.5006 32.6433C20.7141 32.6286 19.2 32.2005 18.0736 31.8348C16.6918 31.3846 15.5948 31.1476 15.6904 30.385C15.74 29.9881 16.2876 29.582 17.3313 29.1668C23.7588 26.3664 28.0439 24.5197 30.1901 23.6285C36.3126 21.0818 37.586 20.6389 38.4147 20.6242Z" fill="#3BC1EC"/>
</svg>
