<svg width="59" height="59" viewBox="0 0 59 59" fill="none" xmlns="http://www.w3.org/2000/svg">
<path d="M10.637 10.4371C7.54999 13.5535 7.54999 18.5368 7.54999 28.5181V30.2821C7.54999 40.2487 7.54999 45.232 10.637 48.3631C13.7534 51.4501 18.7367 51.4501 28.718 51.4501H30.482C40.4486 51.4501 45.4319 51.4501 48.563 48.3631C51.65 45.2467 51.65 40.2634 51.65 30.2821V28.5181C51.65 18.5515 51.65 13.5682 48.563 10.4371C45.4466 7.3501 40.4633 7.3501 30.482 7.3501H28.718C18.7514 7.3501 13.7681 7.3501 10.637 10.4371ZM14.9882 20.7712H20.045C20.2067 29.1796 23.9111 32.737 26.8511 33.472V20.7712H31.5992V28.0183C34.4951 27.7096 37.5527 24.4021 38.5817 20.7565H43.3151C42.9293 22.6437 42.1583 24.431 41.0505 26.0068C39.9427 27.5825 38.5217 28.9128 36.8765 29.9146C38.7126 30.8281 40.3341 32.1206 41.634 33.7069C42.9339 35.2931 43.8826 37.137 44.4176 39.1168H39.1991C38.0819 35.6329 35.2889 32.9281 31.5992 32.5606V39.1168H31.0112C20.9564 39.1168 15.2234 32.2372 14.9882 20.7712Z" fill="#3179E6"/>
</svg>
