<svg width="57" height="58" viewBox="0 0 57 58" fill="none" xmlns="http://www.w3.org/2000/svg">
<path fill-rule="evenodd" clip-rule="evenodd" d="M5.81052 1.93872C1.2605 4.76657 0.291487 6.24616 0.0349711 10.753C-0.4827 19.8672 4.74039 29.8383 16.1352 41.4894C27.485 53.0942 37.4237 58.4962 46.4458 57.9643C50.8275 57.7063 51.7932 57.0974 54.5708 52.8447C58.4269 46.9401 58.2567 46.5003 49.9099 40.8247C45.7301 37.9827 42.8615 36.3382 42.0846 36.3382C40.6777 36.3382 39.7611 37.0889 37.3267 40.2356C36.3716 41.4696 35.2672 42.4796 34.8724 42.4796C33.473 42.4796 27.6993 38.0904 23.6103 33.9181C19.5112 29.7354 15.2427 23.9049 15.2427 22.4881C15.2427 22.0861 16.234 20.9613 17.4461 19.9886C20.5284 17.5155 21.2729 16.5764 21.2729 15.162C21.2729 13.7821 13.2722 1.1309 11.9405 0.404804C10.4492 -0.407742 9.00422 -0.0463483 5.81052 1.93872ZM14.8948 8.23596C17.1274 11.591 18.9536 14.716 18.9536 15.1804C18.9536 15.6523 17.742 16.9836 16.2099 18.1958C14.6457 19.4326 13.3404 20.8739 13.1748 21.5471C11.9006 26.7181 30.719 45.8833 35.7965 44.5856C36.4575 44.4169 37.8727 43.0876 39.0871 41.4946C40.2593 39.9579 41.5757 38.7003 42.0122 38.7003C42.8207 38.7003 53.7767 45.8701 54.7003 47.0034C55.3835 47.8419 51.7524 54.0971 50.0825 54.9597C46.5752 56.771 40.456 56.0449 34.4568 53.1065C24.4624 48.2109 9.60167 33.0611 4.78121 22.8538C1.92336 16.8027 1.21643 10.5574 2.98699 7.00107C3.59976 5.7695 9.50055 1.78566 10.3721 2.01478C10.6273 2.08186 12.6627 4.88137 14.8948 8.23596ZM31.605 8.0503C30.7394 8.93654 31.7724 9.88325 33.6047 9.88325C35.905 9.88325 39.9972 11.6033 42.5099 13.6262C45.3112 15.881 47.682 20.2522 48.0447 23.8312C48.3254 26.6 48.9539 27.5689 50.031 26.891C50.5839 26.5428 50.6081 25.9632 50.1776 23.4032C48.7786 15.084 42.5642 8.89686 34.493 7.78717C32.901 7.56797 31.9951 7.65064 31.605 8.0503ZM31.3939 13.8992C30.815 14.5001 31.5637 15.5522 32.5712 15.555C37.4701 15.5678 42.6106 20.7841 42.6106 25.7425C42.6106 26.9873 43.7257 27.5623 44.4401 26.686C45.2282 25.7185 44.1567 21.5612 42.4547 18.9833C40.533 16.0728 37.2739 14.0343 34.1247 13.7721C32.7962 13.6616 31.5679 13.7188 31.3939 13.8992ZM31.3244 20.0023C31.1142 20.5602 31.3888 20.9055 32.2985 21.2287C35.0422 22.2028 35.8953 22.9364 36.566 24.8974C37.0466 26.3028 37.509 26.89 38.1348 26.89C39.6502 26.89 38.8714 23.3337 36.9204 21.3472C35.0473 19.4392 31.8281 18.6658 31.3244 20.0023Z" fill="white"/>
</svg>
