<svg width="48" height="48" viewBox="0 0 48 48" fill="none" xmlns="http://www.w3.org/2000/svg">
<path fill-rule="evenodd" clip-rule="evenodd" d="M28.4001 4.30078L28.3326 4.30078C27.27 4.30076 26.3712 4.30073 25.6345 4.36093C24.8624 4.42401 24.1198 4.5616 23.4124 4.92205C22.3398 5.46852 21.4679 6.34051 20.9214 7.41304C20.5609 8.12046 20.4233 8.86302 20.3603 9.63516C20.3007 10.3644 20.3001 11.2524 20.3001 12.3008H11.6237L11.4122 12.3007C10.2996 12.2996 9.38322 12.2987 8.53086 12.5709C7.78224 12.81 7.09114 13.2013 6.50097 13.7202C5.82902 14.3111 5.35829 15.0973 4.78674 16.0519L4.67804 16.2334L1.45442 21.6061L1.40128 21.6946C1.11323 22.1741 0.875376 22.5701 0.703126 23.0035C0.551286 23.3856 0.441224 23.7829 0.374862 24.1886C0.299582 24.6489 0.299808 25.1108 0.300081 25.6702L0.300115 25.7735V30.0008L0.300114 30.0568C0.300095 30.941 0.30008 31.689 0.342118 32.3051C0.386084 32.9495 0.481659 33.5729 0.734001 34.1821C1.31252 35.5787 2.42216 36.6884 3.81882 37.2669C4.42803 37.5192 5.05139 37.6148 5.69577 37.6588C5.89498 37.6724 6.10798 37.6816 6.33491 37.6878C6.67892 41.0654 9.53175 43.7008 13.0001 43.7008C16.464 43.7008 19.314 41.0721 19.664 37.7008H26.3362C26.6862 41.0721 29.5362 43.7008 33.0001 43.7008C36.464 43.7008 39.314 41.0721 39.664 37.7008H39.6677C40.7302 37.7008 41.629 37.7008 42.3657 37.6406C43.1379 37.5776 43.8804 37.44 44.5879 37.0795C45.6604 36.533 46.5324 35.6611 47.0789 34.5885C47.4393 33.8811 47.5769 33.1385 47.64 32.3664C47.7002 31.6297 47.7001 30.7309 47.7001 29.6683V29.6008V12.4008V12.3332C47.7001 11.2707 47.7002 10.3719 47.64 9.63516C47.5769 8.86302 47.4393 8.12046 47.0789 7.41304C46.5324 6.34051 45.6604 5.46852 44.5879 4.92205C43.8804 4.5616 43.1379 4.42401 42.3657 4.36093C41.629 4.30073 40.7302 4.30076 39.6677 4.30078L39.6001 4.30078H28.4001ZM20.3001 16.0008V15.7008H11.6237C10.19 15.7008 9.84673 15.7199 9.56518 15.8098C9.26311 15.9063 8.98425 16.0642 8.74611 16.2735C8.52415 16.4687 8.33115 16.7533 7.59352 17.9827L5.00264 22.3008H15.6001C16.7483 22.3008 17.5071 22.2995 18.0889 22.2519C18.6508 22.206 18.8961 22.1256 19.0443 22.0501C19.4771 21.8296 19.8289 21.4777 20.0494 21.045C20.125 20.8967 20.2054 20.6514 20.2513 20.0895C20.2988 19.5078 20.3001 18.7489 20.3001 17.6008V16.0008ZM23.7001 16.0008V17.6008V17.6683V17.6684C23.7001 18.7309 23.7002 19.6297 23.64 20.3664C23.5769 21.1385 23.4393 21.8811 23.0789 22.5885C22.5324 23.6611 21.6604 24.533 20.5879 25.0795C19.8804 25.44 19.1379 25.5776 18.3657 25.6406C17.629 25.7008 16.7303 25.7008 15.6678 25.7008H15.6677L15.6001 25.7008H3.70013C3.70012 25.7244 3.70011 25.7486 3.70011 25.7735V30.0008C3.70011 30.9559 3.70104 31.5871 3.73423 32.0737C3.76639 32.545 3.82305 32.7551 3.87519 32.881C4.10863 33.4445 4.55638 33.8923 5.11994 34.1257C5.24582 34.1778 5.45594 34.2345 5.92721 34.2667C6.18943 34.2846 6.49368 34.2931 6.86801 34.2971C7.90726 31.9435 10.2619 30.3008 13.0001 30.3008C15.7398 30.3008 18.0954 31.9452 19.1338 34.3008H26.8664C27.9048 31.9452 30.2604 30.3008 33.0001 30.3008C35.7398 30.3008 38.0954 31.9452 39.1338 34.3008H39.6001C40.7483 34.3008 41.5071 34.2995 42.0889 34.2519C42.6508 34.206 42.8961 34.1256 43.0443 34.0501C43.4771 33.8296 43.8289 33.4777 44.0494 33.045C44.125 32.8967 44.2054 32.6514 44.2513 32.0895C44.2988 31.5078 44.3001 30.7489 44.3001 29.6008V12.4008C44.3001 11.2526 44.2988 10.4938 44.2513 9.91203C44.2054 9.35015 44.125 9.10483 44.0494 8.95661C43.8289 8.52383 43.4771 8.17198 43.0443 7.95147C42.8961 7.87594 42.6508 7.79554 42.0889 7.74963C41.5071 7.70211 40.7483 7.70078 39.6001 7.70078H28.4001C27.252 7.70078 26.4931 7.70211 25.9114 7.74963C25.3495 7.79554 25.1042 7.87594 24.9559 7.95147C24.5232 8.17198 24.1713 8.52383 23.9508 8.95661C23.8753 9.10483 23.7949 9.35015 23.749 9.91203C23.7014 10.4938 23.7001 11.2526 23.7001 12.4008V14.0008V16.0008ZM13.0001 33.7008C11.1776 33.7008 9.70012 35.1782 9.70012 37.0008C9.70012 38.8233 11.1776 40.3008 13.0001 40.3008C14.8227 40.3008 16.3001 38.8233 16.3001 37.0008C16.3001 35.1782 14.8227 33.7008 13.0001 33.7008ZM33.0001 33.7008C31.1776 33.7008 29.7001 35.1782 29.7001 37.0008C29.7001 38.8233 31.1776 40.3008 33.0001 40.3008C34.8227 40.3008 36.3001 38.8233 36.3001 37.0008C36.3001 35.1782 34.8227 33.7008 33.0001 33.7008Z" fill="#36A9E1" fill-opacity="0.74"/>
</svg>
