<svg width="48" height="48" viewBox="0 0 48 48" fill="none" xmlns="http://www.w3.org/2000/svg">
<path fill-rule="evenodd" clip-rule="evenodd" d="M11.2019 2.7987C11.8658 3.46259 11.8658 4.53897 11.2019 5.20286L5.20189 11.2029C4.538 11.8668 3.46161 11.8668 2.79772 11.2029C2.13383 10.539 2.13383 9.46259 2.79772 8.7987L8.79772 2.7987C9.46161 2.13481 10.538 2.13481 11.2019 2.7987ZM7.6998 24.0008C7.6998 14.9985 14.9976 7.70078 23.9998 7.70078C33.002 7.70078 40.2998 14.9985 40.2998 24.0008C40.2998 33.003 33.002 40.3008 23.9998 40.3008C14.9976 40.3008 7.6998 33.003 7.6998 24.0008ZM23.9998 4.30078C13.1198 4.30078 4.2998 13.1208 4.2998 24.0008C4.2998 34.8808 13.1198 43.7008 23.9998 43.7008C34.8798 43.7008 43.6998 34.8808 43.6998 24.0008C43.6998 13.1208 34.8798 4.30078 23.9998 4.30078ZM25.6998 16.0008C25.6998 15.0619 24.9387 14.3008 23.9998 14.3008C23.0609 14.3008 22.2998 15.0619 22.2998 16.0008V24.0008C22.2998 24.5692 22.5839 25.1 23.0568 25.4153L29.0568 29.4153C29.838 29.9361 30.8935 29.725 31.4143 28.9438C31.9351 28.1626 31.724 27.1071 30.9428 26.5863L25.6998 23.091V16.0008ZM36.7977 5.20286C36.1338 4.53897 36.1338 3.46259 36.7977 2.7987C37.4616 2.13481 38.538 2.13481 39.2019 2.7987L45.2019 8.7987C45.8658 9.46259 45.8658 10.539 45.2019 11.2029C44.538 11.8668 43.4616 11.8668 42.7977 11.2029L36.7977 5.20286Z" fill="#36A9E1" fill-opacity="0.74"/>
</svg>
