<svg width="48" height="48" viewBox="0 0 48 48" fill="none" xmlns="http://www.w3.org/2000/svg">
<path fill-rule="evenodd" clip-rule="evenodd" d="M9.70005 14.0008C9.70005 10.5214 12.5207 7.70078 16 7.70078C19.4794 7.70078 22.3 10.5214 22.3 14.0008C22.3 17.4802 19.4794 20.3008 16 20.3008C12.5207 20.3008 9.70005 17.4802 9.70005 14.0008ZM16 4.30078C10.6429 4.30078 6.30005 8.64362 6.30005 14.0008C6.30005 19.3579 10.6429 23.7008 16 23.7008C21.3572 23.7008 25.7001 19.3579 25.7001 14.0008C25.7001 8.64362 21.3572 4.30078 16 4.30078ZM28 4.30078C27.0612 4.30078 26.3 5.0619 26.3 6.00078C26.3 6.93967 27.0612 7.70078 28 7.70078C31.4794 7.70078 34.3 10.5214 34.3 14.0008C34.3 17.4802 31.4794 20.3008 28 20.3008C27.0612 20.3008 26.3 21.0619 26.3 22.0008C26.3 22.9397 27.0612 23.7008 28 23.7008C33.3572 23.7008 37.7001 19.3579 37.7001 14.0008C37.7001 8.64362 33.3572 4.30078 28 4.30078ZM12 31.7008C8.52066 31.7008 5.70005 34.5214 5.70005 38.0008C5.70005 39.271 6.72979 40.3008 8.00005 40.3008H24C25.2703 40.3008 26.3 39.271 26.3 38.0008C26.3 34.5214 23.4794 31.7008 20 31.7008H12ZM2.30005 38.0008C2.30005 32.6436 6.64289 28.3008 12 28.3008H20C25.3572 28.3008 29.7001 32.6436 29.7001 38.0008C29.7001 41.1488 27.1481 43.7008 24 43.7008H8.00005C4.85203 43.7008 2.30005 41.1488 2.30005 38.0008ZM32 28.3008C31.0612 28.3008 30.3 29.0619 30.3 30.0008C30.3 30.9397 31.0612 31.7008 32 31.7008H36C39.4794 31.7008 42.3 34.5214 42.3 38.0008C42.3 39.271 41.2703 40.3008 40 40.3008H32C31.0612 40.3008 30.3 41.0619 30.3 42.0008C30.3 42.9397 31.0612 43.7008 32 43.7008H40C43.1481 43.7008 45.7001 41.1488 45.7001 38.0008C45.7001 32.6436 41.3572 28.3008 36 28.3008H32Z" fill="#36A9E1" fill-opacity="0.74"/>
</svg>
