<svg width="48" height="48" viewBox="0 0 48 48" fill="none" xmlns="http://www.w3.org/2000/svg">
<path fill-rule="evenodd" clip-rule="evenodd" d="M12.4001 4.30078H12.3325H12.3324C11.2699 4.30076 10.3711 4.30074 9.63443 4.36093C8.86229 4.42401 8.11973 4.5616 7.41231 4.92205C6.33978 5.46853 5.46779 6.34051 4.92132 7.41304C4.56087 8.12046 4.42328 8.86302 4.36019 9.63516C4.3 10.3719 4.30002 11.2706 4.30005 12.3332V12.3332V12.4008V35.6008V35.6684V35.6684C4.30002 36.7309 4.3 37.6297 4.36019 38.3664C4.42328 39.1385 4.56087 39.8811 4.92132 40.5885C5.46779 41.6611 6.33978 42.533 7.41231 43.0795C8.11973 43.44 8.86229 43.5776 9.63443 43.6406C10.3712 43.7008 11.27 43.7008 12.3326 43.7008H12.4001H13.9964L14.0001 43.7008L15.6001 43.7008H15.6675H35.6001H35.6676C36.7302 43.7008 37.6289 43.7008 38.3657 43.6406C39.1378 43.5776 39.8804 43.44 40.5878 43.0795C41.6603 42.533 42.5323 41.6611 43.0788 40.5885C43.4392 39.8811 43.5768 39.1385 43.6399 38.3664C43.7001 37.6297 43.7001 36.7309 43.7001 35.6683V35.6008V32.4008V32.3332C43.7001 31.2707 43.7001 30.3719 43.6399 29.6352C43.5768 28.863 43.4392 28.1205 43.0788 27.413C42.5323 26.3405 41.6603 25.4685 40.5878 24.922C39.8804 24.5616 39.1378 24.424 38.3657 24.3609C38.2683 24.353 38.168 24.3461 38.0649 24.3401L39.6764 22.7286L39.7242 22.6808L39.7244 22.6806C40.4757 21.9294 41.1112 21.2939 41.5896 20.7304C42.091 20.1398 42.5188 19.5174 42.7641 18.7622C43.1361 17.6174 43.136 16.3842 42.764 15.2393C42.5186 14.4842 42.0908 13.8619 41.5894 13.2713C41.111 12.7078 40.4754 12.0723 39.724 11.3211L39.7239 11.3209L39.6761 11.2732L37.7265 9.32374L37.6787 9.27599L37.6787 9.27594C36.9274 8.52467 36.2918 7.88917 35.7283 7.41083C35.1377 6.9095 34.5153 6.48176 33.7602 6.23645C32.6154 5.86454 31.3823 5.86459 30.2375 6.23659C29.4824 6.48195 28.8601 6.90974 28.2695 7.41112C27.7061 7.88951 27.0706 8.52507 26.3193 9.27641L26.2715 9.32419L23.6999 11.8959C23.6989 11.0218 23.6917 10.2686 23.6399 9.63516C23.5768 8.86302 23.4392 8.12046 23.0788 7.41304C22.5323 6.34051 21.6603 5.46853 20.5878 4.92205C19.8804 4.5616 19.1378 4.42401 18.3657 4.36093C17.629 4.30074 16.7302 4.30076 15.6677 4.30078H15.6676H15.6001H12.4001ZM23.7001 16.7042V33.8966L37.2722 20.3244C38.0842 19.5125 38.6199 18.975 38.9976 18.53C39.3625 18.1002 39.4791 17.8699 39.5305 17.7116C39.6806 17.2497 39.6806 16.7521 39.5304 16.2901C39.479 16.1319 39.3624 15.9016 38.9975 15.4718C38.6197 15.0269 38.084 14.4893 37.2721 13.6774L35.3224 11.728C34.5105 10.9162 33.973 10.3806 33.528 10.0029C33.0983 9.63809 32.8679 9.52149 32.7097 9.47009C32.2478 9.32002 31.7502 9.32004 31.2883 9.47015C31.1301 9.52156 30.8998 9.63817 30.47 10.003C30.0251 10.3808 29.4876 10.9164 28.6757 11.7283L23.7001 16.7042ZM23.5939 38.8111C23.5284 39.3221 23.4163 39.8192 23.2127 40.3008H35.6001C36.7482 40.3008 37.5071 40.2995 38.0888 40.2519C38.6507 40.206 38.896 40.1256 39.0442 40.0501C39.477 39.8296 39.8289 39.4777 40.0494 39.045C40.1249 38.8967 40.2053 38.6514 40.2512 38.0895C40.2987 37.5078 40.3 36.7489 40.3 35.6008V32.4008C40.3 31.2526 40.2987 30.4938 40.2512 29.912C40.2053 29.3501 40.1249 29.1048 40.0494 28.9566C39.8289 28.5238 39.477 28.172 39.0442 27.9515C38.896 27.8759 38.6507 27.7955 38.0888 27.7496C37.5071 27.7021 36.7482 27.7008 35.6001 27.7008H34.7042L23.5939 38.8111ZM15.6001 40.3008C16.7482 40.3008 17.5071 40.2995 18.0888 40.2519C18.6507 40.206 18.896 40.1256 19.0442 40.0501C19.477 39.8296 19.8289 39.4777 20.0494 39.045C20.1249 38.8967 20.2053 38.6514 20.2512 38.0895C20.2987 37.5078 20.3001 36.7489 20.3001 35.6008V12.4008C20.3001 11.2526 20.2987 10.4938 20.2512 9.91203C20.2053 9.35015 20.1249 9.10483 20.0494 8.95661C19.8289 8.52383 19.477 8.17198 19.0442 7.95147C18.896 7.87594 18.6507 7.79554 18.0888 7.74964C17.5071 7.70211 16.7482 7.70078 15.6001 7.70078H12.4001C11.2519 7.70078 10.493 7.70211 9.91129 7.74964C9.34942 7.79554 9.1041 7.87594 8.95587 7.95147C8.5231 8.17198 8.17125 8.52383 7.95074 8.95661C7.87521 9.10483 7.79481 9.35015 7.7489 9.91203C7.70137 10.4938 7.70005 11.2526 7.70005 12.4008V35.6008C7.70005 36.7489 7.70137 37.5078 7.7489 38.0895C7.79481 38.6514 7.87521 38.8967 7.95074 39.045C8.17125 39.4777 8.5231 39.8296 8.95587 40.0501C9.1041 40.1256 9.34942 40.206 9.91129 40.2519C10.493 40.2995 11.2519 40.3008 12.4001 40.3008L14.0001 40.3008L15.6001 40.3008ZM16.0001 34.0008C16.0001 35.1054 15.1046 36.0008 14.0001 36.0008C12.8955 36.0008 12.0001 35.1054 12.0001 34.0008C12.0001 32.8962 12.8955 32.0008 14.0001 32.0008C15.1046 32.0008 16.0001 32.8962 16.0001 34.0008Z" fill="#36A9E1" fill-opacity="0.74"/>
</svg>
