<svg width="48" height="48" viewBox="0 0 48 48" fill="none" xmlns="http://www.w3.org/2000/svg">
<path fill-rule="evenodd" clip-rule="evenodd" d="M29.6 7.70078C30.7481 7.70078 31.507 7.70211 32.0887 7.74963C32.6506 7.79554 32.8959 7.87594 33.0442 7.95147C33.4769 8.17198 33.8288 8.52383 34.0493 8.95661C34.1248 9.10483 34.2052 9.35015 34.2511 9.91203C34.2973 10.4767 34.2999 11.2083 34.3 12.3008H24H7.99999C6.72973 12.3008 5.69999 11.271 5.69999 10.0008C5.69999 8.73053 6.72973 7.70078 7.99999 7.70078H29.6ZM2.29999 10.0008C2.29999 6.85276 4.85197 4.30078 7.99999 4.30078H29.6L29.6676 4.30078C30.7301 4.30076 31.6289 4.30073 32.3656 4.36093C33.1378 4.42401 33.8803 4.5616 34.5877 4.92205C35.6603 5.46852 36.5322 6.34051 37.0787 7.41304C37.4392 8.12046 37.5768 8.86302 37.6398 9.63516C37.7 10.3719 37.7 11.2707 37.7 12.3333V12.3406C37.9733 12.3526 38.2328 12.368 38.4792 12.3882C39.5849 12.4785 40.5744 12.6706 41.4957 13.14C42.9446 13.8783 44.1225 15.0562 44.8607 16.5051C45.3302 17.4264 45.5223 18.4159 45.6126 19.5216C45.7 20.5916 45.7 21.9099 45.7 23.5292V23.6008V24.0008V32.0008V32.4008V32.4724C45.7 34.0917 45.7 35.4099 45.6126 36.48C45.5223 37.5856 45.3302 38.5752 44.8607 39.4965C44.1225 40.9454 42.9446 42.1233 41.4957 42.8615C40.5744 43.331 39.5849 43.5231 38.4792 43.6134C37.4092 43.7008 36.091 43.7008 34.4718 43.7008H34.4716H34.4H13.6H13.5284H13.5282C11.909 43.7008 10.5908 43.7008 9.52077 43.6134C8.41512 43.5231 7.42559 43.331 6.50426 42.8615C5.05541 42.1233 3.87746 40.9454 3.13924 39.4965C2.6698 38.5752 2.47771 37.5857 2.38738 36.48C2.29995 35.41 2.29997 34.0918 2.29999 32.4725L2.29999 32.4008V10.0008ZM42.3 30.3008V25.7008H40C38.7297 25.7008 37.7 26.7305 37.7 28.0008C37.7 29.271 38.7297 30.3008 40 30.3008H42.3ZM42.2982 22.3008H40C36.852 22.3008 34.3 24.8528 34.3 28.0008C34.3 31.1488 36.852 33.7008 40 33.7008H42.2982C42.2937 34.7402 42.278 35.5407 42.2239 36.2031C42.1507 37.0985 42.0158 37.5908 41.8313 37.9529C41.4191 38.762 40.7612 39.4199 39.9521 39.8321C39.59 40.0166 39.0977 40.1515 38.2023 40.2247C37.2871 40.2995 36.1082 40.3008 34.4 40.3008H13.6C11.8918 40.3008 10.7129 40.2995 9.79764 40.2247C8.90225 40.1515 8.40997 40.0166 8.04783 39.8321C7.23873 39.4199 6.58092 38.762 6.16866 37.9529C5.98414 37.5908 5.84924 37.0985 5.77609 36.2031C5.70131 35.2879 5.69999 34.109 5.69999 32.4008V15.2177C6.40346 15.5283 7.18158 15.7008 7.99999 15.7008H24H34.4C36.1082 15.7008 37.2871 15.7021 38.2023 15.7769C39.0977 15.85 39.59 15.9849 39.9521 16.1695C40.7612 16.5817 41.4191 17.2395 41.8313 18.0486C42.0158 18.4108 42.1507 18.903 42.2239 19.7984C42.278 20.4608 42.2937 21.2614 42.2982 22.3008ZM20 21.3008C20.9389 21.3008 21.7 22.0619 21.7 23.0008V26.3008H25C25.9389 26.3008 26.7 27.0619 26.7 28.0008C26.7 28.9397 25.9389 29.7008 25 29.7008H21.7V33.0008C21.7 33.9397 20.9389 34.7008 20 34.7008C19.0611 34.7008 18.3 33.9397 18.3 33.0008V29.7008H15C14.0611 29.7008 13.3 28.9397 13.3 28.0008C13.3 27.0619 14.0611 26.3008 15 26.3008H18.3V23.0008C18.3 22.0619 19.0611 21.3008 20 21.3008Z" fill="#36A9E1" fill-opacity="0.74"/>
</svg>
