<svg width="20" height="20" viewBox="0 0 20 20" fill="none" xmlns="http://www.w3.org/2000/svg">
<path d="M8.15887 6.84739C8.06779 6.75309 8.01739 6.62679 8.01853 6.49569C8.01967 6.36459 8.07225 6.23919 8.16496 6.14648C8.25766 6.05378 8.38307 6.00119 8.51417 6.00005C8.64526 5.99891 8.77156 6.04931 8.86587 6.14039L12.3659 9.64039C12.8365 10.111 12.0954 10.784 11.6588 10.3474C10.4921 9.18078 9.32553 8.01406 8.15887 6.84739ZM10.4304 11.1204C10.479 11.0742 10.5364 11.0383 10.5992 11.0147C10.662 10.9912 10.7288 10.9805 10.7958 10.9833C10.8628 10.9862 10.9286 11.0024 10.9891 11.0312C11.0497 11.06 11.1039 11.1006 11.1484 11.1507C11.193 11.2008 11.227 11.2594 11.2485 11.3229C11.2699 11.3865 11.2784 11.4537 11.2733 11.5205C11.2683 11.5874 11.2498 11.6525 11.2191 11.7121C11.1883 11.7717 11.1459 11.8245 11.0944 11.8674L8.84437 13.8674C8.79575 13.9136 8.73834 13.9495 8.67556 13.973C8.61278 13.9966 8.5459 14.0073 8.4789 14.0044C8.41191 14.0016 8.34617 13.9853 8.28559 13.9566C8.22502 13.9278 8.17084 13.8872 8.1263 13.8371C8.08175 13.7869 8.04774 13.7284 8.02628 13.6649C8.00483 13.6013 7.99637 13.5341 8.00142 13.4673C8.00646 13.4004 8.0249 13.3352 8.05565 13.2756C8.08639 13.2161 8.1288 13.1633 8.18037 13.1204L10.4304 11.1204Z" fill="#777777"/>
</svg>
