<svg width="24" height="24" viewBox="0 0 24 24" fill="none" xmlns="http://www.w3.org/2000/svg">
<path d="M18.315 9.31773C18.5036 9.13557 18.7562 9.03478 19.0184 9.03706C19.2806 9.03934 19.5314 9.14451 19.7168 9.32991C19.9022 9.51532 20.0074 9.76613 20.0097 10.0283C20.0119 10.2905 19.9111 10.5431 19.729 10.7317L12.729 17.7317C11.7878 18.6729 10.4417 17.1908 11.3149 16.3176C13.6482 13.9843 15.9817 11.6511 18.315 9.31773ZM9.76898 13.8607C9.86135 13.958 9.93321 14.0728 9.9803 14.1983C10.0274 14.3239 10.0487 14.4577 10.0431 14.5917C10.0374 14.7256 10.0049 14.8571 9.94736 14.9783C9.88985 15.0994 9.80857 15.2078 9.70833 15.2969C9.6081 15.386 9.49097 15.454 9.36391 15.4969C9.23685 15.5398 9.10246 15.5567 8.96874 15.5466C8.83501 15.5365 8.70468 15.4997 8.58549 15.4382C8.46631 15.3767 8.36071 15.2919 8.27498 15.1887L4.27498 10.6887C4.18262 10.5915 4.11076 10.4767 4.06367 10.3511C4.01658 10.2256 3.99523 10.0918 4.00089 9.95781C4.00655 9.82382 4.0391 9.69234 4.09661 9.57118C4.15412 9.45003 4.2354 9.34169 4.33564 9.25259C4.43587 9.16349 4.553 9.09547 4.68006 9.05256C4.80712 9.00966 4.94151 8.99274 5.07523 9.00283C5.20896 9.01292 5.33929 9.04981 5.45847 9.11129C5.57766 9.17278 5.68325 9.25761 5.76898 9.36073L9.76898 13.8607Z" fill="#333333"/>
</svg>
