<svg width="18" height="18" viewBox="0 0 18 18" fill="none" xmlns="http://www.w3.org/2000/svg">
<path d="M3.53271 14.2499H12.0002C12.1991 14.2499 12.3899 14.3289 12.5305 14.4696C12.6712 14.6102 12.7502 14.801 12.7502 14.9999C12.7502 15.1988 12.6712 15.3896 12.5305 15.5302C12.3899 15.6709 12.1991 15.7499 12.0002 15.7499H2.25021C2.11927 15.7499 1.9906 15.7157 1.87701 15.6506C1.76341 15.5854 1.66884 15.4917 1.6027 15.3787C1.53657 15.2657 1.50117 15.1373 1.50003 15.0064C1.49889 14.8755 1.53205 14.7465 1.59621 14.6324L8.34621 2.63238C8.4114 2.51624 8.50635 2.41956 8.62129 2.35227C8.73623 2.28498 8.86702 2.24951 9.00021 2.24951C9.1334 2.24951 9.26418 2.28498 9.37912 2.35227C9.49406 2.41956 9.58901 2.51624 9.65421 2.63238L16.4042 14.6324C16.5017 14.8058 16.5262 15.0109 16.4725 15.2025C16.4188 15.394 16.2912 15.5564 16.1177 15.6539C15.9443 15.7513 15.7392 15.7759 15.5476 15.7222C15.3561 15.6685 15.1937 15.5408 15.0962 15.3674L9.00021 4.52988L3.53271 14.2499ZM8.25021 8.24988C8.25021 8.05097 8.32923 7.8602 8.46988 7.71955C8.61053 7.5789 8.8013 7.49988 9.00021 7.49988C9.19912 7.49988 9.38988 7.5789 9.53054 7.71955C9.67119 7.8602 9.75021 8.05097 9.75021 8.24988V10.4999C9.75021 10.6988 9.67119 10.8896 9.53054 11.0302C9.38988 11.1709 9.19912 11.2499 9.00021 11.2499C8.8013 11.2499 8.61053 11.1709 8.46988 11.0302C8.32923 10.8896 8.25021 10.6988 8.25021 10.4999V8.24988ZM9.00021 13.4999C8.8013 13.4999 8.61053 13.4209 8.46988 13.2802C8.32923 13.1396 8.25021 12.9488 8.25021 12.7499C8.25021 12.551 8.32923 12.3602 8.46988 12.2196C8.61053 12.0789 8.8013 11.9999 9.00021 11.9999C9.19912 11.9999 9.38988 12.0789 9.53054 12.2196C9.67119 12.3602 9.75021 12.551 9.75021 12.7499C9.75021 12.9488 9.67119 13.1396 9.53054 13.2802C9.38988 13.4209 9.19912 13.4999 9.00021 13.4999Z" fill="#CE0606"/>
</svg>
