<svg width="86" height="84" fill="none" xmlns="http://www.w3.org/2000/svg"><path d="M1.825 40V1.7h76.6v40.542C73.999 37.365 67.608 34.3 60.5 34.3c-13.365 0-24.2 10.835-24.2 24.2 0 8.186 4.064 15.421 10.283 19.8H1.825V40z" stroke="url(#paint0_linear)" stroke-width="3.4"/><path d="M21.5 13v15m7.5-7.5H14m53 0H52M26.804 53.197L16.197 63.803m10.607 0L16.197 53.197" stroke="#F1971E" stroke-width="3.4"/><circle cx="60.375" cy="58.5" r="23.8" stroke="#F1971E" stroke-width="3.4"/><path d="M55.511 58.324l3.699-3.822a1.476 1.476 0 10-2.122-2.052l-4.136 4.274v-3.248a1.476 1.476 0 00-2.952 0v9.696a1.476 1.476 0 002.952 0v-3.247l4.136 4.274c.29.299.675.45 1.061.45a1.476 1.476 0 001.06-2.502l-3.698-3.823z" fill="url(#paint1_linear)"/><path d="M69.252 57.265h-2.215a1.476 1.476 0 000 2.952h.715a1.777 1.777 0 01-1.75 1.48 1.776 1.776 0 01-1.773-1.774v-3.197a1.776 1.776 0 013.173-1.09 1.476 1.476 0 002.327-1.816A4.698 4.698 0 0066.003 52a4.73 4.73 0 00-4.726 4.726v3.197a4.73 4.73 0 004.726 4.726 4.73 4.73 0 004.725-4.726v-1.181c0-.816-.66-1.477-1.476-1.477z" fill="url(#paint2_linear)"/><defs><linearGradient id="paint0_linear" x1=".125" y1="80" x2="85.619" y2="73.62" gradientUnits="userSpaceOnUse"><stop offset=".03" stop-color="#F7BB11"/><stop offset="1" stop-color="#F1971E"/></linearGradient><linearGradient id="paint1_linear" x1="50" y1="64.648" x2="60.31" y2="64.063" gradientUnits="userSpaceOnUse"><stop offset=".03" stop-color="#F7BB11"/><stop offset="1" stop-color="#F1971E"/></linearGradient><linearGradient id="paint2_linear" x1="61.277" y1="64.649" x2="71.402" y2="64.084" gradientUnits="userSpaceOnUse"><stop offset=".03" stop-color="#F7BB11"/><stop offset="1" stop-color="#F1971E"/></linearGradient></defs></svg>