<svg width="86" height="84" fill="none" xmlns="http://www.w3.org/2000/svg"><path d="M71.511 57.327l-.892-3.603-.653-1.077-5.251-.036v-2.486c0-.62-.5-1.125-1.116-1.125H47.341c-.615 0-1.115.505-1.115 1.125V56c0 .3.241.545.54.545a.542.542 0 00.539-.545v-5.875c0-.02.016-.036.036-.036h16.258c.02 0 .036.016.036.036V59c0 .301.242.545.54.545.298 0 .54-.244.54-.545v-.617h6.368c.783 0 1.448.52 1.676 1.234l.085.413v2.396h-1.41c-.464-1.35-1.736-2.324-3.23-2.324s-2.766.973-3.23 2.324h-.26v-3.102a.542.542 0 00-.54-.545.542.542 0 00-.539.544v3.103h-6.733c-.464-1.35-1.736-2.324-3.23-2.324s-2.766.973-3.23 2.324h-3.101a.036.036 0 01-.036-.037V56h-1.08v6.39c0 .62.5 1.125 1.116 1.125h2.914v.036c0 1.902 1.533 3.449 3.417 3.449s3.417-1.547 3.417-3.449v-.036h7.698v.036c0 1.902 1.532 3.449 3.417 3.449 1.884 0 3.417-1.547 3.417-3.449v-.036h1.763c.298 0 .54-.244.54-.545v-2.808a2.864 2.864 0 00-2.413-2.835zm-6.796-.033v-3.558h4.794l.882 3.558h-5.677zM53.672 65.91c-1.29 0-2.338-1.058-2.338-2.36 0-1.3 1.049-2.36 2.338-2.36 1.29 0 2.338 1.06 2.338 2.36 0 1.302-1.049 2.36-2.338 2.36zm14.532 0c-1.29 0-2.338-1.058-2.338-2.36 0-1.3 1.049-2.36 2.338-2.36 1.29 0 2.338 1.06 2.338 2.36 0 1.302-1.049 2.36-2.338 2.36z" fill="url(#paint0_linear)"/><path d="M46.226 56v-5.875c0-.62.5-1.125 1.115-1.125h16.258c.615 0 1.116.505 1.116 1.125v2.486l5.251.036.653 1.077.892 3.603a2.864 2.864 0 012.412 2.835v2.808a.542.542 0 01-.54.545H71.62l.001.036c0 1.902-1.533 3.449-3.417 3.449-1.885 0-3.418-1.547-3.418-3.449l.001-.036h-7.699l.001.036c0 1.902-1.533 3.449-3.417 3.449s-3.417-1.547-3.417-3.449v-.036h-2.914a1.122 1.122 0 01-1.115-1.126V56zm0 0c0 .3.241.545.54.545a.542.542 0 00.539-.545m-1.08 0h1.08m0 0v-5.875c0-.02.016-.036.036-.036h16.258c.02 0 .036.016.036.036V59c0 .301.242.545.54.545.298 0 .54-.244.54-.545v-.617h6.368c.783 0 1.448.52 1.676 1.234l.085.413v2.396h-1.41c-.464-1.35-1.736-2.324-3.23-2.324s-2.766.973-3.23 2.324h-.26v-3.102a.542.542 0 00-.54-.545.542.542 0 00-.539.544v3.103h-6.733c-.464-1.35-1.736-2.324-3.23-2.324s-2.766.973-3.23 2.324h-3.101a.036.036 0 01-.036-.037V56zm17.41 1.294v-3.558h4.794l.882 3.558h-5.677zM53.672 65.91c-1.29 0-2.338-1.058-2.338-2.36 0-1.3 1.049-2.36 2.338-2.36 1.29 0 2.338 1.06 2.338 2.36 0 1.302-1.049 2.36-2.338 2.36zm14.532 0c-1.29 0-2.338-1.058-2.338-2.36 0-1.3 1.049-2.36 2.338-2.36 1.29 0 2.338 1.06 2.338 2.36 0 1.302-1.049 2.36-2.338 2.36z" stroke="url(#paint1_linear)" stroke-width="1.4"/><path d="M1.825 40V1.7h76.6v40.542C73.999 37.365 67.608 34.3 60.5 34.3c-13.365 0-24.2 10.835-24.2 24.2 0 8.186 4.064 15.421 10.283 19.8H1.825V40z" stroke="url(#paint2_linear)" stroke-width="3.4"/><path d="M21.5 13v15m7.5-7.5H14m53 0H52M26.804 53.197L16.197 63.803m10.607 0L16.197 53.197" stroke="#F1971E" stroke-width="3.4"/><circle cx="60.375" cy="58.5" r="23.8" stroke="#F1971E" stroke-width="3.4"/><defs><linearGradient id="paint0_linear" x1="46.226" y1="67" x2="75.603" y2="63.627" gradientUnits="userSpaceOnUse"><stop offset=".03" stop-color="#F7BB11"/><stop offset="1" stop-color="#F1971E"/></linearGradient><linearGradient id="paint1_linear" x1="46.226" y1="67" x2="75.603" y2="63.627" gradientUnits="userSpaceOnUse"><stop offset=".03" stop-color="#F7BB11"/><stop offset="1" stop-color="#F1971E"/></linearGradient><linearGradient id="paint2_linear" x1=".125" y1="80" x2="85.619" y2="73.62" gradientUnits="userSpaceOnUse"><stop offset=".03" stop-color="#F7BB11"/><stop offset="1" stop-color="#F1971E"/></linearGradient></defs></svg>