<svg width="86" height="84" fill="none" xmlns="http://www.w3.org/2000/svg"><path d="M59.961 48.173c-2.912.609-5.273 2.947-5.894 5.877-.525 2.475.122 4.959 1.773 6.815a5.021 5.021 0 011.27 3.29v1.29c0 .858.562 1.586 1.337 1.839.255 1.504 1.56 2.715 3.176 2.715 1.614 0 2.92-1.21 3.175-2.715a1.937 1.937 0 001.336-1.84v-1.288c0-1.187.465-2.371 1.308-3.333a7.717 7.717 0 001.915-5.09c0-4.879-4.466-8.59-9.396-7.56zm1.662 20.537c-.829 0-1.555-1.03-1.824-1.796h3.647c-.268.766-.995 1.796-1.823 1.796zm4.85-8.737c-.899 1.026-2.132 4.84-2.272 6.116h-5.156c-.14-1.276-1.372-5.103-2.241-6.08-1.377-1.548-1.915-3.622-1.476-5.691.512-2.416 2.48-4.378 4.897-4.883 4.126-.862 7.843 2.236 7.843 6.299 0 1.56-.567 3.066-1.595 4.24z" fill="url(#paint0_linear)" stroke="url(#paint1_linear)" stroke-width="1.2"/><path d="M50.934 55.734h-1.29a.645.645 0 000 1.289h1.29a.644.644 0 100-1.29z" fill="url(#paint2_linear)" stroke="url(#paint3_linear)" stroke-width="1.2"/><path d="M52.012 51.511L51.1 50.6a.645.645 0 00-.911.911l.911.912a.645.645 0 00.912-.912z" fill="url(#paint4_linear)" stroke="url(#paint5_linear)" stroke-width="1.2"/><path d="M52.012 60.334a.645.645 0 00-.912 0l-.911.912a.645.645 0 00.911.911l.912-.911a.645.645 0 000-.912z" fill="url(#paint6_linear)" stroke="url(#paint7_linear)" stroke-width="1.2"/><path d="M73.557 55.734h-1.29a.645.645 0 100 1.289h1.29a.645.645 0 100-1.29z" fill="url(#paint8_linear)" stroke="url(#paint9_linear)" stroke-width="1.2"/><path d="M73.823 50.6a.645.645 0 00-.911 0l-.912.91a.645.645 0 00.912.912l.911-.912a.645.645 0 000-.911z" fill="url(#paint10_linear)" stroke="url(#paint11_linear)" stroke-width="1.2"/><path d="M73.823 61.246l-.911-.912a.645.645 0 00-.912.912l.912.911a.645.645 0 00.911-.911z" fill="url(#paint12_linear)" stroke="url(#paint13_linear)" stroke-width="1.2"/><path d="M1.825 40V1.7h76.6v40.542C73.999 37.365 67.608 34.3 60.5 34.3c-13.365 0-24.2 10.835-24.2 24.2 0 8.186 4.064 15.421 10.283 19.8H1.825V40z" stroke="url(#paint14_linear)" stroke-width="3.4"/><path d="M21.5 13v15m7.5-7.5H14m53 0H52M26.804 53.197L16.197 63.803m10.607 0L16.197 53.197" stroke="#F1971E" stroke-width="3.4"/><circle cx="60.375" cy="58.5" r="23.8" stroke="#F1971E" stroke-width="3.4"/><defs><linearGradient id="paint0_linear" x1="53.889" y1="69.999" x2="70.466" y2="69.13" gradientUnits="userSpaceOnUse"><stop offset=".03" stop-color="#F7BB11"/><stop offset="1" stop-color="#F1971E"/></linearGradient><linearGradient id="paint1_linear" x1="53.889" y1="69.999" x2="70.466" y2="69.13" gradientUnits="userSpaceOnUse"><stop offset=".03" stop-color="#F7BB11"/><stop offset="1" stop-color="#F1971E"/></linearGradient><linearGradient id="paint2_linear" x1="49" y1="57.023" x2="51.71" y2="56.618" gradientUnits="userSpaceOnUse"><stop offset=".03" stop-color="#F7BB11"/><stop offset="1" stop-color="#F1971E"/></linearGradient><linearGradient id="paint3_linear" x1="49" y1="57.023" x2="51.71" y2="56.618" gradientUnits="userSpaceOnUse"><stop offset=".03" stop-color="#F7BB11"/><stop offset="1" stop-color="#F1971E"/></linearGradient><linearGradient id="paint4_linear" x1="50" y1="52.612" x2="52.352" y2="52.436" gradientUnits="userSpaceOnUse"><stop offset=".03" stop-color="#F7BB11"/><stop offset="1" stop-color="#F1971E"/></linearGradient><linearGradient id="paint5_linear" x1="50" y1="52.612" x2="52.352" y2="52.436" gradientUnits="userSpaceOnUse"><stop offset=".03" stop-color="#F7BB11"/><stop offset="1" stop-color="#F1971E"/></linearGradient><linearGradient id="paint6_linear" x1="50" y1="62.346" x2="52.352" y2="62.17" gradientUnits="userSpaceOnUse"><stop offset=".03" stop-color="#F7BB11"/><stop offset="1" stop-color="#F1971E"/></linearGradient><linearGradient id="paint7_linear" x1="50" y1="62.346" x2="52.352" y2="62.17" gradientUnits="userSpaceOnUse"><stop offset=".03" stop-color="#F7BB11"/><stop offset="1" stop-color="#F1971E"/></linearGradient><linearGradient id="paint8_linear" x1="71.623" y1="57.023" x2="74.333" y2="56.618" gradientUnits="userSpaceOnUse"><stop offset=".03" stop-color="#F7BB11"/><stop offset="1" stop-color="#F1971E"/></linearGradient><linearGradient id="paint9_linear" x1="71.623" y1="57.023" x2="74.333" y2="56.618" gradientUnits="userSpaceOnUse"><stop offset=".03" stop-color="#F7BB11"/><stop offset="1" stop-color="#F1971E"/></linearGradient><linearGradient id="paint10_linear" x1="71.811" y1="52.612" x2="74.163" y2="52.436" gradientUnits="userSpaceOnUse"><stop offset=".03" stop-color="#F7BB11"/><stop offset="1" stop-color="#F1971E"/></linearGradient><linearGradient id="paint11_linear" x1="71.811" y1="52.612" x2="74.163" y2="52.436" gradientUnits="userSpaceOnUse"><stop offset=".03" stop-color="#F7BB11"/><stop offset="1" stop-color="#F1971E"/></linearGradient><linearGradient id="paint12_linear" x1="71.811" y1="62.346" x2="74.163" y2="62.17" gradientUnits="userSpaceOnUse"><stop offset=".03" stop-color="#F7BB11"/><stop offset="1" stop-color="#F1971E"/></linearGradient><linearGradient id="paint13_linear" x1="71.811" y1="62.346" x2="74.163" y2="62.17" gradientUnits="userSpaceOnUse"><stop offset=".03" stop-color="#F7BB11"/><stop offset="1" stop-color="#F1971E"/></linearGradient><linearGradient id="paint14_linear" x1=".125" y1="80" x2="85.619" y2="73.62" gradientUnits="userSpaceOnUse"><stop offset=".03" stop-color="#F7BB11"/><stop offset="1" stop-color="#F1971E"/></linearGradient></defs></svg>