<svg width="14" height="14" viewBox="0 0 14 14" fill="none" xmlns="http://www.w3.org/2000/svg">
<path fill-rule="evenodd" clip-rule="evenodd" d="M0.248959 0.39935C0.580905 0.0674042 1.1191 0.0674042 1.45104 0.39935L6.85 5.79831L12.249 0.39935C12.5809 0.0674042 13.1191 0.0674042 13.451 0.39935C13.783 0.731296 13.783 1.26949 13.451 1.60143L8.05208 7.00039L13.451 12.3994C13.783 12.7313 13.783 13.2695 13.451 13.6014C13.1191 13.9334 12.5809 13.9334 12.249 13.6014L6.85 8.20247L1.45104 13.6014C1.1191 13.9334 0.580905 13.9334 0.248959 13.6014C-0.0829864 13.2695 -0.0829864 12.7313 0.248959 12.3994L5.64792 7.00039L0.248959 1.60143C-0.0829864 1.26949 -0.0829864 0.731296 0.248959 0.39935Z" fill="#B5B9BF"/>
</svg>
