<svg width="32" height="32" viewBox="0 0 32 32" fill="none" xmlns="http://www.w3.org/2000/svg">
<path d="M1.33398 2.66667C2.66732 2.22222 5.33398 2.66666 6.66732 6.66667M6.66732 6.66667C7.89686 10.3553 9.50435 15.5557 10.4442 18.0856C10.5878 18.472 10.8176 18.817 11.1091 19.1085V19.1085C11.68 19.6793 12.4542 20 13.2615 20L22.7996 20C23.5686 20 24.3061 19.6945 24.8499 19.1507V19.1507C25.1683 18.8324 25.4081 18.4443 25.5505 18.0173L28.1318 10.2732C28.46 9.28862 28.2037 8.20309 27.4699 7.46921V7.46921C26.956 6.95535 26.2591 6.66667 25.5323 6.66667H6.66732Z" stroke="#1D2E89" stroke-linecap="round" stroke-linejoin="round"/>
<path d="M16.834 26.6665C16.834 28.5995 15.267 30.1665 13.334 30.1665C11.401 30.1665 9.83398 28.5995 9.83398 26.6665C9.83398 24.7335 11.401 23.1665 13.334 23.1665C15.267 23.1665 16.834 24.7335 16.834 26.6665Z" stroke="#1D2E89"/>
<circle cx="24" cy="26.6665" r="3.5" stroke="#1D2E89"/>
</svg>
