<svg width="24" height="24" viewBox="0 0 24 24" fill="none" xmlns="http://www.w3.org/2000/svg">
<path fill-rule="evenodd" clip-rule="evenodd" d="M3.15039 6.9999C3.15039 6.53046 3.53095 6.1499 4.00039 6.1499H20.0004C20.4698 6.1499 20.8504 6.53046 20.8504 6.9999C20.8504 7.46934 20.4698 7.8499 20.0004 7.8499H4.00039C3.53095 7.8499 3.15039 7.46934 3.15039 6.9999ZM3.15039 11.9999C3.15039 11.5305 3.53095 11.1499 4.00039 11.1499L20.0004 11.1499C20.4698 11.1499 20.8504 11.5305 20.8504 11.9999C20.8504 12.4693 20.4698 12.8499 20.0004 12.8499L4.00039 12.8499C3.53095 12.8499 3.15039 12.4693 3.15039 11.9999ZM4.00039 16.1499C3.53095 16.1499 3.15039 16.5305 3.15039 16.9999C3.15039 17.4693 3.53095 17.8499 4.00039 17.8499H20.0004C20.4698 17.8499 20.8504 17.4693 20.8504 16.9999C20.8504 16.5305 20.4698 16.1499 20.0004 16.1499H4.00039Z" fill="#1D2E89"/>
</svg>
