<svg width="24" height="24" viewBox="0 0 24 24" fill="none" xmlns="http://www.w3.org/2000/svg">
<path fill-rule="evenodd" clip-rule="evenodd" d="M5.39886 5.39898C5.73081 5.06704 6.269 5.06704 6.60094 5.39898L11.9999 10.7979L17.3989 5.39898C17.7308 5.06704 18.269 5.06704 18.6009 5.39898C18.9329 5.73093 18.9329 6.26912 18.6009 6.60107L13.202 12L18.6009 17.399C18.9329 17.7309 18.9329 18.2691 18.6009 18.6011C18.269 18.933 17.7308 18.933 17.3989 18.6011L11.9999 13.2021L6.60094 18.6011C6.269 18.933 5.73081 18.933 5.39886 18.6011C5.06692 18.2691 5.06692 17.7309 5.39886 17.399L10.7978 12L5.39886 6.60107C5.06692 6.26912 5.06692 5.73093 5.39886 5.39898Z" fill="white"/>
</svg>
