<svg width="14" height="14" viewBox="0 0 14 14" fill="none" xmlns="http://www.w3.org/2000/svg">
<path fill-rule="evenodd" clip-rule="evenodd" d="M0.248959 0.248959C0.580905 -0.0829864 1.1191 -0.0829864 1.45104 0.248959L6.85 5.64792L12.249 0.248959C12.5809 -0.0829864 13.1191 -0.0829864 13.451 0.248959C13.783 0.580905 13.783 1.1191 13.451 1.45104L8.05208 6.85L13.451 12.249C13.783 12.5809 13.783 13.1191 13.451 13.451C13.1191 13.783 12.5809 13.783 12.249 13.451L6.85 8.05208L1.45104 13.451C1.1191 13.783 0.580905 13.783 0.248959 13.451C-0.0829864 13.1191 -0.0829864 12.5809 0.248959 12.249L5.64792 6.85L0.248959 1.45104C-0.0829864 1.1191 -0.0829864 0.580905 0.248959 0.248959Z" fill="#B5B9BF"/>
</svg>
