<svg width="48" height="48" viewBox="0 0 48 48" fill="none" xmlns="http://www.w3.org/2000/svg">
<path d="M40.7803 26.4576V23.0492C41.1987 22.5316 41.4669 22.0074 41.6318 21.4799C41.7959 20.9525 41.8557 20.4217 41.8557 19.891C41.8557 18.1659 40.8976 16.7016 39.5638 15.6081C37.9863 14.3161 37.0971 13.0807 37.0971 13.0807V9.2302H34.6362V13.0807C34.6362 13.0807 34.0693 13.9265 33.4853 14.4884C33.7568 9.58211 30.9595 8.13344 28.6938 6.96039C27.3182 6.24836 26.0147 5.57324 25.2305 4.19348V1H22.7695V4.19348C21.9853 5.57324 20.6818 6.24836 19.3062 6.96039C17.0405 8.13344 14.2432 9.58211 14.5147 14.4884C14.1177 14.011 13.363 13.0807 13.363 13.0807V9.23102H10.9021V13.0816C10.9021 13.0816 10.0752 14.399 8.43621 15.6081C7.04906 16.6327 6.14426 18.1659 6.14426 19.891C6.14426 20.9525 6.43137 22.0689 7.21969 23.0492V26.4576H3V43H45V26.4576H40.7803ZM14.8945 30.8725V40.5391H5.46094V28.9185H15.1136C14.97 29.5526 14.8945 30.2072 14.8945 30.8725ZM9.68062 26.4576V23.7514H14.5853V26.4576H9.68062ZM15.2661 21.2904H8.99977C8.74219 20.8688 8.6052 20.3889 8.6052 19.891C8.6052 18.9911 9.05227 18.1552 9.80121 17.6564C10.6437 17.0945 11.5001 16.2734 12.1325 15.4826C12.7658 16.2734 13.6222 17.0945 14.4647 17.6556C15.2136 18.1552 15.6607 18.9911 15.6607 19.891C15.6607 20.3889 15.5237 20.8688 15.2661 21.2904ZM25.817 40.5391H22.1822V36.3169C22.1822 35.3153 22.9976 34.4999 24 34.4999C25.0024 34.4999 25.817 35.3153 25.817 36.3169V40.5391ZM30.6445 40.5391H28.2787V36.3169C28.2787 33.9585 26.3592 32.039 24 32.039C21.6408 32.039 19.7213 33.9585 19.7213 36.3169V40.5391H17.3555V30.8725C17.3555 28.5453 18.6196 26.3969 20.6539 25.2665L24 23.4077L27.3461 25.2665C29.3804 26.3969 30.6445 28.5453 30.6445 30.8725V40.5391ZM30.9538 16.7418C30.2655 17.631 29.8784 18.7327 29.8784 19.891C29.8784 21.6989 30.9538 23.0492 30.9538 23.0492V25.0819C30.282 24.301 29.4698 23.6308 28.5412 23.1148L24 20.5923L19.4587 23.1148C18.5302 23.6308 17.7189 24.301 17.0462 25.0819V23.0492C17.0462 23.0492 18.1216 21.877 18.1216 19.891C18.1216 18.7327 17.7345 17.631 17.0462 16.7418V16.2307H30.9538V16.7418ZM16.9527 13.7698C16.9584 10.9463 18.3866 10.2072 20.4374 9.1457C21.6318 8.52719 22.941 7.84961 24 6.6741C25.059 7.84961 26.3682 8.52719 27.5626 9.1457C29.6134 10.2072 31.0424 10.9463 31.0473 13.7698H16.9527ZM32.3393 19.891C32.3393 18.9911 32.7864 18.1552 33.5353 17.6556V17.6564C34.3778 17.0945 35.2342 16.2734 35.8666 15.4826C36.4999 16.2734 37.3563 17.0945 38.1988 17.6556C38.9477 18.1552 39.3948 18.9911 39.3948 19.891C39.3948 20.3889 39.2578 20.8688 38.9994 21.2904H32.7339C32.4763 20.8688 32.3393 20.3889 32.3393 19.891ZM38.3194 23.7514V26.4576H33.4147V23.7514H38.3194ZM42.5391 40.5391H33.1055V30.8725C33.1055 30.2072 33.03 29.5526 32.8864 28.9185H42.5391V40.5391Z" fill="#7BB3FE"/>
</svg>
