<svg width="48" height="48" viewBox="0 0 48 48" fill="none" xmlns="http://www.w3.org/2000/svg">
<path d="M40.6842 20L41.5786 20.4472C41.591 20.4224 41.6024 20.3971 41.6127 20.3714L40.6842 20ZM40.6842 24.7368L41.4651 24.1121C41.442 24.0833 41.4174 24.0558 41.3913 24.0297L40.6842 24.7368ZM20.9474 32.6316L21.5474 31.8316L20.9474 32.6316ZM7.39927 17.6739L7.08304 16.7252L7.39927 17.6739ZM7.63774 17.5573L7.08304 16.7252L7.63774 17.5573ZM5.63224 18.2629L5.31601 17.3143L5.63224 18.2629ZM3.66293 22.906L4.61161 23.2222L3.66293 22.906ZM3.98999 27.4837L3.28288 26.7766L3.98999 27.4837ZM2.32233 30.1184L3.21676 29.6711L2.32233 30.1184ZM2.50965 28.964L1.80255 28.2569L2.50965 28.964ZM5.26285 32.4217L4.36842 31.9745L5.26285 32.4217ZM3.47399 32.4217L4.36842 31.9745L3.47399 32.4217ZM6.13622 30.911L5.53622 30.111L6.13622 30.911ZM5.8418 31.2638L6.73622 31.711L5.8418 31.2638ZM9.70526 29.1342L10.3053 28.3342L9.70526 29.1342ZM8.50526 29.1342L7.90526 28.3342L8.50526 29.1342ZM12.8159 30.7762L12.3687 29.8818L12.8159 30.7762ZM11.7687 30.6818L11.1687 31.4818L11.7687 30.6818ZM13.631 30.3687L13.1837 29.4743L13.631 30.3687ZM18.0561 30.4632L17.4561 31.2632L18.0561 30.4632ZM24.6271 34.7913L24.2557 33.8628L24.6271 34.7913ZM23.6557 34.6628L23.0557 35.4628L23.6557 34.6628ZM28.3173 33.4589L28.1758 34.4488L28.3173 33.4589ZM27.8044 33.5203L28.1758 34.4488L27.8044 33.5203ZM33.8185 33.372L34.7801 33.6467L33.8185 33.372ZM32.7156 34.0872L32.5742 35.0771L32.7156 34.0872ZM41.6441 29.7213L41.2727 28.7928L41.6441 29.7213ZM43.5602 30.0935L44.5408 30.2897L43.5602 30.0935ZM43.6036 28.3861L44.3845 27.7614L43.6036 28.3861ZM43.7672 29.0586L44.7478 29.2547L43.7672 29.0586ZM39.4276 22.5132L40.322 22.9604L39.4276 22.5132ZM39.6149 23.6675L40.322 22.9604L39.6149 23.6675ZM43.3369 17.3412L44.1052 16.701L43.3369 17.3412ZM41.6402 17.61L42.5687 17.9813L41.6402 17.61ZM45.3734 19.7849L44.6052 20.4251L45.3734 19.7849ZM46.7729 18.8131L47.6412 18.317L46.7729 18.8131ZM43.9396 13.2944L42.9694 13.0519L43.9396 13.2944ZM44.0415 14.0331L44.9097 13.5369L44.0415 14.0331ZM44.2312 10.126L44.9383 9.41885L44.2312 10.126ZM44.4943 11.0756L43.5241 10.8331L44.4943 11.0756ZM42.9933 8.65047L42.0127 8.84659L42.9933 8.65047ZM43.2667 9.16146L43.9738 8.45436L43.2667 9.16146ZM40.924 7.00875L41.756 7.56345L40.924 7.00875ZM42.7366 7.36733L43.7172 7.17121L42.7366 7.36733ZM40.4467 7.48719L39.9995 6.59276L40.4467 7.48719ZM40.8315 7.14746L41.6636 7.70216L40.8315 7.14746ZM37.4304 9.42695L38.411 9.62307L37.4304 9.42695ZM37.9638 8.72864L37.5166 7.83422L37.9638 8.72864ZM36.0831 13.0255L35.887 12.0449L36.0831 13.0255ZM36.8676 12.241L37.8482 12.4371L36.8676 12.241ZM32.636 14.2981L31.6658 14.0556L32.636 14.2981ZM32.3023 15.6327L31.3322 15.3902L32.3023 15.6327ZM26.7581 15.105L25.9773 14.4803L26.7581 15.105ZM20.5734 16.949L20.2986 15.9874L20.5734 16.949ZM36.3203 29.556L35.7203 30.356L36.3203 29.556ZM34.7587 30.0813L35.7203 30.356L34.7587 30.0813ZM15.0053 17.9014L14.2245 18.5261L15.0053 17.9014ZM16.0609 18.2382L15.7862 17.2767L16.0609 18.2382ZM38.8376 30.8439L39.209 31.7724L38.8376 30.8439ZM37.8662 30.7154L38.4662 29.9154L37.8662 30.7154ZM11.5003 14.9822L10.9456 14.1502L11.5003 14.9822ZM12.055 15.8143L14.2245 18.5261L15.7862 17.2767L13.6168 14.5649L12.055 15.8143ZM16.3356 19.1998L20.8481 17.9105L20.2986 15.9874L15.7862 17.2767L16.3356 19.1998ZM20.8481 17.9105L22.935 18.9539L23.8294 17.1651L21.7425 16.1216L20.8481 17.9105ZM25.3911 18.4145L27.539 15.7296L25.9773 14.4803L23.8294 17.1651L25.3911 18.4145ZM27.539 15.7296L30.4378 17.179L31.3322 15.3902L28.4334 13.9408L27.539 15.7296ZM33.2725 15.8752L33.6061 14.5407L31.6658 14.0556L31.3322 15.3902L33.2725 15.8752ZM33.6061 14.5407L36.2792 14.0061L35.887 12.0449L33.2139 12.5795L33.6061 14.5407ZM37.8482 12.4371L38.411 9.62307L36.4498 9.23084L35.887 12.0449L37.8482 12.4371ZM38.411 9.62307L40.8939 8.38161L39.9995 6.59276L37.5166 7.83422L38.411 9.62307ZM41.6636 7.70216L41.756 7.56345L40.0919 6.45405L39.9995 6.59276L41.6636 7.70216ZM41.756 7.56345L42.0127 8.84659L43.9738 8.45436L43.7172 7.17121L41.756 7.56345ZM42.5596 9.86857L43.5241 10.8331L44.9383 9.41885L43.9738 8.45436L42.5596 9.86857ZM43.5241 10.8331L42.9694 13.0519L44.9097 13.5369L45.4644 11.3181L43.5241 10.8331ZM43.1732 14.5292L45.9047 19.3093L47.6412 18.317L44.9097 13.5369L43.1732 14.5292ZM46.1416 19.1447L44.1052 16.701L42.5687 17.9813L44.6052 20.4251L46.1416 19.1447ZM40.7118 17.2386L39.7557 19.6286L41.6127 20.3714L42.5687 17.9813L40.7118 17.2386ZM39.7898 19.5528L38.5332 22.066L40.322 22.9604L41.5786 20.4472L39.7898 19.5528ZM38.9078 24.3747L39.9771 25.4439L41.3913 24.0297L40.322 22.9604L38.9078 24.3747ZM39.9033 25.3615L42.8227 29.0108L44.3845 27.7614L41.4651 24.1121L39.9033 25.3615ZM42.7866 28.8625L42.5797 29.8974L44.5408 30.2897L44.7478 29.2547L42.7866 28.8625ZM41.2727 28.7928L38.4662 29.9154L39.209 31.7724L42.0155 30.6498L41.2727 28.7928ZM38.4662 29.9154L36.9203 28.756L35.7203 30.356L37.2662 31.5154L38.4662 29.9154ZM33.7972 29.8065L32.857 33.0972L34.7801 33.6467L35.7203 30.356L33.7972 29.8065ZM32.857 33.0972L28.4587 32.4689L28.1758 34.4488L32.5742 35.0771L32.857 33.0972ZM27.4331 32.5919L24.2557 33.8628L24.9985 35.7198L28.1758 34.4488L27.4331 32.5919ZM24.2557 33.8628L21.5474 31.8316L20.3474 33.4316L23.0557 35.4628L24.2557 33.8628ZM21.5474 31.8316L18.6561 29.6632L17.4561 31.2632L20.3474 33.4316L21.5474 31.8316ZM17.4561 29.2632H14.0782V31.2632H17.4561V29.2632ZM13.1837 29.4743L12.3687 29.8818L13.2632 31.6707L14.0782 31.2632L13.1837 29.4743ZM12.3687 29.8818L10.3053 28.3342L9.10526 29.9342L11.1687 31.4818L12.3687 29.8818ZM7.90526 28.3342L5.53622 30.111L6.73622 31.711L9.10526 29.9342L7.90526 28.3342ZM4.94737 30.8166L4.36842 31.9745L6.15728 32.8689L6.73622 31.711L4.94737 30.8166ZM4.36842 31.9745L3.21676 29.6711L1.42791 30.5656L2.57957 32.8689L4.36842 31.9745ZM3.21676 29.6711L4.6971 28.1908L3.28288 26.7766L1.80255 28.2569L3.21676 29.6711ZM5.24404 26.3844L4.61161 23.2222L2.65045 23.6144L3.28288 26.7766L5.24404 26.3844ZM4.61161 23.2222L5.94846 19.2116L4.0511 18.5792L2.71424 22.5897L4.61161 23.2222ZM5.94846 19.2116L7.7155 18.6226L7.08304 16.7252L5.31601 17.3143L5.94846 19.2116ZM8.19244 18.3893L12.055 15.8143L10.9456 14.1502L7.08304 16.7252L8.19244 18.3893ZM7.7155 18.6226C7.88414 18.5664 8.04453 18.488 8.19244 18.3893L7.08304 16.7252H7.08304L7.7155 18.6226ZM5.94846 19.2116H5.94846L5.31601 17.3143C4.7188 17.5133 4.25017 17.982 4.0511 18.5792L5.94846 19.2116ZM4.61161 23.2222L2.71424 22.5897C2.60418 22.9199 2.58219 23.2731 2.65045 23.6144L4.61161 23.2222ZM4.6971 28.1908C5.16994 27.718 5.37519 27.0401 5.24404 26.3844L3.28288 26.7766H3.28288L4.6971 28.1908ZM3.21676 29.6711H3.21676L1.80255 28.2569C1.19383 28.8656 1.04292 29.7956 1.42791 30.5656L3.21676 29.6711ZM4.36842 31.9745H4.36842L2.57957 32.8689C3.31662 34.343 5.42023 34.343 6.15728 32.8689L4.36842 31.9745ZM5.53622 30.111C5.28783 30.2973 5.08622 30.5389 4.94737 30.8166L6.73622 31.711H6.73622L5.53622 30.111ZM10.3053 28.3342C9.59415 27.8009 8.61637 27.8009 7.90526 28.3342L9.10526 29.9342H9.10526L10.3053 28.3342ZM12.3687 29.8818V29.8818L11.1687 31.4818C11.7748 31.9363 12.5856 32.0095 13.2632 31.6707L12.3687 29.8818ZM14.0782 29.2632C13.7677 29.2632 13.4615 29.3354 13.1837 29.4743L14.0782 31.2632V29.2632ZM18.6561 29.6632C18.3099 29.4035 17.8889 29.2632 17.4561 29.2632V31.2632H17.4561L18.6561 29.6632ZM24.2557 33.8628L23.0557 35.4628C23.6141 35.8816 24.3504 35.979 24.9985 35.7198L24.2557 33.8628ZM28.4587 32.4689C28.1119 32.4194 27.7583 32.4618 27.4331 32.5919L28.1758 34.4488L28.4587 32.4689ZM32.857 33.0972L32.5742 35.0771C33.5636 35.2185 34.5055 34.6077 34.7801 33.6467L32.857 33.0972ZM43.395 29.878C43.1625 28.948 42.1628 28.4368 41.2727 28.7928L42.0155 30.6498C41.7803 30.7439 41.5162 30.6088 41.4547 30.3631L43.395 29.878ZM42.5797 29.8974C42.596 29.8157 42.6485 29.7202 42.7384 29.6502C42.8196 29.587 42.9064 29.5633 42.9796 29.5615C43.0527 29.5598 43.1406 29.5794 43.2247 29.6386C43.3178 29.7043 43.3748 29.7972 43.395 29.878L41.4547 30.3631C41.8641 32.0004 44.2098 31.9446 44.5408 30.2897L42.5797 29.8974ZM42.8227 29.0108C42.7894 28.9691 42.7762 28.9148 42.7866 28.8625L44.7478 29.2547C44.8532 28.7277 44.7202 28.1811 44.3845 27.7614L42.8227 29.0108ZM38.5332 22.066C38.1482 22.836 38.2991 23.7659 38.9078 24.3747L40.322 22.9604L38.5332 22.066ZM44.1052 16.701C43.1354 15.5373 41.2743 15.8321 40.7118 17.2386L42.5687 17.9813L44.1052 16.701ZM45.9009 19.1727C45.9476 19.0793 46.0748 19.0645 46.1416 19.1447L44.6052 20.4251C45.4617 21.4529 47.0914 21.2638 47.6897 20.0671L45.9009 19.1727ZM45.9047 19.3093C45.8807 19.2672 45.8792 19.216 45.9009 19.1727L47.6897 20.0671C47.9671 19.5123 47.9489 18.8556 47.6412 18.317L45.9047 19.3093ZM42.9694 13.0519C42.8443 13.5522 42.9174 14.0815 43.1732 14.5292L44.9097 13.5369V13.5369L42.9694 13.0519ZM43.5241 10.8331L45.4644 11.3181C45.6348 10.6366 45.4351 9.91561 44.9383 9.41885L43.5241 10.8331ZM42.0127 8.84659C42.0901 9.23377 42.2804 9.58937 42.5596 9.86857L43.9738 8.45436V8.45436L42.0127 8.84659ZM41.756 7.56345L43.7172 7.17121C43.3678 5.42401 41.0803 4.97149 40.0919 6.45405L41.756 7.56345ZM40.8939 8.38161C41.2052 8.22596 41.4705 7.99176 41.6636 7.70216L39.9995 6.59276V6.59276L40.8939 8.38161ZM38.411 9.62307L37.5166 7.83422C36.9645 8.11023 36.5709 8.62564 36.4498 9.23084L38.411 9.62307ZM36.2792 14.0061C37.071 13.8477 37.6898 13.2289 37.8482 12.4371L35.887 12.0449L36.2792 14.0061ZM33.6061 14.5407V14.5407L33.2139 12.5795C32.456 12.7311 31.8533 13.3058 31.6658 14.0556L33.6061 14.5407ZM30.4378 17.179C31.5822 17.7512 32.9622 17.1165 33.2725 15.8752L31.3322 15.3902V15.3902L30.4378 17.179ZM27.539 15.7296L28.4334 13.9408C27.5899 13.519 26.5664 13.7438 25.9773 14.4803L27.539 15.7296ZM22.935 18.9539C23.7785 19.3757 24.802 19.1509 25.3911 18.4145L23.8294 17.1651L22.935 18.9539ZM20.8481 17.9105H20.8481L21.7425 16.1216C21.2949 15.8979 20.7798 15.85 20.2986 15.9874L20.8481 17.9105ZM36.9203 28.756C35.7988 27.9149 34.1823 28.4586 33.7972 29.8065L35.7203 30.356L35.7203 30.356L36.9203 28.756ZM14.2245 18.5261C14.7281 19.1556 15.5605 19.4212 16.3356 19.1998L15.7862 17.2767V17.2767L14.2245 18.5261ZM38.4662 29.9154L37.2662 31.5154C37.8246 31.9342 38.5609 32.0316 39.209 31.7724L38.4662 29.9154ZM13.6168 14.5649C12.9687 13.7548 11.8088 13.5747 10.9456 14.1502L12.055 15.8143V15.8143L13.6168 14.5649Z" fill="#7BB3FE"/>
</svg>
