<svg width="32" height="32" viewBox="0 0 32 32" fill="none" xmlns="http://www.w3.org/2000/svg">
<circle cx="16" cy="16" r="16" fill="#82D1F8"/>
<path d="M15.6464 15.3536C15.8417 15.5488 16.1583 15.5488 16.3536 15.3536L19.5355 12.1716C19.7308 11.9763 19.7308 11.6597 19.5355 11.4645C19.3403 11.2692 19.0237 11.2692 18.8284 11.4645L16 14.2929L13.1716 11.4645C12.9763 11.2692 12.6597 11.2692 12.4645 11.4645C12.2692 11.6597 12.2692 11.9763 12.4645 12.1716L15.6464 15.3536ZM15.5 4L15.5 15L16.5 15L16.5 4L15.5 4Z" fill="white"/>
<line x1="8" y1="17.5" x2="24" y2="17.5" stroke="white"/>
<line x1="8.5" y1="13" x2="8.5" y2="18" stroke="white"/>
<line x1="23.5" y1="13" x2="23.5" y2="17" stroke="white"/>
<path d="M10.5227 25H8.6392V19.1818H10.5824C11.1525 19.1818 11.642 19.2983 12.0511 19.5312C12.4602 19.7623 12.7737 20.0947 12.9915 20.5284C13.2112 20.9602 13.321 21.4782 13.321 22.0824C13.321 22.6884 13.2102 23.2093 12.9886 23.6449C12.7689 24.0805 12.4508 24.4157 12.0341 24.6506C11.6174 24.8835 11.1136 25 10.5227 25ZM9.51705 24.233H10.4744C10.9176 24.233 11.286 24.1496 11.5795 23.983C11.8731 23.8144 12.0928 23.571 12.2386 23.2528C12.3845 22.9328 12.4574 22.5426 12.4574 22.0824C12.4574 21.6259 12.3845 21.2386 12.2386 20.9205C12.0947 20.6023 11.8797 20.3608 11.5938 20.196C11.3078 20.0312 10.9527 19.9489 10.5284 19.9489H9.51705V24.233ZM19.4666 22.0909C19.4666 22.7121 19.353 23.2462 19.1257 23.6932C18.8984 24.1383 18.5869 24.4811 18.1911 24.7216C17.7971 24.9602 17.3492 25.0795 16.8473 25.0795C16.3435 25.0795 15.8937 24.9602 15.4979 24.7216C15.1039 24.4811 14.7933 24.1373 14.5661 23.6903C14.3388 23.2434 14.2251 22.7102 14.2251 22.0909C14.2251 21.4697 14.3388 20.9366 14.5661 20.4915C14.7933 20.0445 15.1039 19.7017 15.4979 19.4631C15.8937 19.2225 16.3435 19.1023 16.8473 19.1023C17.3492 19.1023 17.7971 19.2225 18.1911 19.4631C18.5869 19.7017 18.8984 20.0445 19.1257 20.4915C19.353 20.9366 19.4666 21.4697 19.4666 22.0909ZM18.5973 22.0909C18.5973 21.6174 18.5206 21.2187 18.3672 20.8949C18.2157 20.5691 18.0073 20.3229 17.7422 20.1562C17.4789 19.9877 17.1806 19.9034 16.8473 19.9034C16.5121 19.9034 16.2128 19.9877 15.9496 20.1562C15.6863 20.3229 15.478 20.5691 15.3246 20.8949C15.1731 21.2187 15.0973 21.6174 15.0973 22.0909C15.0973 22.5644 15.1731 22.964 15.3246 23.2898C15.478 23.6136 15.6863 23.8598 15.9496 24.0284C16.2128 24.1951 16.5121 24.2784 16.8473 24.2784C17.1806 24.2784 17.4789 24.1951 17.7422 24.0284C18.0073 23.8598 18.2157 23.6136 18.3672 23.2898C18.5206 22.964 18.5973 22.5644 18.5973 22.0909ZM25.3935 21.0739H24.5071C24.473 20.8845 24.4096 20.7178 24.3168 20.5739C24.224 20.4299 24.1103 20.3078 23.9759 20.2074C23.8414 20.107 23.6908 20.0312 23.5241 19.9801C23.3594 19.929 23.1842 19.9034 22.9986 19.9034C22.6634 19.9034 22.3632 19.9877 22.098 20.1562C21.8348 20.3248 21.6264 20.572 21.473 20.8977C21.3215 21.2235 21.2457 21.6212 21.2457 22.0909C21.2457 22.5644 21.3215 22.964 21.473 23.2898C21.6264 23.6155 21.8357 23.8617 22.1009 24.0284C22.366 24.1951 22.6643 24.2784 22.9957 24.2784C23.1795 24.2784 23.3537 24.2538 23.5185 24.2045C23.6851 24.1534 23.8357 24.0786 23.9702 23.9801C24.1046 23.8816 24.2183 23.7614 24.3111 23.6193C24.4058 23.4754 24.4711 23.3106 24.5071 23.125L25.3935 23.1278C25.3461 23.4138 25.2543 23.6771 25.1179 23.9176C24.9834 24.1562 24.8101 24.3627 24.598 24.5369C24.3878 24.7093 24.1473 24.8428 23.8764 24.9375C23.6056 25.0322 23.3101 25.0795 22.9901 25.0795C22.4863 25.0795 22.0374 24.9602 21.6435 24.7216C21.2495 24.4811 20.9389 24.1373 20.7116 23.6903C20.4863 23.2434 20.3736 22.7102 20.3736 22.0909C20.3736 21.4697 20.4872 20.9366 20.7145 20.4915C20.9418 20.0445 21.2524 19.7017 21.6463 19.4631C22.0402 19.2225 22.4882 19.1023 22.9901 19.1023C23.2988 19.1023 23.5866 19.1468 23.8537 19.2358C24.1226 19.3229 24.3641 19.4517 24.5781 19.6222C24.7921 19.7907 24.9692 19.9972 25.1094 20.2415C25.2495 20.4839 25.3442 20.7614 25.3935 21.0739Z" fill="white"/>
</svg>
