<svg width="32" height="32" viewBox="0 0 32 32" fill="none" xmlns="http://www.w3.org/2000/svg">
<circle cx="16" cy="16" r="15.5" fill="#82D1F8" stroke="white"/>
<path d="M15.6464 15.3536C15.8417 15.5488 16.1583 15.5488 16.3536 15.3536L19.5355 12.1716C19.7308 11.9763 19.7308 11.6597 19.5355 11.4645C19.3403 11.2692 19.0237 11.2692 18.8284 11.4645L16 14.2929L13.1716 11.4645C12.9763 11.2692 12.6597 11.2692 12.4645 11.4645C12.2692 11.6597 12.2692 11.9763 12.4645 12.1716L15.6464 15.3536ZM15.5 4L15.5 15L16.5 15L16.5 4L15.5 4Z" fill="white"/>
<line x1="8" y1="17.5" x2="24" y2="17.5" stroke="white"/>
<line x1="8.5" y1="13" x2="8.5" y2="18" stroke="white"/>
<line x1="23.5" y1="13" x2="23.5" y2="17" stroke="white"/>
<path d="M8.6392 25V19.1818H10.7131C11.1657 19.1818 11.5407 19.2642 11.8381 19.429C12.1354 19.5937 12.358 19.8191 12.5057 20.1051C12.6534 20.3892 12.7273 20.7093 12.7273 21.0653C12.7273 21.4233 12.6525 21.7453 12.5028 22.0312C12.3551 22.3153 12.1316 22.5407 11.8324 22.7074C11.535 22.8722 11.161 22.9545 10.7102 22.9545H9.28409V22.2102H10.6307C10.9167 22.2102 11.1487 22.161 11.3267 22.0625C11.5047 21.9621 11.6354 21.8258 11.7188 21.6534C11.8021 21.4811 11.8438 21.285 11.8438 21.0653C11.8438 20.8456 11.8021 20.6506 11.7188 20.4801C11.6354 20.3097 11.5038 20.1761 11.3239 20.0795C11.1458 19.983 10.911 19.9347 10.6193 19.9347H9.51705V25H8.6392ZM15.6399 25H13.7564V19.1818H15.6996C16.2696 19.1818 16.7592 19.2983 17.1683 19.5312C17.5774 19.7623 17.8909 20.0947 18.1087 20.5284C18.3284 20.9602 18.4382 21.4782 18.4382 22.0824C18.4382 22.6884 18.3274 23.2093 18.1058 23.6449C17.8861 24.0805 17.5679 24.4157 17.1513 24.6506C16.7346 24.8835 16.2308 25 15.6399 25ZM14.6342 24.233H15.5916C16.0348 24.233 16.4032 24.1496 16.6967 23.983C16.9903 23.8144 17.21 23.571 17.3558 23.2528C17.5017 22.9328 17.5746 22.5426 17.5746 22.0824C17.5746 21.6259 17.5017 21.2386 17.3558 20.9205C17.2119 20.6023 16.9969 20.3608 16.7109 20.196C16.425 20.0312 16.0698 19.9489 15.6456 19.9489H14.6342V24.233ZM19.5298 25V19.1818H23.1378V19.9375H20.4077V21.7102H22.8793V22.4631H20.4077V25H19.5298Z" fill="white"/>
</svg>
