<svg width="32" height="32" viewBox="0 0 32 32" fill="none" xmlns="http://www.w3.org/2000/svg">
<circle cx="16" cy="16" r="16" fill="#82D1F8"/>
<path d="M15.6464 15.3536C15.8417 15.5488 16.1583 15.5488 16.3536 15.3536L19.5355 12.1716C19.7308 11.9763 19.7308 11.6597 19.5355 11.4645C19.3403 11.2692 19.0237 11.2692 18.8284 11.4645L16 14.2929L13.1716 11.4645C12.9763 11.2692 12.6597 11.2692 12.4645 11.4645C12.2692 11.6597 12.2692 11.9763 12.4645 12.1716L15.6464 15.3536ZM15.5 4L15.5 15L16.5 15L16.5 4L15.5 4Z" fill="white"/>
<line x1="8" y1="17.5" x2="24" y2="17.5" stroke="white"/>
<line x1="8.5" y1="13" x2="8.5" y2="18" stroke="white"/>
<line x1="23.5" y1="13" x2="23.5" y2="17" stroke="white"/>
<path d="M10.4886 25V24.4148L13.5483 19.9375H10.4631V19.1818H14.6222V19.767L11.5625 24.2443H14.6477V25H10.4886ZM16.6264 19.1818V25H15.7486V19.1818H16.6264ZM17.9048 25V19.1818H19.9787C20.4313 19.1818 20.8063 19.2642 21.1037 19.429C21.401 19.5937 21.6236 19.8191 21.7713 20.1051C21.919 20.3892 21.9929 20.7093 21.9929 21.0653C21.9929 21.4233 21.9181 21.7453 21.7685 22.0312C21.6207 22.3153 21.3973 22.5407 21.098 22.7074C20.8007 22.8722 20.4266 22.9545 19.9759 22.9545H18.5497V22.2102H19.8963C20.1823 22.2102 20.4143 22.161 20.5923 22.0625C20.7704 21.9621 20.901 21.8258 20.9844 21.6534C21.0677 21.4811 21.1094 21.285 21.1094 21.0653C21.1094 20.8456 21.0677 20.6506 20.9844 20.4801C20.901 20.3097 20.7694 20.1761 20.5895 20.0795C20.4115 19.983 20.1766 19.9347 19.8849 19.9347H18.7827V25H17.9048Z" fill="white"/>
</svg>
