<svg width="24" height="24" viewBox="0 0 24 24" fill="none" xmlns="http://www.w3.org/2000/svg">
<path fill-rule="evenodd" clip-rule="evenodd" d="M21.8504 14C21.8504 13.5305 21.4698 13.15 21.0004 13.15C20.5309 13.15 20.1504 13.5305 20.1504 14L20.1504 15.2C20.1504 16.0541 20.1497 16.6435 20.1123 17.1012C20.0758 17.5488 20.0083 17.795 19.9161 17.9761C19.7099 18.3806 19.381 18.7095 18.9765 18.9156C18.7954 19.0079 18.5493 19.0753 18.1016 19.1119C17.644 19.1493 17.0545 19.15 16.2004 19.15L7.80039 19.15C6.94629 19.15 6.35683 19.1493 5.89921 19.1119C5.45152 19.0753 5.20538 19.0079 5.02431 18.9156C4.61976 18.7095 4.29085 18.3806 4.08473 17.9761C3.99247 17.795 3.92502 17.5488 3.88844 17.1012C3.85105 16.6435 3.85039 16.0541 3.85039 15.2L3.85039 14C3.85039 13.5305 3.46983 13.15 3.00039 13.15C2.53095 13.15 2.15039 13.5305 2.15039 14L2.15039 15.2L2.15039 15.2358C2.15038 16.0455 2.15037 16.7046 2.19409 17.2396C2.23925 17.7924 2.3353 18.2872 2.57002 18.7478C2.93913 19.4723 3.5281 20.0612 4.25253 20.4304C4.71319 20.6651 5.20796 20.7611 5.76078 20.8063C6.2958 20.85 6.9549 20.85 7.76453 20.85L7.80039 20.85L16.2004 20.85L16.2362 20.85C17.0459 20.85 17.705 20.85 18.24 20.8063C18.7928 20.7611 19.2876 20.6651 19.7483 20.4303C20.4727 20.0612 21.0617 19.4723 21.4308 18.7478C21.6655 18.2872 21.7615 17.7924 21.8067 17.2396C21.8504 16.7046 21.8504 16.0454 21.8504 15.2358L21.8504 15.2L21.8504 14ZM12.6014 3.39891C12.2695 3.06697 11.7313 3.06696 11.3994 3.39891L7.39937 7.39891C7.06742 7.73086 7.06742 8.26905 7.39937 8.60099C7.73131 8.93294 8.2695 8.93294 8.60145 8.60099L11.1504 6.05203L11.1504 14C11.1504 14.4694 11.531 14.85 12.0004 14.85C12.4699 14.85 12.8504 14.4694 12.8504 14L12.8504 6.05203L15.3994 8.60099C15.7313 8.93294 16.2695 8.93294 16.6014 8.60099C16.9334 8.26905 16.9334 7.73086 16.6014 7.39891L12.6014 3.39891Z" fill="#455163"/>
</svg>
