<svg width="12" height="13" viewBox="0 0 12 13" fill="none" xmlns="http://www.w3.org/2000/svg">
<path fill-rule="evenodd" clip-rule="evenodd" d="M4.73483 3.23483C4.88128 3.08839 5.11872 3.08839 5.26517 3.23483L8.26517 6.23483C8.41161 6.38128 8.41161 6.61872 8.26517 6.76517L5.26517 9.76516C5.11872 9.91161 4.88128 9.91161 4.73483 9.76516C4.58839 9.61872 4.58839 9.38128 4.73483 9.23484L7.46967 6.5L4.73483 3.76517C4.58839 3.61872 4.58839 3.38128 4.73483 3.23483Z" fill="#455163"/>
<path fill-rule="evenodd" clip-rule="evenodd" d="M4.69967 3.19943C4.86565 3.03346 5.13474 3.03346 5.30072 3.19943L8.30072 6.19943C8.46669 6.3654 8.46669 6.6345 8.30072 6.80047L5.30072 9.80047C5.13474 9.96644 4.86565 9.96644 4.69967 9.80047C4.5337 9.6345 4.5337 9.3654 4.69967 9.19943L7.39915 6.49995L4.69967 3.80047C4.5337 3.6345 4.5337 3.3654 4.69967 3.19943Z" fill="#455163"/>
</svg>
