<svg width="24" height="25" viewBox="0 0 24 25" fill="none" xmlns="http://www.w3.org/2000/svg">
<path d="M14.793 12.2928C14.9816 12.1106 15.2342 12.0098 15.4964 12.0121C15.7586 12.0144 16.0094 12.1196 16.1948 12.305C16.3802 12.4904 16.4854 12.7412 16.4877 13.0034C16.49 13.2656 16.3892 13.5182 16.207 13.7068L8.707 21.2068C8.51951 21.3943 8.26519 21.4997 8 21.4998H4C3.73478 21.4998 3.48043 21.3944 3.29289 21.2069C3.10536 21.0194 3 20.765 3 20.4998V16.4998C3.00006 16.2346 3.10545 15.9803 3.293 15.7928L16.293 2.79279C16.4805 2.60532 16.7348 2.5 17 2.5C17.2652 2.5 17.5195 2.60532 17.707 2.79279L21.707 6.79279C21.8945 6.98031 21.9998 7.23462 21.9998 7.49979C21.9998 7.76495 21.8945 8.01926 21.707 8.20679L18.707 11.2068C18.5195 11.3943 18.2652 11.4996 18 11.4996C17.7348 11.4996 17.4805 11.3943 17.293 11.2068L15.293 9.20679C15.1975 9.11454 15.1213 9.00419 15.0689 8.88219C15.0165 8.76019 14.9889 8.62897 14.9877 8.49619C14.9866 8.36341 15.0119 8.23173 15.0622 8.10883C15.1125 7.98594 15.1867 7.87428 15.2806 7.78039C15.3745 7.6865 15.4861 7.61225 15.609 7.56196C15.7319 7.51168 15.8636 7.48638 15.9964 7.48754C16.1292 7.48869 16.2604 7.51628 16.3824 7.56869C16.5044 7.62109 16.6148 7.69728 16.707 7.79279L18 9.08579L19.586 7.49979L17 4.91379L5 16.9138V19.4998H7.586L14.793 12.2928Z" fill="#1D2E89"/>
</svg>
