<svg width="19" height="18" viewBox="0 0 19 18" fill="none" xmlns="http://www.w3.org/2000/svg">
<path d="M2 16H5C5.26522 16 5.51957 16.1054 5.70711 16.2929C5.89464 16.4804 6 16.7348 6 17C6 17.2652 5.89464 17.5196 5.70711 17.7071C5.51957 17.8946 5.26522 18 5 18H1C0.734784 18 0.48043 17.8946 0.292893 17.7071C0.105357 17.5196 0 17.2652 0 17V1C0 0.734784 0.105357 0.48043 0.292893 0.292893C0.48043 0.105357 0.734784 0 1 0H5C5.26522 0 5.51957 0.105357 5.70711 0.292893C5.89464 0.48043 6 0.734784 6 1C6 1.26522 5.89464 1.51957 5.70711 1.70711C5.51957 1.89464 5.26522 2 5 2H2V16ZM14.586 8L10.293 3.707C10.1975 3.61475 10.1213 3.50441 10.0689 3.3824C10.0165 3.2604 9.9889 3.12918 9.98775 2.9964C9.9866 2.86362 10.0119 2.73194 10.0622 2.60905C10.1125 2.48615 10.1867 2.3745 10.2806 2.2806C10.3745 2.18671 10.4861 2.11246 10.609 2.06218C10.7319 2.0119 10.8636 1.9866 10.9964 1.98775C11.1292 1.9889 11.2604 2.01649 11.3824 2.0689C11.5044 2.12131 11.6148 2.19749 11.707 2.293L17.707 8.293C18.337 8.923 17.891 10 17 10H5C4.73478 10 4.48043 9.89464 4.29289 9.70711C4.10536 9.51957 4 9.26522 4 9C4 8.73478 4.10536 8.48043 4.29289 8.29289C4.48043 8.10536 4.73478 8 5 8H14.586ZM13.36 11.732C13.4604 11.6442 13.5773 11.5774 13.7038 11.5354C13.8304 11.4935 13.9641 11.4772 14.097 11.4877C14.2299 11.4982 14.3594 11.5352 14.4779 11.5964C14.5963 11.6577 14.7013 11.742 14.7867 11.8445C14.872 11.9469 14.936 12.0654 14.9749 12.1929C15.0138 12.3204 15.0268 12.4545 15.0132 12.5871C14.9995 12.7198 14.9595 12.8483 14.8954 12.9653C14.8313 13.0822 14.7445 13.1851 14.64 13.268L11.64 15.768C11.5396 15.8558 11.4227 15.9226 11.2962 15.9646C11.1696 16.0065 11.0359 16.0227 10.903 16.0123C10.7701 16.0018 10.6406 15.9648 10.5221 15.9036C10.4037 15.8423 10.2987 15.758 10.2133 15.6555C10.128 15.5531 10.064 15.4346 10.0251 15.3071C9.98616 15.1796 9.97316 15.0455 9.98683 14.9129C10.0005 14.7802 10.0405 14.6517 10.1046 14.5347C10.1687 14.4178 10.2555 14.3149 10.36 14.232L13.36 11.732Z" fill="#F1971E"/>
</svg>
