<svg width="20" height="20" viewBox="0 0 20 20" fill="none" xmlns="http://www.w3.org/2000/svg">
<path d="M9.13397 1.5C9.51887 0.833334 10.4811 0.833333 10.866 1.5L17.7942 13.5C18.1791 14.1667 17.698 15 16.9282 15H3.0718C2.302 15 1.82087 14.1667 2.20577 13.5L9.13397 1.5Z" fill="#CE0606"/>
<path d="M10.6323 6.18188L10.5216 10.2557H9.48178L9.36814 6.18188H10.6323ZM10.0017 12.0739C9.81416 12.0739 9.65318 12.0076 9.51871 11.8751C9.38424 11.7406 9.31795 11.5796 9.31985 11.3921C9.31795 11.2065 9.38424 11.0474 9.51871 10.9148C9.65318 10.7823 9.81416 10.716 10.0017 10.716C10.1816 10.716 10.3397 10.7823 10.4761 10.9148C10.6125 11.0474 10.6816 11.2065 10.6835 11.3921C10.6816 11.5171 10.6484 11.6317 10.5841 11.7359C10.5216 11.8381 10.4392 11.9205 10.3369 11.983C10.2346 12.0436 10.1229 12.0739 10.0017 12.0739Z" fill="white"/>
</svg>
