<svg width="82" height="82" fill="none" xmlns="http://www.w3.org/2000/svg"><path d="M80.656 18.256C70.436 7.289 55.983 1 41 1 26.02 1 11.565 7.289 1.347 18.256a1.289 1.289 0 00-.347.88V81h80.003V19.136c0-.327-.124-.642-.347-.88zm-4.038-.41H5.383C14.94 8.745 27.753 3.58 41.001 3.58c13.25 0 26.062 5.165 35.617 14.264zm-62.713 15.83v-5.16h54.193v5.16H13.904zm32.258 29.258H31.969V47.453H16.485V43.58h49.032v34.838H47.453V62.936h-1.29zm-9.033 2.581h2.581v2.58h-2.58v-2.58zm-15.484 0h2.581v2.58h-2.58v-2.58zm-5.16-2.58V50.031h2.58v5.161h7.742v-5.16h2.58v12.902H16.485zM65.516 41H16.485v-4.742h49.032V41zm-43.87 9.032h2.58v2.58h-2.58v-2.58zm-5.162 15.484h2.58v5.161h7.743v-5.16h2.58v12.902H16.485V65.516zM31.97 78.42V65.516h2.58v5.161h7.743v-5.16h2.58v12.902H31.97zm36.13 0V36.26h2.58V25.935H11.324v10.322h2.58V78.42H3.583L3.58 21.424h74.84v56.994H68.098v.001z" fill="url(#paint0_linear)" stroke="url(#paint1_linear)"/><defs><linearGradient id="paint0_linear" x1="1" y1="81" x2="86.496" y2="74.62" gradientUnits="userSpaceOnUse"><stop offset=".03" stop-color="#F7BB11"/><stop offset="1" stop-color="#F1971E"/></linearGradient><linearGradient id="paint1_linear" x1="1" y1="81" x2="86.496" y2="74.62" gradientUnits="userSpaceOnUse"><stop offset=".03" stop-color="#F7BB11"/><stop offset="1" stop-color="#F1971E"/></linearGradient></defs></svg>