<svg width="124" height="80" fill="none" xmlns="http://www.w3.org/2000/svg"><path d="M117.623 33.207l5.95-7.057c.324-.385.474-.887.414-1.386L121.224 1.6a1.817 1.817 0 00-3.142-1.013L105.568 14.22l-22.87 2.33a1.817 1.817 0 00.369 3.614l23.556-2.4a1.816 1.816 0 001.154-.578l10.308-11.23 2.201 18.454-5.277 6.26-10.68 7.206c-.537.362-.84.982-.797 1.629l.83 12.233a1.818 1.818 0 001.641 1.685l7.605.724 3.898 9.925-1.781 4.59-5.191-6.929a1.817 1.817 0 00-1.737-.705l-7.886 1.246a1.817 1.817 0 00-1.42 1.166l-2.556 6.936-14.747 2.99a1.817 1.817 0 00.722 3.56l15.74-3.19a1.816 1.816 0 001.344-1.153l2.537-6.887 5.752-.909 6.498 8.672a1.818 1.818 0 003.147-.432l3.221-8.302a1.81 1.81 0 00-.002-1.321l-4.565-11.624a1.819 1.819 0 00-1.519-1.144l-7.18-.684-.655-9.65 10.022-6.76c.14-.095.265-.208.373-.336z" fill="url(#paint0_linear)"/><path d="M74.22 74.983l-6.02 1.22-14.342-15.048a1.815 1.815 0 00-1.759-.508L41.694 63.27l-4.666-5.743a1.817 1.817 0 00-1.237-.663l-17.432-1.66a1.816 1.816 0 00-1.988 1.808v3.826l-6.896 7.051-2.26-9.915 2.927-7.69A1.817 1.817 0 009.01 47.91l-5.029-1.65 6.11-24.968 11.534-7.056 9.786 4.552a1.816 1.816 0 101.532-3.294l-10.67-4.963a1.817 1.817 0 00-1.713.097L7.557 18.585c-.409.25-.702.652-.817 1.117L.052 47.032a1.817 1.817 0 001.199 2.158l4.818 1.58-2.446 6.426c-.127.335-.153.7-.073 1.05l3.123 13.699a1.817 1.817 0 003.07.866l9.743-9.962c.332-.34.517-.796.517-1.27v-2.57l14.686 1.4 4.916 6.05a1.816 1.816 0 001.853.617l10.501-2.647 14.303 15.008a1.817 1.817 0 001.675.527l7.004-1.42a1.817 1.817 0 00-.721-3.561z" fill="url(#paint1_linear)"/><path d="M75.878 11.526c-8.916 0-13.25-1.04-17.838-2.141-4.284-1.029-8.705-2.09-16.87-2.227V5.084a1.817 1.817 0 10-3.632 0v42.041a1.817 1.817 0 103.633 0v-9.066c7.71.131 11.756 1.102 16.021 2.126 4.592 1.102 9.34 2.242 18.686 2.242a1.817 1.817 0 001.816-1.817V13.343a1.816 1.816 0 00-1.816-1.817zm-18.686 1.392c4.285 1.028 8.705 2.09 16.87 2.226v5.534c-7.711-.132-11.757-1.103-16.022-2.127-4.284-1.028-8.705-2.09-16.87-2.226V10.79c7.712.132 11.757 1.103 16.022 2.127zm.848 23.734c-4.284-1.028-8.705-2.09-16.87-2.227v-5.51c7.712.132 11.757 1.103 16.022 2.127.6.143 1.198.287 1.808.428a1.817 1.817 0 00.821-3.54c-.6-.138-1.19-.28-1.781-.422-4.284-1.028-8.705-2.089-16.869-2.226v-5.324c7.711.131 11.756 1.102 16.022 2.126 4.284 1.029 8.705 2.09 16.869 2.227v5.323c-2.31-.04-4.41-.158-6.375-.358a1.815 1.815 0 10-.368 3.615c2.085.212 4.305.337 6.743.378v5.51c-7.712-.132-11.757-1.103-16.022-2.127z" fill="url(#paint2_linear)"/><defs><linearGradient id="paint0_linear" x1="80.732" y1="76.965" x2="127.147" y2="75.017" gradientUnits="userSpaceOnUse"><stop offset=".03" stop-color="#F7BB11"/><stop offset="1" stop-color="#F1971E"/></linearGradient><linearGradient id="paint1_linear" x1="0" y1="80" x2="81.551" y2="73.324" gradientUnits="userSpaceOnUse"><stop offset=".03" stop-color="#F7BB11"/><stop offset="1" stop-color="#F1971E"/></linearGradient><linearGradient id="paint2_linear" x1="37.538" y1="48.942" x2="80.506" y2="46.123" gradientUnits="userSpaceOnUse"><stop offset=".03" stop-color="#F7BB11"/><stop offset="1" stop-color="#F1971E"/></linearGradient></defs></svg>