<svg width="20" height="20" viewBox="0 0 24 24" fill="none" xmlns="http://www.w3.org/2000/svg">
<path d="M13 15C13 14.4477 12.5523 14 12 14C11.4477 14 11 14.4477 11 15L11 21C11 21.2652 11.1054 21.5196 11.2929 21.7071C11.4804 21.8946 11.7348 22 12 22C17.523 22 22 17.523 22 12C22 6.477 17.523 2 12 2C6.477 2 2 6.477 2 12C1.99979 13.9857 2.59063 15.9265 3.69726 17.5752C4.80389 19.2239 6.37623 20.506 8.214 21.258C8.45946 21.3585 8.73479 21.3574 8.97944 21.2549C9.22408 21.1524 9.41798 20.957 9.5185 20.7115C9.61902 20.466 9.61791 20.1907 9.51542 19.9461C9.41293 19.7014 9.21746 19.5075 8.972 19.407C7.25459 18.7062 5.83408 17.4303 4.95353 15.7977C4.07297 14.1652 3.78709 12.2773 4.1448 10.4572C4.50251 8.63714 5.48158 6.99792 6.91449 5.82002C8.3474 4.64212 10.1451 3.99875 12 4C14.0336 4.00252 15.9898 4.77927 17.4713 6.17238C18.9527 7.56548 19.848 9.4704 19.9754 11.5C20.1027 13.5295 19.4525 15.5314 18.1568 17.0988C16.8611 18.6661 15.0173 19.6813 13 19.938L13 15Z" fill="#999999"/>
<path fill-rule="evenodd" clip-rule="evenodd" d="M15 9.99999C15 11.6568 13.6569 13 12 13C10.3431 13 9 11.6568 9 9.99999C9 8.34314 10.3431 7 12 7C13.6569 7 15 8.34314 15 9.99999ZM13 9.99999C13 10.5523 12.5523 11 12 11C11.4477 11 11 10.5523 11 9.99999C11 9.44771 11.4477 8.99999 12 8.99999C12.5523 8.99999 13 9.44771 13 9.99999Z" fill="#999999"/>
</svg>
