<svg  width="20" height="20"  id="icon-info" fill="none" viewBox="0 0 20 20" xmlns="http://www.w3.org/2000/svg">
   <path
        d="M8.25387 9.74019L8.11351 9.84019C8.08579 9.85988 8.06195 9.88525 8.04335 9.91486C8.02475 9.94446 8.01176 9.97772 8.00511 10.0127C7.99847 10.0477 7.9983 10.0838 8.00462 10.1189C8.01093 10.154 8.02362 10.1874 8.04194 10.2172L8.05867 10.2452C8.11258 10.3332 8.22319 10.3452 8.29755 10.3662C8.3606 10.3698 8.42301 10.3815 8.48346 10.4012C8.59096 10.4411 8.68249 10.5194 8.74279 10.6232C8.83575 10.7952 8.77533 11.0071 8.75302 11.1071C8.5541 11.9851 8.35054 12.8621 8.15534 13.742C7.99267 14.475 8.37842 15 9.08486 15C9.86845 15 10.5721 14.722 11.2153 14.252C11.2599 14.2188 11.2994 14.1783 11.3324 14.132C11.4589 13.953 11.4105 13.816 11.207 13.766C11.1475 13.751 11.0861 13.74 11.0276 13.723C10.64 13.6101 10.5396 13.4231 10.6344 13.0071C10.8361 12.1221 11.0424 11.2381 11.2395 10.3522C11.3715 9.76519 11.1196 9.28321 10.6158 9.15222C10.4785 9.1191 10.3382 9.10299 10.1975 9.10422C10.0236 9.11188 9.85029 9.13193 9.67882 9.16421C9.56821 9.18621 9.46782 9.21121 9.37487 9.23821C9.19609 9.29004 9.0204 9.35348 8.84876 9.4282C8.74465 9.4732 8.61266 9.5342 8.46301 9.6132L8.25387 9.74019ZM10.6818 5.00037C10.5074 4.99607 10.334 5.02954 10.1718 5.09878C10.0097 5.16803 9.86213 5.27163 9.73796 5.40345C9.61379 5.53526 9.51551 5.69258 9.44899 5.86607C9.38246 6.03955 9.34904 6.22566 9.3507 6.41332C9.3475 6.79123 9.48398 7.15505 9.73012 7.42471C9.97625 7.69438 10.3119 7.84781 10.6632 7.85126C11.0145 7.85471 11.3527 7.70789 11.6033 7.4431C11.854 7.17831 11.9966 6.81723 11.9998 6.43931C12.0026 6.25131 11.9705 6.06461 11.9054 5.89008C11.8404 5.71556 11.7437 5.5567 11.621 5.42277C11.4984 5.28884 11.3521 5.18252 11.1909 5.11C11.0296 5.03748 10.8566 5.00021 10.6818 5.00037Z"
        fill="#999999" fill-opacity="0.6" />
     <circle cx="10" cy="10" r="7.5" stroke="#999999" stroke-opacity="0.6" />
</svg>
