<svg width="125" height="81" fill="none" xmlns="http://www.w3.org/2000/svg"><path fill-rule="evenodd" clip-rule="evenodd" d="M72.286 32.634c-19.763 4.483-44.136 3.978-63.078-.19L40.842 46.4s31.507-13.83 31.444-13.766z" fill="url(#paint0_linear)" stroke="url(#paint1_linear)" stroke-width=".4"/><path fill-rule="evenodd" clip-rule="evenodd" d="M40.905 46.083L18.49 74.054l22.48-15.343 22.288 15.028S40.842 46.083 40.905 46.083z" fill="url(#paint2_linear)" stroke="url(#paint3_linear)" stroke-width=".4"/><path fill-rule="evenodd" clip-rule="evenodd" d="M38.696 19.627l-.127-2.905c-3.788-1.578-8.966.884-8.46 6.567.505 4.61 4.988 6.566 9.029 4.925l-.127-3.031c-1.389 1.263-2.778 1.326-3.914.884-3.789-1.579-2.652-6.693.568-7.135 1.578-.252 3.03.695 3.03.695z" fill="url(#paint4_linear)" stroke="url(#paint5_linear)" stroke-width=".4"/><path fill-rule="evenodd" clip-rule="evenodd" d="M26.445 21.9l-.884-2.778c-4.04-.506-8.397 3.22-6.44 8.587 1.705 4.293 6.567 4.988 9.976 2.336l-.884-2.841c-1.01 1.578-2.336 2.02-3.536 1.894-4.104-.505-4.293-5.746-1.325-7.009 1.452-.694 3.093-.19 3.093-.19z" fill="url(#paint6_linear)" stroke="url(#paint7_linear)" stroke-width=".4"/><path fill-rule="evenodd" clip-rule="evenodd" d="M51.45 20.763l.694-2.841c-3.157-2.589-8.84-1.642-9.913 3.915-.821 4.546 2.968 7.703 7.261 7.26l.758-2.904c-1.705.821-3.03.505-3.978-.252-3.22-2.589-.631-7.135 2.526-6.693 1.515.252 2.651 1.515 2.651 1.515z" fill="url(#paint8_linear)" stroke="url(#paint9_linear)" stroke-width=".4"/><path fill-rule="evenodd" clip-rule="evenodd" d="M52.966 29.982l2.715.82 1.073-3.409c.947.316 2.21.758 2.968.947 1.263.316 4.104-.063 4.988-2.778.884-2.715-.947-4.799-2.4-5.304-1.515-.505-5.682-1.831-5.682-1.831s-3.725 11.555-3.662 11.555zm4.356-4.294l1.516-4.672c.568.19 1.705.568 2.147.758 1.83.694 1.326 5.114-1.768 4.482a30.817 30.817 0 01-1.895-.568z" fill="url(#paint10_linear)" stroke="url(#paint11_linear)" stroke-width=".4"/><path fill-rule="evenodd" clip-rule="evenodd" d="M40.968 1C25.436 8.135 11.86 17.543 1 30.171c2.084 16.417 6.756 32.076 15.533 46.41 16.038 3.788 32.328 3.977 48.997 0C74.686 61.615 79.232 46.082 81 30.233 69.76 17.417 56.375 7.756 40.968 1zm0 3.346C26.825 10.913 14.386 19.5 4.41 30.992 6.304 46.02 10.534 60.29 18.616 73.423c14.65 3.41 29.55 3.662 44.768 0 8.334-13.702 12.502-27.845 14.143-42.305C67.298 19.374 55.05 10.534 40.968 4.346z" fill="url(#paint12_linear)" stroke="url(#paint13_linear)" stroke-width=".4"/><defs><linearGradient id="paint0_linear" x1="9.208" y1="46.399" x2="70.068" y2="25.869" gradientUnits="userSpaceOnUse"><stop offset=".03" stop-color="#F7BB11"/><stop offset="1" stop-color="#F1971E"/></linearGradient><linearGradient id="paint1_linear" x1="9.208" y1="46.399" x2="70.068" y2="25.869" gradientUnits="userSpaceOnUse"><stop offset=".03" stop-color="#F7BB11"/><stop offset="1" stop-color="#F1971E"/></linearGradient><linearGradient id="paint2_linear" x1="18.49" y1="74.054" x2="65.921" y2="68.39" gradientUnits="userSpaceOnUse"><stop offset=".03" stop-color="#F7BB11"/><stop offset="1" stop-color="#F1971E"/></linearGradient><linearGradient id="paint3_linear" x1="18.49" y1="74.054" x2="65.921" y2="68.39" gradientUnits="userSpaceOnUse"><stop offset=".03" stop-color="#F7BB11"/><stop offset="1" stop-color="#F1971E"/></linearGradient><linearGradient id="paint4_linear" x1="30.074" y1="28.787" x2="39.786" y2="28.263" gradientUnits="userSpaceOnUse"><stop offset=".03" stop-color="#F7BB11"/><stop offset="1" stop-color="#F1971E"/></linearGradient><linearGradient id="paint5_linear" x1="30.074" y1="28.787" x2="39.786" y2="28.263" gradientUnits="userSpaceOnUse"><stop offset=".03" stop-color="#F7BB11"/><stop offset="1" stop-color="#F1971E"/></linearGradient><linearGradient id="paint6_linear" x1="18.638" y1="31.606" x2="29.834" y2="30.908" gradientUnits="userSpaceOnUse"><stop offset=".03" stop-color="#F7BB11"/><stop offset="1" stop-color="#F1971E"/></linearGradient><linearGradient id="paint7_linear" x1="18.638" y1="31.606" x2="29.834" y2="30.908" gradientUnits="userSpaceOnUse"><stop offset=".03" stop-color="#F7BB11"/><stop offset="1" stop-color="#F1971E"/></linearGradient><linearGradient id="paint8_linear" x1="42.118" y1="29.139" x2="52.854" y2="28.501" gradientUnits="userSpaceOnUse"><stop offset=".03" stop-color="#F7BB11"/><stop offset="1" stop-color="#F1971E"/></linearGradient><linearGradient id="paint9_linear" x1="42.118" y1="29.139" x2="52.854" y2="28.501" gradientUnits="userSpaceOnUse"><stop offset=".03" stop-color="#F7BB11"/><stop offset="1" stop-color="#F1971E"/></linearGradient><linearGradient id="paint10_linear" x1="52.965" y1="30.803" x2="65.768" y2="29.878" gradientUnits="userSpaceOnUse"><stop offset=".03" stop-color="#F7BB11"/><stop offset="1" stop-color="#F1971E"/></linearGradient><linearGradient id="paint11_linear" x1="52.965" y1="30.803" x2="65.768" y2="29.878" gradientUnits="userSpaceOnUse"><stop offset=".03" stop-color="#F7BB11"/><stop offset="1" stop-color="#F1971E"/></linearGradient><linearGradient id="paint12_linear" x1="1" y1="79.493" x2="86.475" y2="72.992" gradientUnits="userSpaceOnUse"><stop offset=".03" stop-color="#F7BB11"/><stop offset="1" stop-color="#F1971E"/></linearGradient><linearGradient id="paint13_linear" x1="1" y1="79.493" x2="86.475" y2="72.992" gradientUnits="userSpaceOnUse"><stop offset=".03" stop-color="#F7BB11"/><stop offset="1" stop-color="#F1971E"/></linearGradient></defs></svg>