<svg width="125" height="82" fill="none" xmlns="http://www.w3.org/2000/svg"><path d="M59.334 81c-11.947 0-21.667-9.72-21.667-21.667 0-11.947 9.72-21.667 21.667-21.667C71.28 37.666 81 47.386 81 59.333 81 71.28 71.28 81 59.334 81zm0-40C49.224 41 41 49.222 41 59.332c0 10.11 8.224 18.334 18.334 18.334s18.333-8.224 18.333-18.334-8.223-18.334-18.333-18.334z" fill="url(#paint0_linear)" stroke="url(#paint1_linear)" stroke-width=".4"/><path d="M67.667 69.333c-.363 0-.733-.12-1.04-.363l-8.333-6.667A1.672 1.672 0 0157.667 61V49.333a1.667 1.667 0 013.333 0V60.2l7.707 6.166c.717.577.833 1.624.26 2.344a1.66 1.66 0 01-1.3.623z" fill="url(#paint2_linear)" stroke="url(#paint3_linear)" stroke-width=".4"/><path d="M34.357 36c-.613 0-1.2-.338-1.493-.921a1.669 1.669 0 01.747-2.237L65.257 17.01a1.668 1.668 0 012.41 1.49v14.167a1.667 1.667 0 01-3.333 0v-11.47L35.1 35.821c-.24.12-.493.177-.743.177z" fill="url(#paint4_linear)" stroke="url(#paint5_linear)" stroke-width=".4"/><path d="M32.643 67.666a1.66 1.66 0 01-.81-.21L1.853 50.79A1.672 1.672 0 011 49.333V18.499a1.668 1.668 0 012.41-1.49l31.647 15.833a1.67 1.67 0 01.746 2.237 1.67 1.67 0 01-2.236.747L4.333 21.196v27.157l29.124 16.19a1.668 1.668 0 01-.814 3.123v0z" fill="url(#paint6_linear)" stroke="url(#paint7_linear)" stroke-width=".4"/><path d="M66 20.165c-.25 0-.503-.056-.743-.176L34.313 4.529l-30.9 15.46a1.671 1.671 0 01-2.236-.744 1.667 1.667 0 01.746-2.236L33.57 1.175a1.673 1.673 0 011.49 0l31.687 15.834a1.67 1.67 0 01.746 2.236 1.67 1.67 0 01-1.493.92z" fill="url(#paint8_linear)" stroke="url(#paint9_linear)" stroke-width=".4"/><path d="M17.81 40.13c-.92 0-1.666-.748-1.666-1.668V26.07c0-.63.356-1.207.92-1.49L48.71 8.745a1.667 1.667 0 111.49 2.983L19.477 27.103v11.364c0 .92-.743 1.663-1.667 1.663v0z" fill="url(#paint10_linear)" stroke="url(#paint11_linear)" stroke-width=".4"/><defs><linearGradient id="paint0_linear" x1="37.667" y1="81" x2="83.976" y2="77.544" gradientUnits="userSpaceOnUse"><stop offset=".03" stop-color="#F7BB11"/><stop offset="1" stop-color="#F1971E"/></linearGradient><linearGradient id="paint1_linear" x1="37.667" y1="81" x2="83.976" y2="77.544" gradientUnits="userSpaceOnUse"><stop offset=".03" stop-color="#F7BB11"/><stop offset="1" stop-color="#F1971E"/></linearGradient><linearGradient id="paint2_linear" x1="57.667" y1="69.333" x2="70.181" y2="68.83" gradientUnits="userSpaceOnUse"><stop offset=".03" stop-color="#F7BB11"/><stop offset="1" stop-color="#F1971E"/></linearGradient><linearGradient id="paint3_linear" x1="57.667" y1="69.333" x2="70.181" y2="68.83" gradientUnits="userSpaceOnUse"><stop offset=".03" stop-color="#F7BB11"/><stop offset="1" stop-color="#F1971E"/></linearGradient><linearGradient id="paint4_linear" x1="32.688" y1="35.999" x2="69.593" y2="30.974" gradientUnits="userSpaceOnUse"><stop offset=".03" stop-color="#F7BB11"/><stop offset="1" stop-color="#F1971E"/></linearGradient><linearGradient id="paint5_linear" x1="32.688" y1="35.999" x2="69.593" y2="30.974" gradientUnits="userSpaceOnUse"><stop offset=".03" stop-color="#F7BB11"/><stop offset="1" stop-color="#F1971E"/></linearGradient><linearGradient id="paint6_linear" x1="1" y1="67.666" x2="38.49" y2="65.741" gradientUnits="userSpaceOnUse"><stop offset=".03" stop-color="#F7BB11"/><stop offset="1" stop-color="#F1971E"/></linearGradient><linearGradient id="paint7_linear" x1="1" y1="67.666" x2="38.49" y2="65.741" gradientUnits="userSpaceOnUse"><stop offset=".03" stop-color="#F7BB11"/><stop offset="1" stop-color="#F1971E"/></linearGradient><linearGradient id="paint8_linear" x1="1" y1="20.165" x2="68.121" y2="2.742" gradientUnits="userSpaceOnUse"><stop offset=".03" stop-color="#F7BB11"/><stop offset="1" stop-color="#F1971E"/></linearGradient><linearGradient id="paint9_linear" x1="1" y1="20.165" x2="68.121" y2="2.742" gradientUnits="userSpaceOnUse"><stop offset=".03" stop-color="#F7BB11"/><stop offset="1" stop-color="#F1971E"/></linearGradient><linearGradient id="paint10_linear" x1="16.144" y1="40.129" x2="53.479" y2="37.041" gradientUnits="userSpaceOnUse"><stop offset=".03" stop-color="#F7BB11"/><stop offset="1" stop-color="#F1971E"/></linearGradient><linearGradient id="paint11_linear" x1="16.144" y1="40.129" x2="53.479" y2="37.041" gradientUnits="userSpaceOnUse"><stop offset=".03" stop-color="#F7BB11"/><stop offset="1" stop-color="#F1971E"/></linearGradient></defs></svg>