<svg width="43" height="18" viewBox="0 0 43 18" fill="white" xmlns="http://www.w3.org/2000/svg">
    <path d="M3.85987 0.75487V16.9979C3.85987 17.2062 3.70373 17.3624 3.49555 17.3624H0.659113C0.450934 17.3624 0.2948 17.2062 0.2948 16.9979V0.75487C0.2948 0.546625 0.450934 0.390442 0.659113 0.390442H3.49555C3.70373 0.390442 3.85987 0.546625 3.85987 0.75487Z"/>
    <path d="M20.9306 3.3059H20.7224C20.5662 3.3059 20.4622 3.20177 20.4622 3.04559V0.676809C20.4622 0.520626 20.5662 0.416504 20.7224 0.416504H20.9306C21.0867 0.416504 21.1908 0.520626 21.1908 0.676809V3.04559C21.1908 3.20177 21.0607 3.3059 20.9306 3.3059Z"/>
    <path d="M22.7262 3.3059H22.518C22.3618 3.3059 22.2578 3.20177 22.2578 3.04559V0.676809C22.2578 0.520626 22.3618 0.416504 22.518 0.416504H22.7262C22.8823 0.416504 22.9864 0.520626 22.9864 0.676809V3.04559C22.9864 3.20177 22.8563 3.3059 22.7262 3.3059Z" />
    <path d="M36.0756 2.88939H35.8675C35.7113 2.88939 35.6072 2.78527 35.6072 2.62909V0.260305C35.6072 0.104122 35.7113 0 35.8675 0H36.0756C36.2318 0 36.3359 0.104122 36.3359 0.260305V2.62909C36.3359 2.78527 36.2318 2.88939 36.0756 2.88939Z"/>
    <path d="M36.0756 17.7528H35.8675C35.7113 17.7528 35.6072 17.6486 35.6072 17.4925V15.0976C35.6072 14.9415 35.7113 14.8373 35.8675 14.8373H36.0756C36.2318 14.8373 36.3359 14.9415 36.3359 15.0976V17.4664C36.3359 17.6226 36.2318 17.7528 36.0756 17.7528Z"/>
    <path fill-rule="evenodd" clip-rule="evenodd" d="M10.9899 0.36438C10.8598 0.36438 10.7297 0.442472 10.6777 0.546594L6.72226 7.60087H5.47327C5.18702 7.60087 4.95282 7.83514 4.95282 8.12148V9.55316C4.95282 9.83949 5.161 10.0738 5.47327 10.0738L6.69624 10.0738L10.9119 17.1801C10.9899 17.2842 11.094 17.3623 11.2241 17.3623L14.4249 17.3623H17.6517C17.8599 17.3623 18.016 17.2062 18.016 16.9979V3.48806C18.016 3.38394 18.0941 3.30584 18.1981 3.30584H18.9268C19.1349 3.30584 19.2911 3.14966 19.2911 2.94142V0.728819H19.3171C19.3171 0.520575 19.161 0.364392 18.9528 0.364392H18.042H14.607L14.607 0.36438H10.9899ZM14.4249 0.672266L9.74086 8.59003C9.66279 8.69416 9.66279 8.85034 9.74086 8.95446L14.4249 17.0476V0.672266Z"/>
    <path fill-rule="evenodd" clip-rule="evenodd" d="M34.1499 17.6226C34.3581 17.6487 34.5403 17.4665 34.5403 17.2582H34.5663V14.9935C34.5663 14.8113 34.4362 14.6812 34.28 14.6291C33.4733 14.4209 32.2503 13.8482 32.2503 12.0521V12.0261V5.62255C32.2503 3.77439 33.4213 3.17568 34.254 2.99347C34.4102 2.96744 34.5403 2.81126 34.5403 2.62904V0.442476C34.5403 0.234232 34.3581 0.0520178 34.1499 0.0780483C30.9071 0.29592 29.1496 3.17033 28.9194 5.07921V0.754857C28.9194 0.546613 28.7633 0.390429 28.5551 0.390429H25.3283H24.4175C24.2094 0.390429 24.0532 0.546613 24.0532 0.754857V2.96745C24.0532 3.1757 24.2094 3.33188 24.4175 3.33188H25.1462C25.2503 3.33188 25.3283 3.40997 25.3283 3.5141V17.024C25.3283 17.2322 25.4845 17.3884 25.6926 17.3884H28.5551C28.7633 17.3884 28.9194 17.2322 28.9194 17.024V12.4639C29.148 14.4659 30.8846 17.4049 34.1499 17.6226Z"/>
    <path d="M37.8191 0.130233C40.5514 0.390539 42.7633 3.14978 42.9975 5.57062C43.0235 5.77886 42.8414 5.96108 42.6332 5.96108H40.3172C40.1611 5.96108 40.0049 5.85696 39.9529 5.70077C39.6146 4.5294 38.7298 3.56627 37.6369 3.14978C37.5068 3.09772 37.4027 2.96756 37.4027 2.81138V0.494661C37.4027 0.286417 37.5849 0.104203 37.8191 0.130233Z"/>
    <path d="M37.8191 17.6227C40.5514 17.3884 42.7894 14.6552 42.9975 12.1563C43.0236 11.948 42.8414 11.7658 42.6332 11.7658H40.3172C40.1611 11.7658 40.005 11.8699 39.9529 12.0261C39.6146 13.1975 38.5998 14.2387 37.663 14.5771C37.5068 14.6292 37.4287 14.7593 37.4287 14.9155V17.2322C37.4027 17.4665 37.5849 17.6487 37.8191 17.6227Z"/>
</svg>
