<svg width="24" height="24" viewBox="0 0 24 24" fill="none" xmlns="http://www.w3.org/2000/svg">
<path fill-rule="evenodd" clip-rule="evenodd" d="M13.6009 7.39901C13.269 7.06707 12.7308 7.06707 12.3989 7.39901C12.0669 7.73096 12.0669 8.26915 12.3989 8.6011L14.9478 11.1501L2.9999 11.1501C2.53046 11.1501 2.1499 11.5306 2.1499 12.0001C2.1499 12.4695 2.53046 12.8501 2.9999 12.8501L14.9478 12.8501L12.3989 15.399C12.0669 15.731 12.0669 16.2692 12.3989 16.6011C12.7308 16.933 13.269 16.933 13.6009 16.6011L17.6009 12.6011C17.9329 12.2692 17.9329 11.731 17.6009 11.399L13.6009 7.39901ZM16.2 2.84997C17.0541 2.84997 17.6435 2.85064 18.1012 2.88802C18.5489 2.9246 18.795 2.99205 18.9761 3.08431C19.3806 3.29044 19.7095 3.61935 19.9157 4.0239C20.0079 4.20496 20.0754 4.45111 20.1119 4.8988C20.1493 5.35641 20.15 5.94587 20.15 6.79998L20.15 17.2C20.15 18.0541 20.1493 18.6435 20.1119 19.1012C20.0754 19.5488 20.0079 19.795 19.9156 19.9761C19.7095 20.3806 19.3806 20.7095 18.9761 20.9156C18.795 21.0079 18.5489 21.0753 18.1012 21.1119C17.6435 21.1493 17.0541 21.15 16.2 21.15L11.8 21.15C10.9459 21.15 10.3564 21.1493 9.89881 21.1119C9.45112 21.0753 9.20498 21.0079 9.02391 20.9156C8.61936 20.7095 8.29045 20.3806 8.08432 19.9761C7.99206 19.795 7.92462 19.5488 7.88804 19.1012C7.85065 18.6435 7.84999 18.0541 7.84999 17.2L7.84999 16C7.84999 15.5305 7.46943 15.15 6.99999 15.15C6.53055 15.15 6.14999 15.5305 6.14999 16L6.14999 17.2L6.14999 17.2358C6.14998 18.0455 6.14997 18.7046 6.19368 19.2396C6.23885 19.7924 6.33489 20.2872 6.56961 20.7478C6.93873 21.4723 7.5277 22.0612 8.25213 22.4304C8.71279 22.6651 9.20756 22.7611 9.76038 22.8063C10.2954 22.85 10.9545 22.85 11.7642 22.85L11.8 22.85L16.2 22.85L16.2358 22.85C17.0454 22.85 17.7046 22.85 18.2396 22.8063C18.7924 22.7611 19.2872 22.6651 19.7478 22.4304C20.4723 22.0612 21.0612 21.4723 21.4304 20.7478C21.6651 20.2872 21.7611 19.7924 21.8063 19.2396C21.85 18.7046 21.85 18.0455 21.85 17.2358L21.85 17.2L21.85 6.79998L21.85 6.76412C21.85 5.95449 21.85 5.29539 21.8063 4.76036C21.7611 4.20754 21.6651 3.71278 21.4304 3.25211C21.0612 2.52769 20.4723 1.93871 19.7478 1.5696C19.2872 1.33488 18.7924 1.23884 18.2396 1.19367C17.7046 1.14996 17.0455 1.14996 16.2358 1.14997L16.2 1.14997L11.8 1.14997L11.7641 1.14997C10.9545 1.14996 10.2954 1.14996 9.76038 1.19367C9.20756 1.23884 8.71279 1.33488 8.25212 1.5696C7.5277 1.93871 6.93873 2.52769 6.56961 3.25211C6.33489 3.71278 6.23885 4.20754 6.19368 4.76036C6.14997 5.29539 6.14998 5.95449 6.14999 6.76411L6.14999 6.79997L6.14999 7.99997C6.14999 8.46942 6.53055 8.84997 6.99999 8.84997C7.46943 8.84997 7.84999 8.46942 7.84999 7.99997L7.84999 6.79998C7.84999 5.94587 7.85065 5.35641 7.88804 4.8988C7.92462 4.45111 7.99206 4.20497 8.08432 4.0239C8.29045 3.61935 8.61936 3.29044 9.02391 3.08431C9.20498 2.99205 9.45112 2.9246 9.89881 2.88802C10.3564 2.85064 10.9459 2.84998 11.8 2.84998L16.2 2.84997Z" fill="#1F2937"/>
</svg>
