<svg width="32" height="32" viewBox="0 0 32 32" fill="none" xmlns="http://www.w3.org/2000/svg">
<path d="M25.3327 2.6665H6.66602C4.45688 2.6665 2.66602 4.45736 2.66602 6.6665V25.3332C2.66602 27.5423 4.45687 29.3332 6.66601 29.3332H25.3327C27.5418 29.3332 29.3327 27.5423 29.3327 25.3332V6.6665C29.3327 4.45737 27.5418 2.6665 25.3327 2.6665Z" stroke="#1D2E89" stroke-linejoin="round"/>
<circle cx="16" cy="12" r="3.5" stroke="#1D2E89"/>
<path d="M9.75646 20.2732C10.5041 18.778 12.0323 17.8335 13.7041 17.8335H18.088C19.844 17.8335 21.4231 18.9026 22.0753 20.533C22.6438 21.9542 21.5971 23.5002 20.0664 23.5002H11.7508C10.0933 23.5002 9.01518 21.7558 9.75646 20.2732Z" stroke="#1D2E89"/>
</svg>
