<svg width="722" height="210" viewBox="0 0 722 210" fill="none" xmlns="http://www.w3.org/2000/svg">
<g clip-path="url(#clip0_1729_12775)">
<path d="M260.83 131H275.2V146.8H273V132.88H263V146.77H260.79L260.83 131Z" fill="white"/>
<path d="M280.14 131.001H282.35V133.901C283.149 132.858 284.175 132.01 285.35 131.421C286.533 130.859 287.83 130.575 289.14 130.591C291.459 130.548 293.701 131.422 295.38 133.021C296.206 133.752 296.866 134.651 297.315 135.659C297.763 136.666 297.99 137.758 297.98 138.861C297.994 139.975 297.772 141.078 297.327 142.099C296.882 143.12 296.225 144.034 295.4 144.781C294.577 145.574 293.606 146.197 292.542 146.614C291.478 147.031 290.342 147.234 289.2 147.211C287.904 147.226 286.62 146.956 285.44 146.421C284.256 145.868 283.203 145.071 282.35 144.081V152.581H280.14V131.001ZM288.96 132.551C287.174 132.509 285.443 133.17 284.14 134.391C283.4 135.07 282.837 135.918 282.498 136.863C282.159 137.808 282.055 138.821 282.195 139.815C282.334 140.809 282.714 141.754 283.3 142.568C283.886 143.383 284.662 144.043 285.56 144.491C286.618 145.046 287.795 145.335 288.99 145.331C290.156 145.334 291.304 145.045 292.33 144.491C293.357 143.937 294.214 143.115 294.81 142.111C295.41 141.155 295.728 140.05 295.728 138.921C295.728 137.793 295.41 136.687 294.81 135.731C294.219 134.738 293.364 133.928 292.34 133.391C291.317 132.827 290.168 132.528 289 132.521L288.96 132.551Z" fill="white"/>
<path d="M319.16 131.001V146.801H317V144.081C316.14 145.072 315.08 145.869 313.89 146.421C312.706 146.956 311.419 147.226 310.12 147.211C307.81 147.255 305.577 146.381 303.91 144.781C303.088 144.032 302.434 143.117 301.991 142.096C301.548 141.076 301.326 139.973 301.34 138.861C301.328 137.759 301.553 136.667 302 135.66C302.447 134.652 303.105 133.752 303.93 133.021C305.614 131.423 307.859 130.55 310.18 130.591C311.5 130.573 312.806 130.857 314 131.421C315.179 132.004 316.206 132.853 317 133.901V131.001H319.16ZM310.35 132.551C309.167 132.54 308.001 132.829 306.96 133.391C305.935 133.93 305.077 134.739 304.48 135.731C303.88 136.687 303.562 137.793 303.562 138.921C303.562 140.05 303.88 141.155 304.48 142.111C305.082 143.113 305.942 143.935 306.97 144.491C308.002 145.048 309.157 145.337 310.33 145.331C311.524 145.333 312.702 145.045 313.76 144.491C314.785 143.977 315.647 143.187 316.25 142.211C316.972 140.975 317.258 139.531 317.06 138.112C316.862 136.694 316.193 135.383 315.16 134.391C313.865 133.159 312.137 132.487 310.35 132.521V132.551Z" fill="white"/>
<path d="M329.09 146.769H324.09V130.999H329C330.436 130.871 331.867 131.297 333 132.189C333.389 132.54 333.7 132.969 333.914 133.448C334.127 133.926 334.238 134.444 334.24 134.969C334.279 135.693 334.074 136.409 333.657 137.002C333.239 137.595 332.635 138.031 331.94 138.239C334.16 138.959 335.27 140.359 335.27 142.439C335.32 145.319 333.25 146.769 329.09 146.769ZM326.32 132.769V137.699H327.76C328.613 137.731 329.467 137.68 330.31 137.549C330.751 137.433 331.145 137.186 331.44 136.839C331.806 136.419 331.996 135.875 331.97 135.319C331.989 134.721 331.794 134.136 331.42 133.669C331.133 133.284 330.724 133.009 330.26 132.889C329.431 132.784 328.595 132.744 327.76 132.769H326.32ZM326.32 139.569V145.109H328.69C329.492 145.136 330.294 145.069 331.08 144.909C331.574 144.771 332.007 144.472 332.31 144.059C332.697 143.495 332.872 142.812 332.804 142.131C332.737 141.45 332.43 140.816 331.94 140.339C331.281 139.803 330.448 139.529 329.6 139.569H326.32Z" fill="white"/>
<path d="M341.4 131V142.69L354 131H354.18V146.8H351.97V135.19L339.49 146.77H339.23V131H341.4Z" fill="white"/>
<path d="M373.56 146.769H371.21L365.48 135.259L359.79 146.769H357.43L365.29 130.969H365.68L373.56 146.769Z" fill="white"/>
<path d="M379.11 137.23H381.2C382.516 137.195 383.832 137.315 385.12 137.59C386.088 137.844 386.945 138.41 387.56 139.2C388.292 140.092 388.653 141.231 388.567 142.382C388.481 143.533 387.956 144.606 387.1 145.38C385.841 146.402 384.236 146.9 382.62 146.77H376.92V131H379.11V137.23ZM379.19 139.09V145.09H381.72C384.7 145.09 386.19 144.12 386.19 142.18C386.183 141.606 386.017 141.045 385.71 140.56C385.396 140.028 384.898 139.629 384.31 139.44C383.249 139.172 382.153 139.064 381.06 139.12L379.19 139.09Z" fill="white"/>
<path d="M404.27 139.16H394.27V146.77H392.07V131H394.27V137.27H404.27V131H406.48V146.8H404.27V139.16Z" fill="white"/>
<path d="M419.49 130.559C420.706 130.522 421.917 130.738 423.046 131.192C424.175 131.647 425.198 132.33 426.05 133.199C426.813 133.953 427.416 134.854 427.824 135.846C428.231 136.839 428.435 137.903 428.423 138.976C428.411 140.049 428.183 141.109 427.753 142.092C427.323 143.075 426.7 143.961 425.92 144.699C424.157 146.294 421.863 147.178 419.485 147.178C417.107 147.178 414.813 146.294 413.05 144.699C412.273 143.962 411.653 143.076 411.224 142.095C410.796 141.114 410.569 140.057 410.557 138.986C410.545 137.916 410.748 136.854 411.154 135.863C411.56 134.872 412.16 133.973 412.92 133.219C413.772 132.345 414.795 131.657 415.926 131.2C417.057 130.742 418.27 130.523 419.49 130.559ZM419.49 132.559C418.617 132.543 417.75 132.7 416.938 133.021C416.126 133.342 415.386 133.82 414.76 134.429C413.718 135.396 413.043 136.694 412.848 138.103C412.653 139.512 412.95 140.944 413.69 142.159C414.273 143.131 415.114 143.924 416.12 144.449C417.162 144.981 418.315 145.259 419.485 145.259C420.655 145.259 421.808 144.981 422.85 144.449C423.856 143.924 424.697 143.131 425.28 142.159C426.02 140.944 426.317 139.51 426.121 138.101C425.924 136.692 425.245 135.394 424.2 134.429C423.577 133.821 422.841 133.342 422.032 133.019C421.224 132.696 420.36 132.536 419.49 132.549V132.559Z" fill="white"/>
<path d="M446.91 141.53L448.77 142.43C448.233 143.44 447.519 144.345 446.66 145.1C445.861 145.776 444.946 146.302 443.96 146.65C442.872 147.018 441.729 147.197 440.58 147.18C439.369 147.248 438.157 147.056 437.026 146.618C435.895 146.18 434.87 145.506 434.02 144.64C432.515 143.112 431.668 141.055 431.66 138.91C431.65 136.939 432.361 135.033 433.66 133.55C434.489 132.566 435.531 131.785 436.708 131.265C437.885 130.745 439.165 130.501 440.45 130.55C441.773 130.496 443.09 130.743 444.303 131.273C445.516 131.803 446.592 132.603 447.45 133.61C448.714 135.125 449.386 137.048 449.34 139.02H433.94C433.931 139.862 434.094 140.697 434.421 141.473C434.748 142.249 435.231 142.949 435.84 143.53C436.445 144.112 437.16 144.567 437.943 144.869C438.726 145.171 439.561 145.314 440.4 145.29C441.264 145.292 442.122 145.15 442.94 144.87C443.704 144.63 444.419 144.254 445.05 143.76C445.778 143.114 446.405 142.363 446.91 141.53ZM446.91 137.27C446.683 136.319 446.246 135.43 445.63 134.67C445.013 133.987 444.251 133.451 443.4 133.1C442.476 132.71 441.483 132.509 440.48 132.51C438.905 132.476 437.37 133.004 436.15 134C435.179 134.872 434.484 136.009 434.15 137.27H446.91Z" fill="white"/>
<path d="M479 134.25L477.25 135.25C475.838 133.661 473.868 132.679 471.75 132.508C469.632 132.337 467.529 132.989 465.88 134.33C465.225 134.885 464.7 135.578 464.342 136.359C463.984 137.14 463.803 137.991 463.81 138.85C463.827 140.006 464.174 141.133 464.81 142.1C465.443 143.114 466.347 143.931 467.42 144.46C468.575 145.032 469.851 145.32 471.14 145.3C472.309 145.333 473.471 145.101 474.538 144.621C475.604 144.141 476.549 143.426 477.3 142.53L479.05 143.59C478.204 144.749 477.065 145.664 475.75 146.24C474.265 146.884 472.659 147.205 471.04 147.18C468.574 147.264 466.166 146.414 464.3 144.8C463.454 144.09 462.775 143.202 462.311 142.199C461.848 141.197 461.612 140.104 461.62 139C461.616 137.489 462.05 136.009 462.87 134.74C463.713 133.417 464.903 132.352 466.31 131.66C467.834 130.913 469.513 130.536 471.21 130.56C472.321 130.556 473.426 130.718 474.49 131.04C475.443 131.314 476.347 131.736 477.17 132.29C477.901 132.819 478.522 133.484 479 134.25Z" fill="white"/>
<path d="M495.39 139.16H485.39V146.77H483.19V131H485.39V137.27H495.39V131H497.59V146.8H495.39V139.16Z" fill="white"/>
<path d="M519.56 131.001V146.801H517.39V144.081C516.532 145.074 515.471 145.871 514.28 146.421C513.096 146.958 511.809 147.227 510.51 147.211C508.2 147.255 505.967 146.381 504.3 144.781C503.478 144.032 502.824 143.117 502.381 142.096C501.938 141.076 501.716 139.974 501.73 138.861C501.717 137.758 501.943 136.665 502.392 135.657C502.84 134.649 503.502 133.75 504.33 133.021C506.009 131.422 508.251 130.548 510.57 130.591C511.89 130.574 513.196 130.857 514.39 131.421C515.569 132.004 516.596 132.854 517.39 133.901V131.001H519.56ZM510.75 132.551C509.567 132.54 508.401 132.829 507.36 133.391C506.335 133.93 505.477 134.739 504.88 135.731C504.28 136.687 503.962 137.793 503.962 138.921C503.962 140.05 504.28 141.155 504.88 142.111C505.482 143.113 506.342 143.935 507.37 144.491C508.402 145.048 509.557 145.337 510.73 145.331C511.924 145.333 513.102 145.045 514.16 144.491C515.187 143.988 516.049 143.203 516.644 142.227C517.239 141.25 517.543 140.124 517.52 138.981C517.537 138.117 517.367 137.26 517.022 136.468C516.676 135.676 516.164 134.967 515.52 134.391C514.235 133.169 512.523 132.498 510.75 132.521V132.551Z" fill="white"/>
<path d="M540.92 124.531V126.531C539.124 126.745 537.318 126.862 535.51 126.881C534.078 126.904 532.648 127.018 531.23 127.221C530.294 127.371 529.399 127.712 528.6 128.221C527.793 128.771 527.145 129.523 526.72 130.401C526.182 131.414 525.843 132.521 525.72 133.661L525.5 135.881C525.982 134.228 527.048 132.807 528.5 131.881C529.871 131.041 531.452 130.604 533.06 130.621C534.234 130.587 535.404 130.787 536.5 131.212C537.595 131.636 538.595 132.275 539.44 133.091C540.255 133.838 540.903 134.746 541.344 135.759C541.785 136.772 542.009 137.866 542 138.971C542.009 140.068 541.786 141.154 541.347 142.158C540.907 143.163 540.261 144.063 539.45 144.801C538.601 145.61 537.6 146.242 536.505 146.661C535.409 147.08 534.242 147.277 533.07 147.241C531.835 147.266 530.607 147.04 529.463 146.576C528.318 146.112 527.279 145.419 526.41 144.541C524.59 142.731 523.68 139.901 523.68 136.021C523.569 133.93 523.911 131.839 524.68 129.891C525.177 128.714 525.965 127.682 526.97 126.891C527.987 126.214 529.119 125.726 530.31 125.451C532.843 124.988 535.415 124.77 537.99 124.801C538.971 124.765 539.949 124.675 540.92 124.531ZM539.77 139.001C539.777 138.149 539.602 137.305 539.257 136.526C538.912 135.746 538.405 135.049 537.77 134.481C536.502 133.267 534.815 132.59 533.06 132.59C531.305 132.59 529.618 133.267 528.35 134.481C527.715 135.049 527.208 135.746 526.863 136.526C526.518 137.305 526.343 138.149 526.35 139.001C526.337 139.836 526.501 140.663 526.83 141.43C527.159 142.197 527.646 142.886 528.26 143.451C529.571 144.635 531.274 145.291 533.04 145.291C534.806 145.291 536.51 144.635 537.82 143.451C538.44 142.889 538.935 142.202 539.271 141.435C539.607 140.668 539.777 139.839 539.77 139.001Z" fill="white"/>
<path d="M554.86 131H557.1V138L565.29 131H568L559.9 138L568.61 146.75H565.79L558.38 139.11L557.12 140.11V146.78H554.88V140.1L553.66 139.1L546.3 146.74H543.45L552 138L544.05 131H546.74L554.83 138L554.86 131Z" fill="white"/>
<path d="M585.29 141.53L587.14 142.43C586.595 143.443 585.869 144.348 585 145.1C584.205 145.776 583.293 146.301 582.31 146.65C581.218 147.017 580.072 147.196 578.92 147.18C577.71 147.248 576.5 147.056 575.371 146.618C574.241 146.18 573.218 145.506 572.37 144.64C570.861 143.115 570.013 141.056 570.01 138.91C569.993 136.938 570.705 135.029 572.01 133.55C572.839 132.566 573.881 131.785 575.058 131.265C576.235 130.745 577.515 130.501 578.8 130.55C580.123 130.496 581.44 130.743 582.653 131.273C583.866 131.803 584.942 132.603 585.8 133.61C587.064 135.125 587.736 137.048 587.69 139.02H572.3C572.292 139.863 572.457 140.698 572.786 141.474C573.114 142.25 573.599 142.95 574.21 143.53C574.814 144.111 575.527 144.565 576.308 144.867C577.09 145.169 577.923 145.313 578.76 145.29C579.627 145.291 580.489 145.149 581.31 144.87C582.07 144.627 582.781 144.251 583.41 143.76C584.145 143.116 584.779 142.364 585.29 141.53ZM585.29 137.27C585.056 136.32 584.616 135.432 584 134.67C583.387 133.983 582.624 133.446 581.77 133.1C580.85 132.709 579.86 132.508 578.86 132.51C577.415 132.442 575.991 132.881 574.833 133.749C573.676 134.618 572.858 135.863 572.52 137.27H585.29Z" fill="white"/>
<path d="M604 139.16H594V146.77H591.8V131H594V137.27H604V131H606.21V146.8H604V139.16Z" fill="white"/>
<path d="M613.3 131V142.69L625.88 131H626.05V146.8H623.85V135.19L611.37 146.77H611.1V131H613.3Z" fill="white"/>
<path d="M645.38 141.53L647.23 142.43C646.697 143.442 645.981 144.348 645.12 145.1C644.326 145.778 643.414 146.304 642.43 146.65C641.338 147.017 640.192 147.196 639.04 147.18C637.83 147.248 636.62 147.056 635.491 146.618C634.361 146.18 633.338 145.506 632.49 144.64C630.98 143.115 630.133 141.056 630.13 138.91C630.113 136.938 630.825 135.029 632.13 133.55C632.959 132.566 634.001 131.785 635.178 131.265C636.355 130.745 637.634 130.501 638.92 130.55C640.242 130.496 641.56 130.743 642.773 131.273C643.986 131.803 645.062 132.603 645.92 133.61C647.176 135.122 647.844 137.036 647.8 139H632.39C632.382 139.843 632.547 140.678 632.876 141.454C633.204 142.23 633.689 142.93 634.3 143.51C634.904 144.091 635.617 144.545 636.398 144.847C637.179 145.149 638.013 145.293 638.85 145.27C639.717 145.271 640.579 145.129 641.4 144.85C642.16 144.607 642.871 144.231 643.5 143.74C644.234 143.102 644.867 142.357 645.38 141.53ZM645.38 137.27C645.146 136.32 644.706 135.432 644.09 134.67C643.477 133.983 642.714 133.446 641.86 133.1C640.94 132.709 639.95 132.508 638.95 132.51C637.504 132.442 636.08 132.881 634.923 133.749C633.766 134.618 632.948 135.863 632.61 137.27H645.38Z" fill="white"/>
<path d="M200.31 56.3789H235.09V104.179H230.18V60.9289H205.18V104.179H200.28L200.31 56.3789Z" fill="white"/>
<path d="M246.32 68.8301H251V75.3301C252.668 73.0156 254.843 71.1137 257.36 69.7701C259.84 68.5225 262.584 67.8881 265.36 67.9201C267.818 67.8826 270.258 68.3446 272.532 69.2779C274.806 70.2113 276.867 71.5967 278.59 73.3501C280.356 75.0312 281.755 77.0591 282.699 79.3065C283.644 81.5539 284.114 83.9724 284.08 86.4101C284.083 89.5497 283.295 92.6394 281.786 95.3932C280.278 98.1469 278.1 100.476 275.453 102.164C272.805 103.852 269.775 104.845 266.642 105.05C263.509 105.256 260.375 104.668 257.53 103.34C254.996 102.083 252.76 100.3 250.97 98.1101V117.11H246.3L246.32 68.8301ZM265 72.3101C263.105 72.2788 261.223 72.6297 259.466 73.3418C257.71 74.0539 256.115 75.1126 254.776 76.4548C253.438 77.7969 252.384 79.3949 251.676 81.1535C250.969 82.912 250.623 84.795 250.66 86.6901C250.62 89.2208 251.255 91.7164 252.5 93.9201C253.751 96.0821 255.584 97.8492 257.79 99.0201C260.015 100.253 262.516 100.9 265.06 100.9C267.569 100.893 270.031 100.224 272.198 98.9596C274.365 97.6953 276.16 95.8809 277.4 93.7001C278.683 91.5377 279.361 89.0696 279.361 86.5551C279.361 84.0405 278.683 81.5725 277.4 79.4101C276.16 77.2208 274.349 75.4096 272.16 74.1701C269.977 72.9345 267.508 72.2932 265 72.3101Z" fill="white"/>
<path d="M310 67.9203C313.689 67.8625 317.311 68.9018 320.408 70.9062C323.505 72.9105 325.937 75.7897 327.395 79.1784C328.853 82.5671 329.272 86.3125 328.598 89.9395C327.924 93.5665 326.188 96.9115 323.61 99.5502C319.965 103.103 315.076 105.092 309.985 105.092C304.894 105.092 300.005 103.103 296.36 99.5502C293.79 96.9061 292.062 93.559 291.394 89.9325C290.727 86.3061 291.15 82.5631 292.61 79.1771C294.07 75.7911 296.502 72.9142 299.597 70.9105C302.693 68.9067 306.313 67.8661 310 67.9203ZM310 72.3702C308.135 72.3485 306.286 72.7091 304.566 73.4298C302.846 74.1504 301.292 75.2158 300 76.5602C298.649 77.8764 297.581 79.4548 296.863 81.1985C296.144 82.9422 295.789 84.8144 295.82 86.7002C295.806 89.2102 296.462 91.6785 297.72 93.8502C298.934 96.001 300.72 97.7733 302.88 98.9702C305.069 100.152 307.517 100.77 310.005 100.77C312.493 100.77 314.941 100.152 317.13 98.9702C319.29 97.7733 321.076 96.001 322.29 93.8502C323.548 91.6785 324.204 89.2102 324.19 86.7002C324.22 84.8128 323.862 82.9394 323.14 81.1954C322.417 79.4515 321.345 77.874 319.99 76.5602C318.698 75.218 317.146 74.1539 315.428 73.4334C313.71 72.7129 311.863 72.3511 310 72.3702Z" fill="white"/>
<path d="M342.22 72.8281V104.178H337.55V68.8281H355.89V72.8281H342.22Z" fill="white"/>
<path d="M362.26 68.8301H366.93V75.3301C368.598 73.0156 370.773 71.1137 373.29 69.7701C375.77 68.5225 378.514 67.8881 381.29 67.9201C383.748 67.8826 386.188 68.3446 388.462 69.2779C390.736 70.2113 392.797 71.5967 394.52 73.3501C396.284 75.032 397.681 77.0603 398.624 79.3077C399.567 81.5551 400.035 83.9731 400 86.4101C400.003 89.5497 399.215 92.6394 397.706 95.3932C396.198 98.1469 394.02 100.476 391.373 102.164C388.725 103.852 385.695 104.845 382.562 105.05C379.429 105.256 376.295 104.668 373.45 103.34C370.918 102.08 368.682 100.298 366.89 98.1101V117.11H362.22L362.26 68.8301ZM380.94 72.3101C379.045 72.2788 377.163 72.6297 375.406 73.3418C373.65 74.0539 372.055 75.1126 370.716 76.4548C369.378 77.7969 368.324 79.3949 367.616 81.1535C366.909 82.912 366.563 84.795 366.6 86.6901C366.56 89.2208 367.195 91.7164 368.44 93.9201C369.694 96.0798 371.526 97.8462 373.73 99.0201C375.955 100.253 378.456 100.9 381 100.9C383.509 100.893 385.971 100.224 388.138 98.9596C390.305 97.6953 392.1 95.8809 393.34 93.7001C394.623 91.5377 395.301 89.0696 395.301 86.5551C395.301 84.0405 394.623 81.5725 393.34 79.4101C392.1 77.2208 390.289 75.4096 388.1 74.1701C385.917 72.9345 383.448 72.2932 380.94 72.3101Z" fill="white"/>
<path d="M439.32 92.4506L443.26 94.4506C442.141 96.7021 440.627 98.7343 438.79 100.451C437.118 101.948 435.182 103.122 433.08 103.911C430.777 104.73 428.345 105.13 425.9 105.091C419.98 105.091 415.353 103.201 412.02 99.4206C408.797 95.9306 407.011 91.3515 407.02 86.6006C406.977 82.2262 408.478 77.9767 411.26 74.6006C412.962 72.4311 415.153 70.6944 417.654 69.5319C420.154 68.3693 422.894 67.8138 425.65 67.9106C428.485 67.8063 431.303 68.3734 433.877 69.5655C436.451 70.7577 438.707 72.5411 440.46 74.7706C443.158 78.2095 444.572 82.4813 444.46 86.8506H411.81C411.753 90.6142 413.192 94.2466 415.81 96.9506C417.06 98.2376 418.562 99.252 420.223 99.9301C421.884 100.608 423.667 100.935 425.46 100.891C427.298 100.895 429.122 100.577 430.85 99.9506C432.477 99.4011 433.989 98.5571 435.31 97.4606C436.896 96.0067 438.249 94.3168 439.32 92.4506ZM439.32 82.9306C438.847 80.8192 437.918 78.8365 436.6 77.1206C435.325 75.5954 433.708 74.3928 431.88 73.6106C429.941 72.7233 427.833 72.2662 425.7 72.2706C422.329 72.2027 419.055 73.3976 416.52 75.6206C414.439 77.6034 412.968 80.1396 412.28 82.9306H439.32Z" fill="white"/>
<path d="M488.37 76.1697L484.67 78.4197C483.151 76.4055 481.167 74.7888 478.887 73.7075C476.608 72.6261 474.101 72.1122 471.58 72.2096C469.564 72.1446 467.554 72.4777 465.667 73.1898C463.779 73.9019 462.051 74.979 460.58 76.3596C459.177 77.6374 458.061 79.1984 457.306 80.9395C456.551 82.6805 456.174 84.5621 456.2 86.4596C456.211 89.0351 456.917 91.5598 458.245 93.7671C459.572 95.9743 461.47 97.7821 463.74 98.9996C466.169 100.273 468.878 100.919 471.62 100.88C474.12 100.928 476.596 100.393 478.853 99.3165C481.11 98.2402 483.084 96.6526 484.62 94.6796L488.32 97.0496C486.56 99.6152 484.142 101.66 481.32 102.97C478.188 104.415 474.769 105.133 471.32 105.07C466.048 105.248 460.919 103.335 457.05 99.7496C455.232 98.1125 453.786 96.1054 452.808 93.8632C451.83 91.621 451.343 89.1956 451.38 86.7496C451.363 83.3856 452.28 80.0828 454.03 77.2096C455.784 74.2944 458.306 71.9178 461.32 70.3396C464.517 68.6645 468.081 67.8154 471.69 67.8696C474.065 67.8594 476.427 68.2204 478.69 68.9396C480.726 69.5582 482.648 70.5039 484.38 71.7396C485.989 72.9386 487.345 74.4442 488.37 76.1697Z" fill="white"/>
<path d="M532.56 76.1693L528.86 78.4193C527.34 76.4065 525.355 74.7907 523.076 73.7095C520.797 72.6283 518.291 72.1136 515.77 72.2093C513.754 72.1449 511.745 72.4782 509.857 73.1903C507.97 73.9023 506.241 74.9791 504.77 76.3593C503.367 77.637 502.251 79.1981 501.496 80.9392C500.741 82.6802 500.364 84.5618 500.39 86.4593C500.4 89.0338 501.105 91.5578 502.43 93.765C503.756 95.9721 505.652 97.7805 507.92 98.9993C510.349 100.272 513.058 100.919 515.8 100.879C518.309 100.935 520.797 100.403 523.064 99.3266C525.332 98.2501 527.317 96.6587 528.86 94.6793L532.56 97.0493C530.796 99.6116 528.379 101.656 525.56 102.969C522.428 104.416 519.009 105.134 515.56 105.069C510.288 105.247 505.159 103.335 501.29 99.7493C499.472 98.1122 498.026 96.1051 497.048 93.8629C496.07 91.6207 495.583 89.1952 495.62 86.7493C495.608 83.386 496.525 80.0846 498.27 77.2093C500.024 74.2941 502.546 71.9175 505.56 70.3393C508.782 68.6713 512.372 67.8392 516 67.9193C518.342 67.9227 520.669 68.287 522.9 68.9993C524.936 69.6179 526.858 70.5636 528.59 71.7993C530.183 72.9861 531.531 74.4701 532.56 76.1693Z" fill="white"/>
<path d="M588 65.2513L584.13 68.1513C582.088 65.5201 579.453 63.4093 576.44 61.9913C573.353 60.57 569.988 59.8527 566.59 59.8913C562.791 59.8642 559.049 60.8109 555.72 62.6413C552.496 64.3462 549.807 66.9111 547.951 70.0514C546.096 73.1916 545.147 76.7845 545.21 80.4313C545.147 83.1556 545.662 85.8624 546.72 88.3735C547.779 90.8847 549.356 93.1435 551.35 95.0013C555.45 98.9013 560.623 100.851 566.87 100.851C570.146 100.905 573.393 100.228 576.375 98.87C579.357 97.5122 581.999 95.5075 584.11 93.0013L587.98 95.8513C585.523 98.8765 582.384 101.275 578.82 102.851C574.964 104.553 570.785 105.403 566.57 105.341C557.99 105.341 551.22 102.555 546.26 96.9813C542.107 92.313 539.871 86.2481 540 80.0013C539.934 76.6907 540.574 73.4039 541.875 70.3591C543.177 67.3144 545.111 64.5813 547.55 62.3413C552.577 57.5613 558.883 55.1713 566.47 55.1713C570.754 55.1053 574.997 56.0113 578.88 57.8213C582.489 59.5031 585.623 62.0565 588 65.2513Z" fill="white"/>
<path d="M622.82 87.1581H601.71V104.158H597.05V68.8281H601.71V82.8281H622.82V68.8281H627.49V104.178H622.82V87.1581Z" fill="white"/>
<path d="M674 68.8312V104.181H669.4V98.1112C667.602 100.305 665.355 102.088 662.81 103.341C660.311 104.526 657.575 105.125 654.81 105.091C652.359 105.094 649.933 104.612 647.669 103.673C645.405 102.735 643.35 101.358 641.62 99.6216C639.89 97.8855 638.521 95.8247 637.591 93.5575C636.661 91.2904 636.188 88.8617 636.2 86.4112C636.165 83.9725 636.636 81.553 637.583 79.3053C638.529 77.0576 639.931 75.0303 641.7 73.3512C643.431 71.5896 645.504 70.1996 647.791 69.2659C650.077 68.3323 652.53 67.8748 655 67.9212C657.803 67.8823 660.574 68.5167 663.08 69.7712C665.604 71.104 667.782 73.0079 669.44 75.3312V68.8312H674ZM655.34 72.3112C652.822 72.2923 650.343 72.9336 648.15 74.1712C645.958 75.41 644.143 77.2212 642.9 79.4112C641.647 81.59 640.988 84.0599 640.99 86.5734C640.993 89.0869 641.655 91.5557 642.912 93.7324C644.169 95.909 645.976 97.7171 648.152 98.9753C650.328 100.233 652.797 100.898 655.31 100.901C657.851 100.902 660.349 100.255 662.57 99.0212C664.774 97.8501 666.603 96.0828 667.85 93.9212C669.098 91.7183 669.737 89.2227 669.7 86.6912C669.734 84.7951 669.386 82.9117 668.676 81.1531C667.967 79.3945 666.911 77.7966 665.571 76.4548C664.231 75.1129 662.634 74.0546 660.877 73.3427C659.119 72.6308 657.236 72.28 655.34 72.3112Z" fill="white"/>
<path d="M719.29 54.4297V58.7897C715.489 59.2763 711.662 59.5368 707.83 59.5697C704.793 59.6194 701.763 59.8733 698.76 60.3297C696.77 60.6553 694.872 61.3982 693.19 62.5097C691.458 63.7598 690.08 65.4378 689.19 67.3797C688.083 69.6702 687.405 72.1445 687.19 74.6797L686.72 79.6797C687.681 76.0624 689.9 72.9066 692.98 70.7797C695.856 68.9003 699.225 67.9155 702.66 67.9497C705.134 67.9179 707.59 68.3775 709.885 69.3018C712.181 70.2261 714.27 71.5967 716.031 73.3342C717.793 75.0717 719.192 77.1415 720.148 79.4238C721.104 81.7061 721.598 84.1553 721.6 86.6297C721.628 89.0504 721.163 91.4514 720.233 93.6864C719.303 95.9214 717.927 97.9436 716.19 99.6297C714.431 101.42 712.321 102.829 709.993 103.768C707.666 104.707 705.169 105.157 702.66 105.09C700.02 105.138 697.4 104.628 694.97 103.594C692.54 102.56 690.356 101.025 688.56 99.0897C684.713 95.0897 682.79 88.7564 682.79 80.0897C682.79 74.0364 683.497 69.4597 684.91 66.3597C685.945 63.7528 687.616 61.4461 689.77 59.6497C691.904 58.1359 694.307 57.043 696.85 56.4297C699.737 55.6497 705.16 55.163 713.12 54.9697C715.185 54.904 717.245 54.7237 719.29 54.4297ZM716.85 86.6997C716.875 84.8179 716.515 82.951 715.791 81.2139C715.066 79.4768 713.994 77.9065 712.64 76.5997C711.346 75.2621 709.796 74.1985 708.082 73.472C706.369 72.7456 704.526 72.3713 702.665 72.3713C700.804 72.3713 698.962 72.7456 697.248 73.472C695.534 74.1985 693.984 75.2621 692.69 76.5997C691.336 77.9065 690.264 79.4768 689.54 81.2139C688.815 82.951 688.455 84.8179 688.48 86.6997C688.43 88.5942 688.759 90.4795 689.45 92.2445C690.14 94.0095 691.177 95.6184 692.499 96.9761C693.821 98.3339 695.402 99.413 697.148 100.15C698.894 100.887 700.77 101.266 702.665 101.266C704.56 101.266 706.436 100.887 708.182 100.15C709.928 99.413 711.509 98.3339 712.831 96.9761C714.153 95.6184 715.19 94.0095 715.88 92.2445C716.571 90.4795 716.9 88.5942 716.85 86.6997Z" fill="white"/>
<path d="M15.55 104.241C14.32 106.171 13.05 108.071 11.88 110.031C8.32 116.031 5.47999 122.261 4.35999 129.191C3.88714 131.801 3.8029 134.467 4.10999 137.101C4.3806 139.009 4.75111 140.902 5.21999 142.771C5.521 143.648 5.90263 144.495 6.35999 145.301C8.62245 149.927 12.2073 153.776 16.66 156.361C23.19 160.361 30.41 162.251 37.95 163.061C49.35 164.281 60.54 162.941 71.61 160.211C80.687 157.937 89.5423 154.854 98.07 151.001C106.027 147.401 113.758 143.32 121.22 138.781C121.66 138.521 122.07 138.211 122.58 137.871L114.25 128.321L160.12 114.881L140.77 158.501C140.48 158.211 140.25 158.001 140.05 157.771C138 155.431 135.94 153.101 133.91 150.771C133.5 150.281 133.21 150.311 132.7 150.631C124.526 155.851 115.929 160.377 107 164.161C95.3807 169.159 83.2037 172.745 70.73 174.841C63.4901 176.082 56.138 176.541 48.8 176.211C39.18 175.731 29.8 173.951 21.1 169.731C15.0004 166.967 9.70932 162.688 5.72999 157.301C1.6143 151.572 -0.350781 144.576 0.179983 137.541C0.685219 131.1 2.52414 124.834 5.57999 119.141C8.25997 114.014 11.4494 109.17 15.1 104.681L15.52 104.191L15.55 104.241Z" fill="white"/>
<path d="M149.6 107.002C150.82 105.072 152.09 103.172 153.26 101.202C156.82 95.2017 159.66 88.9817 160.79 82.0517C161.26 79.4413 161.34 76.7758 161.03 74.1418C160.77 72.2319 160.399 70.3387 159.92 68.4717C159.623 67.5933 159.241 66.746 158.78 65.9417C156.524 61.3097 152.938 57.4555 148.48 54.8717C141.96 50.8717 134.73 48.9917 127.19 48.1817C115.79 46.9517 104.61 48.3017 93.54 51.0317C84.4586 53.3242 75.6001 56.4232 67.07 60.2917C59.1174 63.8911 51.3899 67.9686 43.93 72.5017C43.49 72.7717 43.08 73.0717 42.56 73.4217L50.89 82.9717L5 96.3617L24.35 52.6917C24.64 52.9817 24.87 53.1917 25.07 53.4117C27.12 55.7517 29.18 58.0817 31.2 60.4117C31.62 60.9017 31.91 60.8717 32.41 60.5517C40.6123 55.3212 49.2392 50.7886 58.2 47.0017C69.8171 42.0051 81.9903 38.4163 94.46 36.3117C101.707 35.1013 109.061 34.6622 116.4 35.0017C126.02 35.4917 135.4 37.2617 144.1 41.4917C150.196 44.2535 155.483 48.5291 159.46 53.9117C163.572 59.6347 165.534 66.6248 165 73.6517C164.502 80.093 162.666 86.3596 159.61 92.0517C156.923 97.1772 153.73 102.021 150.08 106.512C149.95 106.682 149.8 106.842 149.66 107.002H149.6Z" fill="white"/>
<path d="M74.3 111.362C63.43 112.162 60.3 111.512 37.16 113.462L135.58 5.26172C134.81 6.72172 101.24 65.2617 84.96 93.0717C100.07 91.8817 102.96 91.1417 122.44 90.0717C89.57 127.492 17.89 208.712 17.89 208.712C17.89 208.712 57.77 139.542 74.3 111.362Z" fill="#36A9E1" stroke="#36A9E1" stroke-width="1.52" stroke-miterlimit="10"/>
</g>
<defs>
<clipPath id="clip0_1729_12775">
<rect width="722" height="210" fill="white"/>
</clipPath>
</defs>
</svg>
