<svg width="24" height="24" viewBox="0 0 24 24" fill="none" xmlns="http://www.w3.org/2000/svg">
<path fill-rule="evenodd" clip-rule="evenodd" d="M3.85039 11.9999C3.85039 7.49878 7.49927 3.8499 12.0004 3.8499C16.5015 3.8499 20.1504 7.49878 20.1504 11.9999C20.1504 12.9507 20.0243 13.7632 19.7031 14.3155C19.4289 14.7871 18.9704 15.1499 18.0004 15.1499C17.6238 15.1499 17.3621 15.007 17.1811 14.7926C16.9881 14.5641 16.8504 14.2064 16.8504 13.7502L16.8504 11.9999V7.9999C16.8504 7.53046 16.4698 7.1499 16.0004 7.1499C15.5309 7.1499 15.1504 7.53046 15.1504 7.9999V8.31196C14.3029 7.58743 13.2028 7.1499 12.0004 7.1499C9.32181 7.1499 7.15039 9.32132 7.15039 11.9999C7.15039 14.6785 9.32181 16.8499 12.0004 16.8499C13.3847 16.8499 14.6336 16.2699 15.5172 15.3397C15.6177 15.5355 15.7392 15.72 15.8822 15.8894C16.3887 16.4892 17.127 16.8499 18.0004 16.8499C19.5304 16.8499 20.5719 16.2032 21.1727 15.1701C21.7265 14.2177 21.8504 13.0303 21.8504 11.9999C21.8504 6.5599 17.4404 2.1499 12.0004 2.1499C6.56039 2.1499 2.15039 6.5599 2.15039 11.9999C2.15039 17.4399 6.56039 21.8499 12.0004 21.8499C13.5714 21.8499 15.0588 21.4815 16.3787 20.8256C16.7991 20.6167 16.9705 20.1065 16.7616 19.6861C16.5527 19.2657 16.0425 19.0943 15.6221 19.3032C14.5321 19.8449 13.3031 20.1499 12.0004 20.1499C7.49927 20.1499 3.85039 16.501 3.85039 11.9999ZM15.1504 11.9999C15.1504 10.2602 13.7401 8.8499 12.0004 8.8499C10.2607 8.8499 8.85039 10.2602 8.85039 11.9999C8.85039 13.7396 10.2607 15.1499 12.0004 15.1499C13.7401 15.1499 15.1504 13.7396 15.1504 11.9999Z" fill="#B5B9BF"/>
</svg>
