<svg width="32" height="32" viewBox="0 0 32 32" fill="none" xmlns="http://www.w3.org/2000/svg">
<path fill-rule="evenodd" clip-rule="evenodd" d="M3.49807 3.13509C3.80639 2.95616 4.18664 2.95489 4.49614 3.13175L8.66667 5.51491L12.8372 3.13175C13.1446 2.95608 13.522 2.95608 13.8295 3.13175L18 5.51491L22.1705 3.13175C22.48 2.95489 22.8603 2.95616 23.1686 3.13509C23.4769 3.31401 23.6667 3.64353 23.6667 4V15H28C28.5523 15 29 15.4477 29 16V25.3333C29 27.3584 27.3584 29 25.3333 29H10.4H10.3572C9.2734 29 8.39925 29 7.69138 28.9422C6.96253 28.8826 6.32234 28.7568 5.73005 28.455C4.78924 27.9757 4.02434 27.2108 3.54497 26.27C3.24318 25.6777 3.11737 25.0375 3.05782 24.3086C2.99998 23.6007 2.99999 22.7266 3 21.6428V21.6428V21.6V4C3 3.64353 3.18976 3.31401 3.49807 3.13509ZM25.3333 27C26.2538 27 27 26.2538 27 25.3333V17H23.6667V25.3333C23.6667 26.2538 24.4129 27 25.3333 27ZM22.0665 27H10.4C9.26339 27 8.47108 26.9992 7.85424 26.9488C7.24907 26.8994 6.90139 26.8072 6.63803 26.673C6.07354 26.3854 5.6146 25.9265 5.32698 25.362C5.1928 25.0986 5.10062 24.7509 5.05118 24.1458C5.00078 23.5289 5 22.7366 5 21.6V5.72318L8.17053 7.53491C8.47796 7.71058 8.85537 7.71058 9.16281 7.53491L13.3333 5.15175L17.5039 7.53491C17.8113 7.71058 18.1887 7.71058 18.4961 7.53491L21.6667 5.72318V16V25.3333C21.6667 25.9335 21.8109 26.5 22.0665 27ZM8.33333 12C8.33333 11.4477 8.78105 11 9.33333 11H14.6667C15.219 11 15.6667 11.4477 15.6667 12C15.6667 12.5523 15.219 13 14.6667 13H9.33333C8.78105 13 8.33333 12.5523 8.33333 12ZM9.33333 16.3333C8.78105 16.3333 8.33333 16.781 8.33333 17.3333C8.33333 17.8856 8.78105 18.3333 9.33333 18.3333H17.3333C17.8856 18.3333 18.3333 17.8856 18.3333 17.3333C18.3333 16.781 17.8856 16.3333 17.3333 16.3333H9.33333ZM8.33333 22.6667C8.33333 22.1144 8.78105 21.6667 9.33333 21.6667H17.3333C17.8856 21.6667 18.3333 22.1144 18.3333 22.6667C18.3333 23.2189 17.8856 23.6667 17.3333 23.6667H9.33333C8.78105 23.6667 8.33333 23.2189 8.33333 22.6667Z" fill="#7BB3FE"/>
</svg>
