<svg width="32" height="32" viewBox="0 0 32 32" fill="none" xmlns="http://www.w3.org/2000/svg">
<path fill-rule="evenodd" clip-rule="evenodd" d="M9.01872 4.20007L9.06654 4.20007H22.9332L22.981 4.20007C24.0605 4.20006 24.9393 4.20005 25.6527 4.25833C26.3898 4.31856 27.0495 4.44661 27.6637 4.75957C28.6296 5.25172 29.4149 6.03702 29.907 7.00292C30.22 7.61714 30.3481 8.27683 30.4083 9.01393C30.4454 9.46809 30.4589 9.98931 30.4638 10.5867C30.4656 10.6131 30.4665 10.6398 30.4665 10.6667C30.4665 10.6882 30.4659 10.7095 30.4648 10.7307C30.4665 11.0301 30.4665 11.3481 30.4665 11.6857V11.7334V20.2667V20.3145C30.4666 21.394 30.4666 22.2728 30.4083 22.9862C30.3481 23.7233 30.22 24.383 29.907 24.9972C29.4149 25.9631 28.6296 26.7484 27.6637 27.2406C27.0495 27.5535 26.3898 27.6816 25.6527 27.7418C24.9393 27.8001 24.0606 27.8001 22.9811 27.8001H22.9332H9.06654H9.01866C7.93919 27.8001 7.0604 27.8001 6.34706 27.7418C5.60996 27.6816 4.95027 27.5535 4.33605 27.2406C3.37015 26.7484 2.58485 25.9631 2.0927 24.9972C1.77974 24.383 1.65169 23.7233 1.59146 22.9862C1.53318 22.2729 1.53319 21.3941 1.5332 20.3146L1.5332 20.2667V11.7334L1.5332 11.6856C1.5332 11.348 1.5332 11.0301 1.53498 10.7306C1.5338 10.7095 1.5332 10.6882 1.5332 10.6667C1.5332 10.6398 1.53414 10.6131 1.53599 10.5867C1.54088 9.98931 1.55436 9.46809 1.59146 9.01393C1.65169 8.27683 1.77974 7.61714 2.0927 7.00292C2.58485 6.03702 3.37015 5.25172 4.33605 4.75957C4.95027 4.44661 5.60996 4.31856 6.34706 4.25833C7.06042 4.20005 7.93922 4.20006 9.01872 4.20007ZM28.1491 9.1985C28.1578 9.30452 28.165 9.41585 28.1709 9.53341H3.8288C3.83476 9.41585 3.84194 9.30452 3.8506 9.1985C3.89937 8.60158 3.98931 8.27339 4.11232 8.03197C4.38716 7.49257 4.8257 7.05403 5.3651 6.77919C5.60652 6.65618 5.93471 6.56624 6.53163 6.51747C7.14179 6.46762 7.92773 6.46674 9.06654 6.46674H22.9332C24.072 6.46674 24.858 6.46762 25.4681 6.51747C26.065 6.56624 26.3932 6.65618 26.6346 6.77919C27.174 7.05403 27.6126 7.49257 27.8874 8.03197C28.0104 8.27339 28.1004 8.60158 28.1491 9.1985ZM3.79987 20.2667V11.8001H28.1999V20.2667C28.1999 21.4055 28.199 22.1915 28.1491 22.8016C28.1004 23.3986 28.0104 23.7268 27.8874 23.9682C27.6126 24.5076 27.174 24.9461 26.6346 25.221C26.3932 25.344 26.065 25.4339 25.4681 25.4827C24.858 25.5325 24.072 25.5334 22.9332 25.5334H9.06654C7.92773 25.5334 7.14179 25.5325 6.53163 25.4827C5.93471 25.4339 5.60652 25.344 5.3651 25.221C4.8257 24.9461 4.38716 24.5076 4.11232 23.9682C3.98931 23.7268 3.89937 23.3986 3.8506 22.8016C3.80075 22.1915 3.79987 21.4055 3.79987 20.2667ZM7.99987 14.8667C7.37395 14.8667 6.86654 15.3741 6.86654 16.0001C6.86654 16.626 7.37395 17.1334 7.99987 17.1334H13.3332C13.9591 17.1334 14.4665 16.626 14.4665 16.0001C14.4665 15.3741 13.9591 14.8667 13.3332 14.8667H7.99987Z" fill="#7BB3FE"/>
</svg>
