<svg width="24" height="24" viewBox="0 0 24 24" fill="none" xmlns="http://www.w3.org/2000/svg">
<path fill-rule="evenodd" clip-rule="evenodd" d="M3.15039 4.00002C3.15039 3.53058 3.53095 3.15002 4.00039 3.15002H8.00039C8.40557 3.15002 8.75442 3.43602 8.83388 3.83333L9.83388 8.83333C9.88962 9.11201 9.80239 9.4001 9.60143 9.60107L6.79389 12.4086C7.3649 13.4368 8.05415 14.3517 8.85143 15.149C9.64872 15.9463 10.5636 16.6355 11.5918 17.2065L14.3994 14.399C14.6003 14.198 14.8884 14.1108 15.1671 14.1665L20.1671 15.1665C20.5644 15.246 20.8504 15.5948 20.8504 16V16.0078V16.0156V16.0235V16.0313V16.0391V16.0469V16.0547V16.0625V16.0703V16.0781V16.086V16.0938V16.1016V16.1094V16.1172V16.125V16.1328V16.1406V16.1485V16.1563V16.1641V16.1719V16.1797V16.1875V16.1953V16.2031V16.211V16.2188V16.2266V16.2344V16.2422V16.25V16.2578V16.2656V16.2735V16.2813V16.2891V16.2969V16.3047V16.3125V16.3203V16.3281V16.336V16.3438V16.3516V16.3594V16.3672V16.375V16.3828V16.3906V16.3985V16.4063V16.4141V16.4219V16.4297V16.4375V16.4453V16.4531V16.461V16.4688V16.4766V16.4844V16.4922V16.5V16.5078V16.5156V16.5235V16.5313V16.5391V16.5469V16.5547V16.5625V16.5703V16.5781V16.586V16.5938V16.6016V16.6094V16.6172V16.625V16.6328V16.6406V16.6485V16.6563V16.6641V16.6719V16.6797V16.6875V16.6953V16.7031V16.711V16.7188V16.7266V16.7344V16.7422V16.75V16.7578V16.7656V16.7735V16.7813V16.7891V16.7969V16.8047V16.8125V16.8203V16.8281V16.836V16.8438V16.8516V16.8594V16.8672V16.875V16.8828V16.8906V16.8985V16.9063V16.9141V16.9219V16.9297V16.9375V16.9453V16.9531V16.961V16.9688V16.9766V16.9844V16.9922V17V17.0078V17.0156V17.0235V17.0313V17.0391V17.0469V17.0547V17.0625V17.0703V17.0781V17.086V17.0938V17.1016V17.1094V17.1172V17.125V17.1328V17.1406V17.1485V17.1563V17.1641V17.1719V17.1797V17.1875V17.1953V17.2031V17.211V17.2188V17.2266V17.2344V17.2422V17.25V17.2578V17.2656V17.2735V17.2813V17.2891V17.2969V17.3047V17.3125V17.3203V17.3281V17.336V17.3438V17.3516V17.3594V17.3672V17.375V17.3828V17.3906V17.3985V17.4063V17.4141V17.4219V17.4297V17.4375V17.4453V17.4531V17.461V17.4688V17.4766V17.4844V17.4922V17.5V17.5078V17.5156V17.5235V17.5313V17.5391V17.5469V17.5547V17.5625V17.5703V17.5781V17.586V17.5938V17.6016V17.6094V17.6172V17.625V17.6328V17.6406V17.6485V17.6563V17.6641V17.6719V17.6797V17.6875V17.6953V17.7031V17.711V17.7188V17.7266V17.7344V17.7422V17.75V17.7578V17.7656V17.7735V17.7813V17.7891V17.7969V17.8047V17.8125V17.8203V17.8281V17.836V17.8438V17.8516V17.8594V17.8672V17.875V17.8828V17.8906V17.8985V17.9063V17.9141V17.9219V17.9297V17.9375V17.9453V17.9531V17.961V17.9688V17.9766V17.9844V17.9922V18V18.0078V18.0156V18.0235V18.0313V18.0391V18.0469V18.0547V18.0625V18.0703V18.0781V18.086V18.0938V18.1016V18.1094V18.1172V18.125V18.1328V18.1406V18.1485V18.1563V18.1641V18.1719V18.1797V18.1875V18.1953V18.2031V18.211V18.2188V18.2266V18.2344V18.2422V18.25V18.2578V18.2656V18.2735V18.2813V18.2891V18.2969V18.3047V18.3125V18.3203V18.3281V18.336V18.3438V18.3516V18.3594V18.3672V18.375V18.3828V18.3906V18.3985V18.4063V18.4141V18.4219V18.4297V18.4375V18.4453V18.4531V18.461V18.4688V18.4766V18.4844V18.4922V18.5V18.5078V18.5156V18.5235V18.5313V18.5391V18.5469V18.5547V18.5625V18.5703V18.5781V18.586V18.5938V18.6016V18.6094V18.6172V18.625V18.6328V18.6406V18.6485V18.6563V18.6641V18.6719V18.6797V18.6875V18.6953V18.7031V18.711V18.7188V18.7266V18.7344V18.7422V18.75V18.7578V18.7656V18.7735V18.7813V18.7891V18.7969V18.8047V18.8125V18.8203V18.8281V18.836V18.8438V18.8516V18.8594V18.8672V18.875V18.8828V18.8906V18.8985V18.9063V18.9141V18.9219V18.9297V18.9375V18.9453V18.9531V18.961V18.9688V18.9766V18.9844V18.9922V19V19.0078V19.0156V19.0235V19.0313V19.0391V19.0469V19.0547V19.0625V19.0703V19.0781V19.086V19.0938V19.1016V19.1094V19.1172V19.125V19.1328V19.1406V19.1485V19.1563V19.1641V19.1719V19.1797V19.1875V19.1953V19.2031V19.211V19.2188V19.2266V19.2344V19.2422V19.25V19.2578V19.2656V19.2735V19.2813V19.2891V19.2969V19.3047V19.3125V19.3203V19.3281V19.336V19.3438V19.3516V19.3594V19.3672V19.375V19.3828V19.3906V19.3985V19.4063V19.4141V19.4219V19.4297V19.4375V19.4453V19.4531V19.461V19.4688V19.4766V19.4844V19.4922V19.5V19.5078V19.5156V19.5235V19.5313V19.5391V19.5469V19.5547V19.5625V19.5703V19.5781V19.586V19.5938V19.6016V19.6094V19.6172V19.625V19.6328V19.6406V19.6485V19.6563V19.6641V19.6719V19.6797V19.6875V19.6953V19.7031V19.711V19.7188V19.7266V19.7344V19.7422V19.75V19.7578V19.7656V19.7735V19.7813V19.7891V19.7969V19.8047V19.8125V19.8203V19.8281V19.836V19.8438V19.8516V19.8594V19.8672V19.875V19.8828V19.8906V19.8985V19.9063V19.9141V19.9219V19.9297V19.9375V19.9453V19.9531V19.961V19.9688V19.9766V19.9844V19.9922V20C20.8504 20.4695 20.4698 20.85 20.0004 20.85C14.83 20.85 10.5938 19.2956 7.64935 16.3511C4.70486 13.4066 3.15039 9.17046 3.15039 4.00002ZM13.2263 17.9762C14.9518 18.6563 16.9315 19.0542 19.1504 19.1348V19.1328V19.125V19.1172V19.1094V19.1016V19.0938V19.086V19.0781V19.0703V19.0625V19.0547V19.0469V19.0391V19.0313V19.0235V19.0156V19.0078V19V18.9922V18.9844V18.9766V18.9688V18.961V18.9531V18.9453V18.9375V18.9297V18.9219V18.9141V18.9063V18.8985V18.8906V18.8828V18.875V18.8672V18.8594V18.8516V18.8438V18.836V18.8281V18.8203V18.8125V18.8047V18.7969V18.7891V18.7813V18.7735V18.7656V18.7578V18.75V18.7422V18.7344V18.7266V18.7188V18.711V18.7031V18.6953V18.6875V18.6797V18.6719V18.6641V18.6563V18.6485V18.6406V18.6328V18.625V18.6172V18.6094V18.6016V18.5938V18.586V18.5781V18.5703V18.5625V18.5547V18.5469V18.5391V18.5313V18.5235V18.5156V18.5078V18.5V18.4922V18.4844V18.4766V18.4688V18.461V18.4531V18.4453V18.4375V18.4297V18.4219V18.4141V18.4063V18.3985V18.3906V18.3828V18.375V18.3672V18.3594V18.3516V18.3438V18.336V18.3281V18.3203V18.3125V18.3047V18.2969V18.2891V18.2813V18.2735V18.2656V18.2578V18.25V18.2422V18.2344V18.2266V18.2188V18.211V18.2031V18.1953V18.1875V18.1797V18.1719V18.1641V18.1563V18.1485V18.1406V18.1328V18.125V18.1172V18.1094V18.1016V18.0938V18.086V18.0781V18.0703V18.0625V18.0547V18.0469V18.0391V18.0313V18.0235V18.0156V18.0078V18V17.9922V17.9844V17.9766V17.9688V17.961V17.9531V17.9453V17.9375V17.9297V17.9219V17.9141V17.9063V17.8985V17.8906V17.8828V17.875V17.8672V17.8594V17.8516V17.8438V17.836V17.8281V17.8203V17.8125V17.8047V17.7969V17.7891V17.7813V17.7735V17.7656V17.7578V17.75V17.7422V17.7344V17.7266V17.7188V17.711V17.7031V17.6953V17.6875V17.6797V17.6719V17.6641V17.6563V17.6485V17.6406V17.6328V17.625V17.6172V17.6094V17.6016V17.5938V17.586V17.5781V17.5703V17.5625V17.5547V17.5469V17.5391V17.5313V17.5235V17.5156V17.5078V17.5V17.4922V17.4844V17.4766V17.4688V17.461V17.4531V17.4453V17.4375V17.4297V17.4219V17.4141V17.4063V17.3985V17.3906V17.3828V17.375V17.3672V17.3594V17.3516V17.3438V17.336V17.3281V17.3203V17.3125V17.3047V17.2969V17.2891V17.2813V17.2735V17.2656V17.2578V17.25V17.2422V17.2344V17.2266V17.2188V17.211V17.2031V17.1953V17.1875V17.1797V17.1719V17.1641V17.1563V17.1485V17.1406V17.1328V17.125V17.1172V17.1094V17.1016V17.0938V17.086V17.0781V17.0703V17.0625V17.0547V17.0469V17.0391V17.0313V17.0235V17.0156V17.0078V17V16.9922V16.9844V16.9766V16.9688V16.961V16.9531V16.9453V16.9375V16.9297V16.9219V16.9141V16.9063V16.8985V16.8906V16.8828V16.875V16.8672V16.8594V16.8516V16.8438V16.836V16.8281V16.8203V16.8125V16.8047V16.7969V16.7891V16.7813V16.7735V16.7656V16.7578V16.75V16.7422V16.7344V16.7266V16.7188V16.711V16.7031V16.6969L15.2798 15.9227L13.2263 17.9762ZM6.02423 10.7741L8.07768 8.72065L7.30356 4.85002H4.86565C4.94618 7.06888 5.34413 9.04857 6.02423 10.7741Z" fill="#B5B9BF"/>
</svg>
