<svg width="24" height="24" viewBox="0 0 24 24" fill="none" xmlns="http://www.w3.org/2000/svg">
<path fill-rule="evenodd" clip-rule="evenodd" d="M4.85039 10.1481C4.85039 7.65727 5.75956 5.85426 7.07087 4.66706C8.39666 3.46675 10.1858 2.8499 12.0004 2.8499C13.815 2.84991 15.6041 3.46677 16.9299 4.66708C18.2412 5.85428 19.1504 7.6573 19.1504 10.1481C19.1504 12.2566 18.3263 14.2 17.1789 15.8812C16.0318 17.562 14.5922 18.9348 13.4437 19.8826C12.5904 20.5867 11.4108 20.5867 10.5575 19.8826C9.40886 18.9348 7.9692 17.562 6.82202 15.8812C5.6745 14.2 4.85039 12.2566 4.85039 10.1481ZM20.8504 10.1481C20.8504 7.20677 19.7596 4.9357 18.0709 3.40684C16.3967 1.89108 14.1858 1.14991 12.0004 1.1499C9.81502 1.1499 7.60413 1.89106 5.92991 3.40682C4.24122 4.93567 3.15039 7.20675 3.15039 10.1481C3.15039 12.7073 4.1497 14.9815 5.4179 16.8396C6.68644 18.6982 8.25483 20.1866 9.4755 21.1938C10.957 22.4163 13.0443 22.4163 14.5257 21.1938C15.7463 20.1865 17.3146 18.6981 18.5831 16.8395C19.8512 14.9815 20.8504 12.7073 20.8504 10.1481ZM9.85039 9.99993C9.85039 8.81252 10.813 7.84993 12.0004 7.84993C13.1878 7.84993 14.1504 8.81252 14.1504 9.99993C14.1504 11.1873 13.1878 12.1499 12.0004 12.1499C10.813 12.1499 9.85039 11.1873 9.85039 9.99993ZM12.0004 6.14993C9.87409 6.14993 8.15039 7.87364 8.15039 9.99993C8.15039 12.1262 9.87409 13.8499 12.0004 13.8499C14.1267 13.8499 15.8504 12.1262 15.8504 9.99993C15.8504 7.87364 14.1267 6.14993 12.0004 6.14993Z" fill="#B5B9BF"/>
</svg>
