<svg width="18" height="19" viewBox="0 0 18 19" fill="none" xmlns="http://www.w3.org/2000/svg">
<path d="M8.25 8.75V6.5C8.25 6.30109 8.32902 6.11032 8.46967 5.96967C8.61032 5.82902 8.80109 5.75 9 5.75C9.19891 5.75 9.38968 5.82902 9.53033 5.96967C9.67098 6.11032 9.75 6.30109 9.75 6.5V12.5C9.75 12.6989 9.67098 12.8897 9.53033 13.0303C9.38968 13.171 9.19891 13.25 9 13.25C8.80109 13.25 8.61032 13.171 8.46967 13.0303C8.32902 12.8897 8.25 12.6989 8.25 12.5V10.25H6C5.80109 10.25 5.61032 10.171 5.46967 10.0303C5.32902 9.88968 5.25 9.69891 5.25 9.5C5.25 9.30109 5.32902 9.11032 5.46967 8.96967C5.61032 8.82902 5.80109 8.75 6 8.75H8.25ZM9 3.5C8.80109 3.5 8.61032 3.42098 8.46967 3.28033C8.32902 3.13968 8.25 2.94891 8.25 2.75C8.25 2.55109 8.32902 2.36032 8.46967 2.21967C8.61032 2.07902 8.80109 2 9 2C13.1423 2 16.5 5.35775 16.5 9.5C16.5 13.6422 13.1423 17 9 17C4.85775 17 1.5 13.6422 1.5 9.5C1.49952 8.14532 1.86607 6.81583 2.56069 5.6528C3.25532 4.48976 4.25206 3.53665 5.445 2.89475C5.62004 2.80027 5.82545 2.77919 6.01603 2.83615C6.20662 2.89312 6.36677 3.02346 6.46125 3.1985C6.55573 3.37354 6.57681 3.57895 6.51985 3.76953C6.46288 3.96012 6.33254 4.12027 6.1575 4.21475C4.8684 4.90746 3.87692 6.04742 3.36962 7.42011C2.86233 8.7928 2.87421 10.3036 3.40302 11.6681C3.93183 13.0326 4.94111 14.1569 6.24094 14.8292C7.54076 15.5016 9.04151 15.6757 10.4608 15.3189C11.88 14.962 13.1199 14.0987 13.9471 12.8915C14.7743 11.6843 15.1318 10.2164 14.9523 8.76403C14.7728 7.31165 14.0687 5.97495 12.9724 5.00547C11.8762 4.036 10.4634 3.50059 9 3.5ZM11.25 10.25C11.0511 10.25 10.8603 10.171 10.7197 10.0303C10.579 9.88968 10.5 9.69891 10.5 9.5C10.5 9.30109 10.579 9.11032 10.7197 8.96967C10.8603 8.82902 11.0511 8.75 11.25 8.75H12C12.1989 8.75 12.3897 8.82902 12.5303 8.96967C12.671 9.11032 12.75 9.30109 12.75 9.5C12.75 9.69891 12.671 9.88968 12.5303 10.0303C12.3897 10.171 12.1989 10.25 12 10.25H11.25Z" fill="#1D2E89"/>
</svg>
