<svg width="16" height="17" viewBox="0 0 16 17" fill="none" xmlns="http://www.w3.org/2000/svg">
<path d="M12.2113 6.71182C12.337 6.59038 12.5054 6.52319 12.6802 6.52471C12.855 6.52622 13.0222 6.59634 13.1458 6.71994C13.2694 6.84355 13.3396 7.01076 13.3411 7.18555C13.3426 7.36035 13.2754 7.52875 13.154 7.65449L8.48729 12.3212C7.85984 12.9486 6.96244 11.9605 7.54455 11.3784C9.10011 9.82286 10.6557 8.26738 12.2113 6.71182ZM6.51396 9.74049C6.57553 9.80531 6.62344 9.88185 6.65483 9.96556C6.68623 10.0493 6.70046 10.1384 6.69669 10.2278C6.69291 10.3171 6.67121 10.4048 6.63288 10.4855C6.59454 10.5663 6.54035 10.6385 6.47352 10.6979C6.4067 10.7573 6.32861 10.8027 6.24391 10.8313C6.1592 10.8599 6.06961 10.8711 5.98046 10.8644C5.89131 10.8577 5.80442 10.8331 5.72496 10.7921C5.64551 10.7511 5.57511 10.6946 5.51796 10.6258L2.85129 7.62582C2.78972 7.561 2.74181 7.48446 2.71041 7.40075C2.67902 7.31703 2.66479 7.22786 2.66856 7.13854C2.67233 7.04921 2.69404 6.96156 2.73237 6.88079C2.77071 6.80002 2.8249 6.72779 2.89173 6.66839C2.95855 6.609 3.03663 6.56365 3.12134 6.53504C3.20605 6.50644 3.29564 6.49516 3.38479 6.50189C3.47394 6.50862 3.56083 6.53321 3.64028 6.5742C3.71974 6.61518 3.79014 6.67174 3.84729 6.74049L6.51396 9.74049Z" fill="#1F2937"/>
</svg>
