<svg width="18" height="18" viewBox="0 0 18 18" fill="none" xmlns="http://www.w3.org/2000/svg">
<path d="M9.75 11.25C9.75 10.8358 9.41422 10.5 9 10.5C8.58579 10.5 8.25 10.8358 8.25 11.25L8.25 15.75C8.25 15.9489 8.32902 16.1397 8.46967 16.2803C8.61032 16.421 8.80109 16.5 9 16.5C13.1423 16.5 16.5 13.1422 16.5 9C16.5 4.85775 13.1423 1.5 9 1.5C4.85775 1.5 1.5 4.85775 1.5 9C1.49984 10.4893 1.94297 11.9449 2.77295 13.1814C3.60292 14.418 4.78217 15.3795 6.1605 15.9435C6.34459 16.0189 6.5511 16.0181 6.73458 15.9412C6.91806 15.8643 7.06349 15.7177 7.13888 15.5336C7.21426 15.3495 7.21343 15.143 7.13657 14.9595C7.0597 14.7761 6.91309 14.6306 6.729 14.5552C5.44094 14.0296 4.37556 13.0727 3.71515 11.8483C3.05473 10.6239 2.84032 9.20799 3.1086 7.84293C3.37688 6.47786 4.11118 5.24844 5.18587 4.36502C6.26055 3.48159 7.60882 2.99907 9 3C10.5252 3.00189 11.9924 3.58445 13.1034 4.62928C14.2145 5.67411 14.886 7.10281 14.9815 8.62498C15.077 10.1471 14.5894 11.6486 13.6176 12.8241C12.6459 13.9996 11.263 14.761 9.75 14.9535L9.75 11.25Z" fill="#AAAAAA"/>
<path fill-rule="evenodd" clip-rule="evenodd" d="M11.25 7.5C11.25 8.74264 10.2426 9.75 9 9.75C7.75736 9.75 6.75 8.74264 6.75 7.5C6.75 6.25736 7.75736 5.25 9 5.25C10.2426 5.25 11.25 6.25736 11.25 7.5ZM9.75 7.5C9.75 7.91421 9.41422 8.25 9 8.25C8.58579 8.25 8.25 7.91421 8.25 7.5C8.25 7.08578 8.58579 6.75 9 6.75C9.41422 6.75 9.75 7.08578 9.75 7.5Z" fill="#AAAAAA"/>
</svg>
