<svg width="15" height="15" viewBox="0 0 15 15" fill="none" xmlns="http://www.w3.org/2000/svg">
<path d="M11.8035 3C10.656 2.073 9.07275 1.5 7.5 1.5C6.31331 1.5 5.15327 1.85189 4.16658 2.51118C3.17988 3.17047 2.41085 4.10754 1.95672 5.2039C1.5026 6.30026 1.38378 7.50666 1.61529 8.67054C1.8468 9.83443 2.41824 10.9035 3.25736 11.7426C4.09647 12.5818 5.16557 13.1532 6.32946 13.3847C7.49334 13.6162 8.69974 13.4974 9.7961 13.0433C10.8925 12.5892 11.8295 11.8201 12.4888 10.8334C13.1481 9.84673 13.5 8.68669 13.5 7.5C13.5 7.30109 13.579 7.11032 13.7197 6.96967C13.8603 6.82902 14.0511 6.75 14.25 6.75C14.4489 6.75 14.6397 6.82902 14.7803 6.96967C14.921 7.11032 15 7.30109 15 7.5C15 11.6423 11.6423 15 7.5 15C3.35775 15 0 11.6423 0 7.5C0 3.35775 3.35775 0 7.5 0C9.41175 0 11.3302 0.687 12.75 1.83675V0.75C12.75 0.551088 12.829 0.360322 12.9697 0.21967C13.1103 0.0790176 13.3011 0 13.5 0C13.6989 0 13.8897 0.0790176 14.0303 0.21967C14.171 0.360322 14.25 0.551088 14.25 0.75V3.75C14.25 3.94891 14.171 4.13968 14.0303 4.28033C13.8897 4.42098 13.6989 4.5 13.5 4.5H10.5C10.3011 4.5 10.1103 4.42098 9.96967 4.28033C9.82902 4.13968 9.75 3.94891 9.75 3.75C9.75 3.55109 9.82902 3.36032 9.96967 3.21967C10.1103 3.07902 10.3011 3 10.5 3H11.8035Z" fill="#1D2E89"/>
</svg>
