<svg width="17" height="17" viewBox="0 0 17 17" fill="none" xmlns="http://www.w3.org/2000/svg">
<path fill-rule="evenodd" clip-rule="evenodd" d="M2.72712 7.7917C2.72712 4.99461 4.99461 2.72712 7.7917 2.72712C10.5888 2.72712 12.8563 4.99461 12.8563 7.7917C12.8563 10.5888 10.5888 12.8563 7.7917 12.8563C4.99461 12.8563 2.72712 10.5888 2.72712 7.7917ZM7.7917 1.52295C4.32956 1.52295 1.52295 4.32956 1.52295 7.7917C1.52295 11.2538 4.32956 14.0604 7.7917 14.0604C9.30595 14.0604 10.6948 13.5236 11.7783 12.6297L13.741 14.5924C13.9761 14.8276 14.3573 14.8276 14.5924 14.5924C14.8276 14.3573 14.8276 13.9761 14.5924 13.741L12.6297 11.7783C13.5236 10.6948 14.0605 9.30595 14.0605 7.7917C14.0605 4.32956 11.2538 1.52295 7.7917 1.52295Z" fill="#1F2937"/>
</svg>
