<svg width="24" height="24" viewBox="0 0 24 24" fill="none" xmlns="http://www.w3.org/2000/svg">
<path fill-rule="evenodd" clip-rule="evenodd" d="M3.85039 10.9999C3.85039 7.05107 7.05155 3.8499 11.0004 3.8499C14.9492 3.8499 18.1504 7.05107 18.1504 10.9999C18.1504 14.9487 14.9492 18.1499 11.0004 18.1499C7.05155 18.1499 3.85039 14.9487 3.85039 10.9999ZM11.0004 2.1499C6.11267 2.1499 2.15039 6.11218 2.15039 10.9999C2.15039 15.8876 6.11267 19.8499 11.0004 19.8499C13.1382 19.8499 15.0989 19.0919 16.6285 17.8301L19.3994 20.6009C19.7313 20.9329 20.2695 20.9329 20.6014 20.6009C20.9334 20.269 20.9334 19.7308 20.6014 19.3989L17.8306 16.628C19.0924 15.0984 19.8504 13.1377 19.8504 10.9999C19.8504 6.11218 15.8881 2.1499 11.0004 2.1499Z" fill="#1F2937"/>
</svg>
