<svg width="24" height="24" viewBox="0 0 24 24" fill="none" xmlns="http://www.w3.org/2000/svg">
<path fill-rule="evenodd" clip-rule="evenodd" d="M3.8499 12C3.8499 7.4989 7.49878 3.85002 11.9999 3.85002C16.501 3.85002 20.1499 7.4989 20.1499 12C20.1499 16.5011 16.501 20.15 11.9999 20.15C7.49878 20.15 3.8499 16.5011 3.8499 12ZM11.9999 2.15002C6.5599 2.15002 2.1499 6.56002 2.1499 12C2.1499 17.44 6.5599 21.85 11.9999 21.85C17.4399 21.85 21.8499 17.44 21.8499 12C21.8499 6.56002 17.4399 2.15002 11.9999 2.15002ZM16.6009 9.60107C16.9329 9.26912 16.9329 8.73093 16.6009 8.39898C16.269 8.06704 15.7308 8.06704 15.3989 8.39898L10.9999 12.7979L9.60094 11.399C9.269 11.067 8.73081 11.067 8.39886 11.399C8.06692 11.7309 8.06692 12.2691 8.39886 12.6011L10.3989 14.6011C10.5583 14.7605 10.7745 14.85 10.9999 14.85C11.2253 14.85 11.4415 14.7605 11.6009 14.6011L16.6009 9.60107Z" fill="#36A9E1"/>
</svg>
