<svg width="12" height="12" viewBox="0 0 18 18" fill="none" xmlns="http://www.w3.org/2000/svg">
<path d="M16 16V13C16 12.7348 16.1054 12.4804 16.2929 12.2929C16.4804 12.1054 16.7348 12 17 12C17.2652 12 17.5196 12.1054 17.7071 12.2929C17.8946 12.4804 18 12.7348 18 13V17C18 17.2652 17.8946 17.5196 17.7071 17.7071C17.5196 17.8946 17.2652 18 17 18H1C0.734784 18 0.48043 17.8946 0.292893 17.7071C0.105357 17.5196 0 17.2652 0 17V13C0 12.7348 0.105357 12.4804 0.292893 12.2929C0.48043 12.1054 0.734784 12 1 12C1.26522 12 1.51957 12.1054 1.70711 12.2929C1.89464 12.4804 2 12.7348 2 13V16H16ZM14.293 6.293C14.4816 6.11084 14.7342 6.01005 14.9964 6.01233C15.2586 6.0146 15.5094 6.11977 15.6948 6.30518C15.8802 6.49059 15.9854 6.7414 15.9877 7.0036C15.99 7.2658 15.8892 7.5184 15.707 7.707L9.707 13.707C9.077 14.337 8 13.891 8 13V1C8 0.734784 8.10536 0.48043 8.29289 0.292893C8.48043 0.105357 8.73478 0 9 0C9.26522 0 9.51957 0.105357 9.70711 0.292893C9.89464 0.48043 10 0.734784 10 1V10.586L14.293 6.293ZM6.268 9.36C6.43026 9.5645 6.50612 9.82436 6.47937 10.084C6.45262 10.3437 6.32537 10.5827 6.12482 10.7498C5.92427 10.9169 5.66631 10.999 5.40606 10.9785C5.14581 10.958 4.90389 10.8365 4.732 10.64L2.232 7.64C2.1442 7.53964 2.07736 7.42274 2.03541 7.29617C1.99346 7.1696 1.97725 7.03591 1.98773 6.90298C1.99821 6.77006 2.03516 6.64056 2.09642 6.52213C2.15769 6.40369 2.24201 6.29871 2.34445 6.21334C2.44689 6.12798 2.56536 6.06396 2.6929 6.02506C2.82044 5.98616 2.95448 5.97316 3.08712 5.98683C3.21976 6.00049 3.34832 6.04055 3.46525 6.10463C3.58219 6.16872 3.68512 6.25554 3.768 6.36L6.268 9.36Z" stroke="#36A9E1" fill="#36A9E1"/>
</svg>
