<svg width="19" height="20" viewBox="0 0 19 20" fill="none" xmlns="http://www.w3.org/2000/svg">
<path d="M15.0417 8.41667H6.33333C6.12337 8.41667 5.92201 8.33326 5.77354 8.18479C5.62507 8.03633 5.54167 7.83496 5.54167 7.625C5.54167 7.41504 5.62507 7.21367 5.77354 7.06521C5.92201 6.91674 6.12337 6.83333 6.33333 6.83333H15.8333C16.0433 6.83333 16.2447 6.91674 16.3931 7.06521C16.5416 7.21367 16.625 7.41504 16.625 7.625V16.3333C16.625 16.5433 16.5416 16.7447 16.3931 16.8931C16.2447 17.0416 16.0433 17.125 15.8333 17.125H3.16667C2.9567 17.125 2.75534 17.0416 2.60687 16.8931C2.45841 16.7447 2.375 16.5433 2.375 16.3333V3.66667C2.375 3.4567 2.45841 3.25534 2.60687 3.10687C2.75534 2.95841 2.9567 2.875 3.16667 2.875H9.5C9.70995 2.87504 9.91128 2.95848 10.0597 3.10696L11.643 4.69029C11.7187 4.76332 11.779 4.85068 11.8205 4.94726C11.8619 5.04385 11.8838 5.14773 11.8847 5.25285C11.8856 5.35797 11.8656 5.46221 11.8258 5.55951C11.786 5.6568 11.7272 5.74519 11.6529 5.81952C11.5785 5.89385 11.4901 5.95264 11.3928 5.99244C11.2955 6.03225 11.1913 6.05228 11.0862 6.05136C10.9811 6.05045 10.8772 6.02861 10.7806 5.98712C10.684 5.94563 10.5967 5.88532 10.5236 5.80971L9.17225 4.45833H3.95833V15.5417H15.0417V8.41667Z" fill="white"/>
</svg>
