<svg width="24" height="24" viewBox="0 0 24 24" fill="none" xmlns="http://www.w3.org/2000/svg">
<path d="M14.52 10.107L15.53 11.117L19.29 12.266C19.471 12.3211 19.6328 12.4265 19.7563 12.5699C19.8799 12.7133 19.9602 12.8888 19.988 13.076L20.989 19.854C21.0099 19.9961 21 20.141 20.96 20.279C20.9199 20.4169 20.8506 20.5446 20.7567 20.6533C20.6629 20.7621 20.5467 20.8493 20.4161 20.9092C20.2855 20.969 20.1436 21 20 21H4.00496C3.86134 21.0001 3.71938 20.9692 3.58875 20.9095C3.45812 20.8498 3.34188 20.7627 3.24794 20.654C3.15401 20.5454 3.08457 20.4178 3.04437 20.2799C3.00417 20.142 2.99414 19.9971 3.01496 19.855L4.01096 13.077C4.03637 12.905 4.10617 12.7426 4.21349 12.6058C4.32082 12.469 4.46195 12.3626 4.62296 12.297L7.62296 11.074C7.86733 10.9801 8.13876 10.9858 8.37897 11.0899C8.61919 11.1939 8.80903 11.388 8.90774 11.6304C9.00645 11.8729 9.00615 12.1444 8.90691 12.3866C8.80767 12.6288 8.6174 12.8225 8.37696 12.926L5.90696 13.933L5.16196 19H18.84L18.1 13.994L14.706 12.956C14.5493 12.9082 14.4068 12.8227 14.291 12.707L12.547 10.963C11.5892 11.0955 10.6158 10.8766 9.80701 10.3468C8.99819 9.81696 8.40866 9.01211 8.1475 8.08115C7.88633 7.15019 7.97122 6.15614 8.38645 5.28294C8.80168 4.40975 9.51915 3.71651 10.4061 3.33151C11.293 2.94651 12.2894 2.8958 13.2109 3.18878C14.1323 3.48176 14.9164 4.09859 15.4182 4.92512C15.9199 5.75166 16.1052 6.73196 15.9399 7.68462C15.7746 8.63728 15.2698 9.49782 14.519 10.107H14.52ZM12 9C12.5304 9 13.0391 8.78928 13.4142 8.41421C13.7892 8.03914 14 7.53043 14 7C14 6.46957 13.7892 5.96086 13.4142 5.58578C13.0391 5.21071 12.5304 5 12 5C11.4695 5 10.9608 5.21071 10.5857 5.58578C10.2107 5.96086 9.99996 6.46957 9.99996 7C9.99996 7.53043 10.2107 8.03914 10.5857 8.41421C10.9608 8.78928 11.4695 9 12 9Z" fill="black"/>
</svg>
