<svg width="960" height="360" viewBox="0 0 960 360" fill="none" xmlns="http://www.w3.org/2000/svg">
<path d="M187.167 199.48L187.166 8.51959L881.321 35.1663L881.331 35.1667L881.34 35.1667C903.013 35.1667 922.551 39.2387 936.66 49.8507C950.743 60.4425 959.5 77.6117 959.5 104C959.5 130.388 950.743 147.557 936.66 158.149C922.551 168.761 903.013 172.833 881.34 172.833L881.331 172.833L881.321 172.834L187.167 199.48Z" fill="#E1EDF2" stroke="#A3CEE3"/>
<path d="M188 8.5C200.588 8.5 212.127 19.0115 220.549 36.3363C228.954 53.6271 234.167 77.5492 234.167 104C234.167 130.451 228.954 154.373 220.549 171.664C212.127 188.988 200.588 199.5 188 199.5C175.412 199.5 163.873 188.988 155.452 171.664C147.046 154.373 141.833 130.451 141.833 104C141.833 77.5492 147.046 53.6271 155.452 36.3363C163.873 19.0115 175.412 8.5 188 8.5Z" fill="#D2EAF7" stroke="#A3CEE3"/>
<mask id="path-3-inside-1" fill="white">
<path fill-rule="evenodd" clip-rule="evenodd" d="M12.8101 27.1977L12.8101 73.8408L182.499 73.8408C182.501 73.8408 182.504 73.8408 182.507 73.8408C182.507 73.8408 182.507 73.8408 182.507 73.8408C189.298 73.8405 194.804 63.3992 194.804 50.5193C194.804 37.6393 189.298 27.198 182.507 27.1977C182.507 27.1977 182.507 27.1977 182.507 27.1977L12.8101 27.1977Z"/>
</mask>
<path fill-rule="evenodd" clip-rule="evenodd" d="M12.8101 27.1977L12.8101 73.8408L182.499 73.8408C182.501 73.8408 182.504 73.8408 182.507 73.8408C182.507 73.8408 182.507 73.8408 182.507 73.8408C189.298 73.8405 194.804 63.3992 194.804 50.5193C194.804 37.6393 189.298 27.198 182.507 27.1977C182.507 27.1977 182.507 27.1977 182.507 27.1977L12.8101 27.1977Z" fill="#C7E1F0"/>
<path d="M12.8101 73.8408L11.8101 73.8408L11.8101 74.8408L12.8101 74.8408L12.8101 73.8408ZM12.8101 27.1977L12.8101 26.1977L11.8101 26.1977L11.8101 27.1977L12.8101 27.1977ZM182.499 73.8408L182.5 72.8408L182.499 72.8408L182.499 73.8408ZM182.507 73.8408L182.507 74.8408L182.507 74.8408L182.507 73.8408ZM182.507 27.1977L182.507 26.1977L182.507 26.1977L182.507 27.1977ZM182.507 27.1977L182.507 28.1977L182.507 27.1977ZM13.8101 73.8408L13.8101 27.1977L11.8101 27.1977L11.8101 73.8408L13.8101 73.8408ZM182.499 72.8408L12.8101 72.8408L12.8101 74.8408L182.499 74.8408L182.499 72.8408ZM182.507 72.8408C182.504 72.8408 182.502 72.8408 182.5 72.8408L182.497 74.8408C182.5 74.8408 182.504 74.8408 182.507 74.8408L182.507 72.8408ZM182.507 72.8408C182.498 72.8408 182.491 72.8409 182.487 72.841C182.485 72.841 182.484 72.8411 182.483 72.8411C182.482 72.8411 182.482 72.8411 182.482 72.8411C182.482 72.8411 182.482 72.8411 182.481 72.8411C182.481 72.8411 182.481 72.8411 182.481 72.8411C182.481 72.8411 182.481 72.8411 182.481 72.8411C182.481 72.8411 182.481 72.8411 182.481 72.8411C182.481 72.8412 182.484 72.8411 182.487 72.841C182.491 72.8409 182.498 72.8408 182.507 72.8408L182.507 74.8408C182.516 74.8408 182.523 74.8407 182.526 74.8406C182.528 74.8406 182.53 74.8405 182.531 74.8405C182.531 74.8405 182.532 74.8405 182.532 74.8405C182.532 74.8405 182.532 74.8405 182.532 74.8405C182.532 74.8405 182.532 74.8405 182.532 74.8405C182.532 74.8405 182.532 74.8405 182.532 74.8405C182.532 74.8405 182.532 74.8405 182.532 74.8405C182.533 74.8405 182.53 74.8406 182.526 74.8406C182.523 74.8407 182.516 74.8408 182.507 74.8408L182.507 72.8408ZM193.804 50.5193C193.804 56.83 192.453 62.4938 190.317 66.5435C188.158 70.639 185.348 72.8407 182.507 72.8408L182.507 74.8408C186.458 74.8406 189.795 71.8216 192.087 67.4763C194.402 63.0853 195.804 57.0885 195.804 50.5193L193.804 50.5193ZM182.507 28.1977C185.348 28.1979 188.158 30.3996 190.317 34.495C192.453 38.5448 193.804 44.2085 193.804 50.5193L195.804 50.5193C195.804 43.9501 194.402 37.9532 192.087 33.5622C189.795 29.217 186.458 26.1979 182.507 26.1977L182.507 28.1977ZM182.507 28.1977C182.513 28.1977 182.519 28.1977 182.521 28.1976C182.523 28.1976 182.524 28.1976 182.525 28.1976C182.525 28.1976 182.526 28.1976 182.526 28.1976C182.526 28.1976 182.526 28.1976 182.526 28.1976C182.526 28.1976 182.526 28.1976 182.526 28.1976C182.526 28.1976 182.526 28.1976 182.526 28.1976C182.526 28.1976 182.524 28.1976 182.522 28.1976C182.519 28.1977 182.514 28.1977 182.507 28.1977L182.507 26.1977C182.5 26.1977 182.495 26.1978 182.492 26.1978C182.491 26.1979 182.489 26.1979 182.489 26.1979C182.488 26.1979 182.488 26.1979 182.488 26.1979C182.488 26.1979 182.488 26.1979 182.488 26.1979C182.488 26.1979 182.488 26.1979 182.488 26.1979C182.488 26.1979 182.488 26.1979 182.488 26.1979C182.487 26.1979 182.489 26.1979 182.492 26.1979C182.495 26.1978 182.5 26.1977 182.507 26.1977L182.507 28.1977ZM12.8101 28.1977L182.507 28.1977L182.507 26.1977L12.8101 26.1977L12.8101 28.1977Z" fill="#A3CEE3" mask="url(#path-3-inside-1)"/>
<path d="M12 27.1665C15.0223 27.1665 17.8931 29.6296 20.0381 33.9195C22.1681 38.1796 23.5 44.0999 23.5 50.6665C23.5 57.2331 22.1681 63.1534 20.0381 67.4135C17.8931 71.7035 15.0223 74.1665 12 74.1665C8.97771 74.1665 6.10693 71.7035 3.96193 67.4135C1.83189 63.1534 0.499999 57.2331 0.499999 50.6665C0.499998 44.0999 1.83189 38.1796 3.96193 33.9195C6.10693 29.6296 8.9777 27.1665 12 27.1665Z" fill="#E1EDF2" stroke="#A3CEE3"/>
<mask id="path-6-inside-2" fill="white">
<path fill-rule="evenodd" clip-rule="evenodd" d="M12.8101 133.205L12.8101 179.848L182.499 179.848C182.501 179.848 182.504 179.848 182.507 179.848C182.507 179.848 182.507 179.848 182.507 179.848C189.298 179.847 194.804 169.406 194.804 156.526C194.804 143.646 189.298 133.205 182.507 133.205C182.507 133.205 182.507 133.205 182.507 133.205L12.8101 133.205Z"/>
</mask>
<path fill-rule="evenodd" clip-rule="evenodd" d="M12.8101 133.205L12.8101 179.848L182.499 179.848C182.501 179.848 182.504 179.848 182.507 179.848C182.507 179.848 182.507 179.848 182.507 179.848C189.298 179.847 194.804 169.406 194.804 156.526C194.804 143.646 189.298 133.205 182.507 133.205C182.507 133.205 182.507 133.205 182.507 133.205L12.8101 133.205Z" fill="#C7E1F0"/>
<path d="M12.8101 179.848L11.8101 179.848L11.8101 180.848L12.8101 180.848L12.8101 179.848ZM12.8101 133.205L12.8101 132.205L11.8101 132.205L11.8101 133.205L12.8101 133.205ZM182.499 179.848L182.5 178.848L182.499 178.848L182.499 179.848ZM182.507 179.848L182.507 180.848L182.507 180.848L182.507 179.848ZM182.507 133.205L182.507 132.205L182.507 132.205L182.507 133.205ZM182.507 133.205L182.507 134.205L182.507 133.205ZM13.8101 179.848L13.8101 133.205L11.8101 133.205L11.8101 179.848L13.8101 179.848ZM182.499 178.848L12.8101 178.848L12.8101 180.848L182.499 180.848L182.499 178.848ZM182.507 178.848C182.504 178.848 182.502 178.848 182.5 178.848L182.497 180.848C182.5 180.848 182.504 180.848 182.507 180.848L182.507 178.848ZM182.507 178.848C182.498 178.848 182.491 178.848 182.487 178.848C182.485 178.848 182.484 178.848 182.483 178.848C182.482 178.848 182.482 178.848 182.482 178.848C182.482 178.848 182.482 178.848 182.481 178.848C182.481 178.848 182.481 178.848 182.481 178.848C182.481 178.848 182.481 178.848 182.481 178.848C182.481 178.848 182.481 178.848 182.481 178.848C182.481 178.848 182.484 178.848 182.487 178.848C182.491 178.848 182.498 178.848 182.507 178.848L182.507 180.848C182.516 180.848 182.523 180.848 182.526 180.847C182.528 180.847 182.53 180.847 182.531 180.847C182.531 180.847 182.532 180.847 182.532 180.847C182.532 180.847 182.532 180.847 182.532 180.847C182.532 180.847 182.532 180.847 182.532 180.847C182.532 180.847 182.532 180.847 182.532 180.847C182.532 180.847 182.532 180.847 182.532 180.847C182.533 180.847 182.53 180.847 182.526 180.847C182.523 180.848 182.516 180.848 182.507 180.848L182.507 178.848ZM193.804 156.526C193.804 162.837 192.453 168.501 190.317 172.55C188.158 176.646 185.348 178.848 182.507 178.848L182.507 180.848C186.458 180.847 189.795 177.828 192.087 173.483C194.402 169.092 195.804 163.095 195.804 156.526L193.804 156.526ZM182.507 134.205C185.348 134.205 188.158 136.406 190.317 140.502C192.453 144.552 193.804 150.215 193.804 156.526L195.804 156.526C195.804 149.957 194.402 143.96 192.087 139.569C189.795 135.224 186.458 132.205 182.507 132.205L182.507 134.205ZM182.507 134.205C182.507 134.205 182.507 134.205 182.507 134.205C182.507 134.205 182.507 134.205 182.507 134.205C182.507 134.205 182.507 134.205 182.507 134.205C182.507 134.205 182.507 134.205 182.507 134.205C182.507 134.205 182.507 134.205 182.507 134.205L182.507 134.205C182.507 134.205 182.507 134.205 182.507 134.205L182.507 134.205C182.507 134.205 182.507 134.205 182.507 134.205C182.507 134.205 182.507 134.205 182.507 134.205C182.507 134.205 182.507 134.205 182.507 134.205L182.507 134.205C182.507 134.205 182.507 134.205 182.507 134.205L182.507 134.205C182.507 134.205 182.507 134.205 182.507 134.205C182.507 134.205 182.507 134.205 182.507 134.205C182.507 134.205 182.507 134.205 182.507 134.205C182.507 134.205 182.507 134.205 182.507 134.205C182.507 134.205 182.507 134.205 182.507 134.205L182.507 132.205C182.507 132.205 182.507 132.205 182.507 132.205C182.507 132.205 182.507 132.205 182.507 132.205C182.507 132.205 182.507 132.205 182.507 132.205C182.507 132.205 182.507 132.205 182.507 132.205C182.507 132.205 182.507 132.205 182.507 132.205L182.507 132.205C182.507 132.205 182.507 132.205 182.507 132.205L182.507 132.205C182.507 132.205 182.507 132.205 182.507 132.205C182.507 132.205 182.507 132.205 182.507 132.205C182.507 132.205 182.507 132.205 182.507 132.205L182.507 132.205C182.507 132.205 182.507 132.205 182.507 132.205L182.507 132.205C182.507 132.205 182.507 132.205 182.507 132.205C182.507 132.205 182.507 132.205 182.507 132.205C182.507 132.205 182.507 132.205 182.507 132.205C182.507 132.205 182.507 132.205 182.507 132.205C182.507 132.205 182.507 132.205 182.507 132.205L182.507 134.205ZM12.8101 134.205L182.507 134.205L182.507 132.205L12.8101 132.205L12.8101 134.205Z" fill="#A3CEE3" mask="url(#path-6-inside-2)"/>
<path d="M12 133.833C15.0372 133.833 17.9052 136.167 20.0434 140.206C22.1697 144.222 23.5 149.806 23.5 156C23.5 162.194 22.1697 167.777 20.0434 171.794C17.9052 175.832 15.0372 178.167 12 178.167C8.96276 178.167 6.09478 175.832 3.95661 171.794C1.83029 167.777 0.499999 162.194 0.499999 156C0.499998 149.806 1.83029 144.222 3.95661 140.206C6.09477 136.167 8.96276 133.833 12 133.833Z" fill="#E1EDF2" stroke="#A3CEE3"/>
<mask id="path-9-inside-3" fill="white">
<path fill-rule="evenodd" clip-rule="evenodd" d="M41.6665 80.2007L41.6665 126.844L211.352 126.844C211.355 126.844 211.359 126.844 211.362 126.844C218.153 126.844 223.659 116.402 223.659 103.522C223.659 90.6431 218.154 80.2023 211.363 80.2007L41.6665 80.2007Z"/>
</mask>
<path fill-rule="evenodd" clip-rule="evenodd" d="M41.6665 80.2007L41.6665 126.844L211.352 126.844C211.355 126.844 211.359 126.844 211.362 126.844C218.153 126.844 223.659 116.402 223.659 103.522C223.659 90.6431 218.154 80.2023 211.363 80.2007L41.6665 80.2007Z" fill="#C7E1F0"/>
<path d="M41.6665 126.844L40.6665 126.844L40.6665 127.844L41.6665 127.844L41.6665 126.844ZM41.6665 80.2007L41.6665 79.2007L40.6665 79.2007L40.6665 80.2007L41.6665 80.2007ZM211.352 126.844L211.354 125.844L211.352 125.844L211.352 126.844ZM211.363 80.2007L211.364 79.2007L211.363 79.2007L211.363 80.2007ZM42.6665 126.844L42.6665 80.2007L40.6665 80.2007L40.6665 126.844L42.6665 126.844ZM211.352 125.844L41.6665 125.844L41.6665 127.844L211.352 127.844L211.352 125.844ZM211.362 125.844C211.359 125.844 211.356 125.844 211.354 125.844L211.351 127.844C211.354 127.844 211.358 127.844 211.362 127.844L211.362 125.844ZM222.659 103.522C222.659 109.833 221.308 115.497 219.172 119.547C217.013 123.642 214.202 125.844 211.362 125.844L211.362 127.844C215.313 127.844 218.65 124.825 220.942 120.479C223.257 116.088 224.659 110.091 224.659 103.522L222.659 103.522ZM211.363 81.2007C214.204 81.2013 217.014 83.4033 219.173 87.4987C221.308 91.5484 222.659 97.2118 222.659 103.522L224.659 103.522C224.659 96.9535 223.257 90.9569 220.942 86.566C218.651 82.2208 215.314 79.2016 211.364 79.2007L211.363 81.2007ZM41.6665 81.2007L211.363 81.2007L211.363 79.2007L41.6665 79.2007L41.6665 81.2007Z" fill="#A3CEE3" mask="url(#path-9-inside-3)"/>
<path d="M41.3335 80.5C44.3558 80.5 47.2266 82.9631 49.3716 87.253C51.5016 91.5131 52.8335 97.4334 52.8335 104C52.8335 110.567 51.5016 116.487 49.3716 120.747C47.2266 125.037 44.3558 127.5 41.3335 127.5C38.3112 127.5 35.4404 125.037 33.2954 120.747C31.1654 116.487 29.8335 110.567 29.8335 104C29.8335 97.4334 31.1654 91.5131 33.2954 87.253C35.4404 82.9631 38.3112 80.5 41.3335 80.5Z" fill="#E1EDF2" stroke="#A3CEE3"/>
</svg>
