<svg width="63" height="63" viewBox="0 0 63 63" fill="none" xmlns="http://www.w3.org/2000/svg">
<g clip-path="url(#clip0_58_73)">
<path opacity="0.951" fill-rule="evenodd" clip-rule="evenodd" d="M28.9775 -0.0615234C30.618 -0.0615234 32.2588 -0.0615234 33.8993 -0.0615234C41.9498 0.998923 48.1637 4.93642 52.5409 11.751C55.3887 16.5973 56.4552 21.8064 55.7402 27.3779C55.0465 30.4062 53.9391 33.2773 52.4179 35.9912C50.1154 39.8922 47.5726 43.6247 44.789 47.1885C41.9999 50.6338 39.2109 54.0791 36.4218 57.5244C35.2132 59.0392 34.0648 60.5979 32.9765 62.2002C32.7226 62.4751 32.4561 62.7212 32.1767 62.9385C31.7666 62.9385 31.3563 62.9385 30.9462 62.9385C26.4587 57.4148 21.9675 51.8777 17.4726 46.3271C14.1157 42.1448 11.2446 37.633 8.8593 32.792C6.27995 27.1105 6.15691 21.3683 8.49016 15.5654C11.458 8.33187 16.6464 3.47152 24.0556 0.984375C25.6878 0.514577 27.3285 0.165943 28.9775 -0.0615234ZM31.3154 2.8916C40.5392 3.32373 47.1633 7.67138 51.1874 15.9346C53.5807 21.2544 53.5397 26.5454 51.0644 31.8076C49.7742 34.4715 48.2977 37.0145 46.6347 39.4365C45.2812 41.2822 43.9277 43.1279 42.5741 44.9736C38.8799 49.5496 35.2089 54.1433 31.5614 58.7549C27.7069 54.0589 23.8719 49.3422 20.0566 44.6045C17.5673 41.3762 15.2704 38.0129 13.1659 34.5146C8.34337 25.9575 9.04064 17.8774 15.2577 10.2744C19.575 5.56259 24.9275 3.10166 31.3154 2.8916Z" fill="white"/>
<path opacity="0.953" fill-rule="evenodd" clip-rule="evenodd" d="M30.4554 11.3749C35.8096 11.2309 39.7676 13.4867 42.3295 18.1425C44.3537 22.921 43.7794 27.3507 40.6068 31.4315C36.4006 35.6567 31.5402 36.6205 26.0257 34.3231C20.9711 31.412 18.8178 27.0438 19.5658 21.2186C21.0022 15.4955 24.6321 12.2142 30.4554 11.3749ZM30.4554 14.5741C27.2312 15.0071 24.8318 16.6477 23.2572 19.496C21.4753 24.362 22.6853 28.2789 26.8871 31.247C31.2189 33.3747 35.0538 32.6979 38.392 29.2167C40.8141 25.8112 41.0602 22.2429 39.1302 18.5116C36.9804 15.6226 34.0888 14.3101 30.4554 14.5741Z" fill="white"/>
</g>
<defs>
<clipPath id="clip0_58_73">
<rect width="63" height="63" fill="white"/>
</clipPath>
</defs>
</svg>
