<?xml version="1.0" encoding="utf-8"?>
<svg xmlns="http://www.w3.org/2000/svg" xmlns:xlink="http://www.w3.org/1999/xlink">
    <symbol viewBox="0 0 24 24" id="arrow-right" xmlns="http://www.w3.org/2000/svg">
        <path d="M17.586 11l-5.293-5.293a1 1 0 111.414-1.414l7 7c.63.63.184 1.707-.707 1.707H4a1 1 0 110-2h13.586zm-.75 3.253a1 1 0 111.328 1.494l-4.5 4a.999.999 0 11-1.328-1.494l4.5-4z"/><defs><linearGradient id="apaint0_linear" x1="3" y1="20.022" x2="22.21" y2="18.413" gradientUnits="userSpaceOnUse">
        <stop offset=".03" stop-color="#F7BB11"/><stop offset="1" stop-color="#F1971E"/></linearGradient></defs>
    </symbol>
    <symbol width="24" height="24" viewBox="0 0 24 24" id="pag-arrow-right" xmlns="http://www.w3.org/2000/svg">
        <path fill-rule="evenodd" clip-rule="evenodd" d="M12.3994 5.39886C12.7313 5.06692 13.2695 5.06692 13.6014 5.39886L19.6014 11.3989C19.9334 11.7308 19.9334 12.269 19.6014 12.6009L13.6014 18.6009C13.2695 18.9329 12.7313 18.9329 12.3994 18.6009C12.0674 18.269 12.0674 17.7308 12.3994 17.3989L16.9483 12.8499H5.00039C4.53095 12.8499 4.15039 12.4693 4.15039 11.9999C4.15039 11.5305 4.53095 11.1499 5.00039 11.1499H16.9483L12.3994 6.60094C12.0674 6.269 12.0674 5.73081 12.3994 5.39886Z"/>
    </symbol>

    <symbol width="14" height="14" viewBox="0 0 14 14" id="cart-delete" xmlns="http://www.w3.org/2000/svg">
        <path fill-rule="evenodd" clip-rule="evenodd" d="M0.248959 0.39935C0.580905 0.0674042 1.1191 0.0674042 1.45104 0.39935L6.85 5.79831L12.249 0.39935C12.5809 0.0674042 13.1191 0.0674042 13.451 0.39935C13.783 0.731296 13.783 1.26949 13.451 1.60143L8.05208 7.00039L13.451 12.3994C13.783 12.7313 13.783 13.2695 13.451 13.6014C13.1191 13.9334 12.5809 13.9334 12.249 13.6014L6.85 8.20247L1.45104 13.6014C1.1191 13.9334 0.580905 13.9334 0.248959 13.6014C-0.0829864 13.2695 -0.0829864 12.7313 0.248959 12.3994L5.64792 7.00039L0.248959 1.60143C-0.0829864 1.26949 -0.0829864 0.731296 0.248959 0.39935Z"/>
    </symbol>

    <symbol width="24" height="25" viewBox="0 0 24 25" id="edit-incom" xmlns="http://www.w3.org/2000/svg">
        <path d="M14.793 12.2928C14.9816 12.1106 15.2342 12.0098 15.4964 12.0121C15.7586 12.0144 16.0094 12.1196 16.1948 12.305C16.3802 12.4904 16.4854 12.7412 16.4877 13.0034C16.49 13.2656 16.3892 13.5182 16.207 13.7068L8.707 21.2068C8.51951 21.3943 8.26519 21.4997 8 21.4998H4C3.73478 21.4998 3.48043 21.3944 3.29289 21.2069C3.10536 21.0194 3 20.765 3 20.4998V16.4998C3.00006 16.2346 3.10545 15.9803 3.293 15.7928L16.293 2.79279C16.4805 2.60532 16.7348 2.5 17 2.5C17.2652 2.5 17.5195 2.60532 17.707 2.79279L21.707 6.79279C21.8945 6.98031 21.9998 7.23462 21.9998 7.49979C21.9998 7.76495 21.8945 8.01926 21.707 8.20679L18.707 11.2068C18.5195 11.3943 18.2652 11.4996 18 11.4996C17.7348 11.4996 17.4805 11.3943 17.293 11.2068L15.293 9.20679C15.1975 9.11454 15.1213 9.00419 15.0689 8.88219C15.0165 8.76019 14.9889 8.62897 14.9877 8.49619C14.9866 8.36341 15.0119 8.23173 15.0622 8.10883C15.1125 7.98594 15.1867 7.87428 15.2806 7.78039C15.3745 7.6865 15.4861 7.61225 15.609 7.56196C15.7319 7.51168 15.8636 7.48638 15.9964 7.48754C16.1292 7.48869 16.2604 7.51628 16.3824 7.56869C16.5044 7.62109 16.6148 7.69728 16.707 7.79279L18 9.08579L19.586 7.49979L17 4.91379L5 16.9138V19.4998H7.586L14.793 12.2928Z"/>
    </symbol>

    <symbol width="19" height="20" viewBox="0 0 19 20"  id="file" xmlns="http://www.w3.org/2000/svg">
        <path d="M15.0417 8.41667H6.33333C6.12337 8.41667 5.92201 8.33326 5.77354 8.18479C5.62507 8.03633 5.54167 7.83496 5.54167 7.625C5.54167 7.41504 5.62507 7.21367 5.77354 7.06521C5.92201 6.91674 6.12337 6.83333 6.33333 6.83333H15.8333C16.0433 6.83333 16.2447 6.91674 16.3931 7.06521C16.5416 7.21367 16.625 7.41504 16.625 7.625V16.3333C16.625 16.5433 16.5416 16.7447 16.3931 16.8931C16.2447 17.0416 16.0433 17.125 15.8333 17.125H3.16667C2.9567 17.125 2.75534 17.0416 2.60687 16.8931C2.45841 16.7447 2.375 16.5433 2.375 16.3333V3.66667C2.375 3.4567 2.45841 3.25534 2.60687 3.10687C2.75534 2.95841 2.9567 2.875 3.16667 2.875H9.5C9.70995 2.87504 9.91128 2.95848 10.0597 3.10696L11.643 4.69029C11.7187 4.76332 11.779 4.85068 11.8205 4.94726C11.8619 5.04385 11.8838 5.14773 11.8847 5.25285C11.8856 5.35797 11.8656 5.46221 11.8258 5.55951C11.786 5.6568 11.7272 5.74519 11.6529 5.81952C11.5785 5.89385 11.4901 5.95264 11.3928 5.99244C11.2955 6.03225 11.1913 6.05228 11.0862 6.05136C10.9811 6.05045 10.8772 6.02861 10.7806 5.98712C10.684 5.94563 10.5967 5.88532 10.5236 5.80971L9.17225 4.45833H3.95833V15.5417H15.0417V8.41667Z"/>
    </symbol>

    <symbol width="24" height="24" viewBox="0 0 24 24" id="pag-arrow-left" xmlns="http://www.w3.org/2000/svg">
        <path fill-rule="evenodd" clip-rule="evenodd" d="M11.6014 5.39886C11.9334 5.73081 11.9334 6.269 11.6014 6.60094L7.05247 11.1499H19.0004C19.4698 11.1499 19.8504 11.5305 19.8504 11.9999C19.8504 12.4693 19.4698 12.8499 19.0004 12.8499H7.05247L11.6014 17.3989C11.9334 17.7308 11.9334 18.269 11.6014 18.6009C11.2695 18.9329 10.7313 18.9329 10.3993 18.6009L4.39935 12.6009C4.0674 12.269 4.0674 11.7308 4.39935 11.3989L10.3993 5.39886C10.7313 5.06692 11.2695 5.06692 11.6014 5.39886Z"/>
    </symbol>

    <symbol width="15" height="15" viewBox="0 0 15 15"  id="reload" xmlns="http://www.w3.org/2000/svg">
        <path d="M11.8035 3C10.656 2.073 9.07275 1.5 7.5 1.5C6.31331 1.5 5.15327 1.85189 4.16658 2.51118C3.17988 3.17047 2.41085 4.10754 1.95672 5.2039C1.5026 6.30026 1.38378 7.50666 1.61529 8.67054C1.8468 9.83443 2.41824 10.9035 3.25736 11.7426C4.09647 12.5818 5.16557 13.1532 6.32946 13.3847C7.49334 13.6162 8.69974 13.4974 9.7961 13.0433C10.8925 12.5892 11.8295 11.8201 12.4888 10.8334C13.1481 9.84673 13.5 8.68669 13.5 7.5C13.5 7.30109 13.579 7.11032 13.7197 6.96967C13.8603 6.82902 14.0511 6.75 14.25 6.75C14.4489 6.75 14.6397 6.82902 14.7803 6.96967C14.921 7.11032 15 7.30109 15 7.5C15 11.6423 11.6423 15 7.5 15C3.35775 15 0 11.6423 0 7.5C0 3.35775 3.35775 0 7.5 0C9.41175 0 11.3302 0.687 12.75 1.83675V0.75C12.75 0.551088 12.829 0.360322 12.9697 0.21967C13.1103 0.0790176 13.3011 0 13.5 0C13.6989 0 13.8897 0.0790176 14.0303 0.21967C14.171 0.360322 14.25 0.551088 14.25 0.75V3.75C14.25 3.94891 14.171 4.13968 14.0303 4.28033C13.8897 4.42098 13.6989 4.5 13.5 4.5H10.5C10.3011 4.5 10.1103 4.42098 9.96967 4.28033C9.82902 4.13968 9.75 3.94891 9.75 3.75C9.75 3.55109 9.82902 3.36032 9.96967 3.21967C10.1103 3.07902 10.3011 3 10.5 3H11.8035Z"/>
    </symbol>

    <symbol width="18" height="19" viewBox="0 0 18 19" id="plus" xmlns="http://www.w3.org/2000/svg">
        <path d="M8.25 8.75V6.5C8.25 6.30109 8.32902 6.11032 8.46967 5.96967C8.61032 5.82902 8.80109 5.75 9 5.75C9.19891 5.75 9.38968 5.82902 9.53033 5.96967C9.67098 6.11032 9.75 6.30109 9.75 6.5V12.5C9.75 12.6989 9.67098 12.8897 9.53033 13.0303C9.38968 13.171 9.19891 13.25 9 13.25C8.80109 13.25 8.61032 13.171 8.46967 13.0303C8.32902 12.8897 8.25 12.6989 8.25 12.5V10.25H6C5.80109 10.25 5.61032 10.171 5.46967 10.0303C5.32902 9.88968 5.25 9.69891 5.25 9.5C5.25 9.30109 5.32902 9.11032 5.46967 8.96967C5.61032 8.82902 5.80109 8.75 6 8.75H8.25ZM9 3.5C8.80109 3.5 8.61032 3.42098 8.46967 3.28033C8.32902 3.13968 8.25 2.94891 8.25 2.75C8.25 2.55109 8.32902 2.36032 8.46967 2.21967C8.61032 2.07902 8.80109 2 9 2C13.1423 2 16.5 5.35775 16.5 9.5C16.5 13.6422 13.1423 17 9 17C4.85775 17 1.5 13.6422 1.5 9.5C1.49952 8.14532 1.86607 6.81583 2.56069 5.6528C3.25532 4.48976 4.25206 3.53665 5.445 2.89475C5.62004 2.80027 5.82545 2.77919 6.01603 2.83615C6.20662 2.89312 6.36677 3.02346 6.46125 3.1985C6.55573 3.37354 6.57681 3.57895 6.51985 3.76953C6.46288 3.96012 6.33254 4.12027 6.1575 4.21475C4.8684 4.90746 3.87692 6.04742 3.36962 7.42011C2.86233 8.7928 2.87421 10.3036 3.40302 11.6681C3.93183 13.0326 4.94111 14.1569 6.24094 14.8292C7.54076 15.5016 9.04151 15.6757 10.4608 15.3189C11.88 14.962 13.1199 14.0987 13.9471 12.8915C14.7743 11.6843 15.1318 10.2164 14.9523 8.76403C14.7728 7.31165 14.0687 5.97495 12.9724 5.00547C11.8762 4.036 10.4634 3.50059 9 3.5ZM11.25 10.25C11.0511 10.25 10.8603 10.171 10.7197 10.0303C10.579 9.88968 10.5 9.69891 10.5 9.5C10.5 9.30109 10.579 9.11032 10.7197 8.96967C10.8603 8.82902 11.0511 8.75 11.25 8.75H12C12.1989 8.75 12.3897 8.82902 12.5303 8.96967C12.671 9.11032 12.75 9.30109 12.75 9.5C12.75 9.69891 12.671 9.88968 12.5303 10.0303C12.3897 10.171 12.1989 10.25 12 10.25H11.25Z"/>
    </symbol>

    <symbol width="24" height="24" viewBox="0 0 24 24"  id="phone" xmlns="http://www.w3.org/2000/svg">
        <path fill-rule="evenodd" clip-rule="evenodd" d="M3.15039 4.00002C3.15039 3.53058 3.53095 3.15002 4.00039 3.15002H8.00039C8.40557 3.15002 8.75442 3.43602 8.83388 3.83333L9.83388 8.83333C9.88962 9.11201 9.80239 9.4001 9.60143 9.60107L6.79389 12.4086C7.3649 13.4368 8.05415 14.3517 8.85143 15.149C9.64872 15.9463 10.5636 16.6355 11.5918 17.2065L14.3994 14.399C14.6003 14.198 14.8884 14.1108 15.1671 14.1665L20.1671 15.1665C20.5644 15.246 20.8504 15.5948 20.8504 16V16.0078V16.0156V16.0235V16.0313V16.0391V16.0469V16.0547V16.0625V16.0703V16.0781V16.086V16.0938V16.1016V16.1094V16.1172V16.125V16.1328V16.1406V16.1485V16.1563V16.1641V16.1719V16.1797V16.1875V16.1953V16.2031V16.211V16.2188V16.2266V16.2344V16.2422V16.25V16.2578V16.2656V16.2735V16.2813V16.2891V16.2969V16.3047V16.3125V16.3203V16.3281V16.336V16.3438V16.3516V16.3594V16.3672V16.375V16.3828V16.3906V16.3985V16.4063V16.4141V16.4219V16.4297V16.4375V16.4453V16.4531V16.461V16.4688V16.4766V16.4844V16.4922V16.5V16.5078V16.5156V16.5235V16.5313V16.5391V16.5469V16.5547V16.5625V16.5703V16.5781V16.586V16.5938V16.6016V16.6094V16.6172V16.625V16.6328V16.6406V16.6485V16.6563V16.6641V16.6719V16.6797V16.6875V16.6953V16.7031V16.711V16.7188V16.7266V16.7344V16.7422V16.75V16.7578V16.7656V16.7735V16.7813V16.7891V16.7969V16.8047V16.8125V16.8203V16.8281V16.836V16.8438V16.8516V16.8594V16.8672V16.875V16.8828V16.8906V16.8985V16.9063V16.9141V16.9219V16.9297V16.9375V16.9453V16.9531V16.961V16.9688V16.9766V16.9844V16.9922V17V17.0078V17.0156V17.0235V17.0313V17.0391V17.0469V17.0547V17.0625V17.0703V17.0781V17.086V17.0938V17.1016V17.1094V17.1172V17.125V17.1328V17.1406V17.1485V17.1563V17.1641V17.1719V17.1797V17.1875V17.1953V17.2031V17.211V17.2188V17.2266V17.2344V17.2422V17.25V17.2578V17.2656V17.2735V17.2813V17.2891V17.2969V17.3047V17.3125V17.3203V17.3281V17.336V17.3438V17.3516V17.3594V17.3672V17.375V17.3828V17.3906V17.3985V17.4063V17.4141V17.4219V17.4297V17.4375V17.4453V17.4531V17.461V17.4688V17.4766V17.4844V17.4922V17.5V17.5078V17.5156V17.5235V17.5313V17.5391V17.5469V17.5547V17.5625V17.5703V17.5781V17.586V17.5938V17.6016V17.6094V17.6172V17.625V17.6328V17.6406V17.6485V17.6563V17.6641V17.6719V17.6797V17.6875V17.6953V17.7031V17.711V17.7188V17.7266V17.7344V17.7422V17.75V17.7578V17.7656V17.7735V17.7813V17.7891V17.7969V17.8047V17.8125V17.8203V17.8281V17.836V17.8438V17.8516V17.8594V17.8672V17.875V17.8828V17.8906V17.8985V17.9063V17.9141V17.9219V17.9297V17.9375V17.9453V17.9531V17.961V17.9688V17.9766V17.9844V17.9922V18V18.0078V18.0156V18.0235V18.0313V18.0391V18.0469V18.0547V18.0625V18.0703V18.0781V18.086V18.0938V18.1016V18.1094V18.1172V18.125V18.1328V18.1406V18.1485V18.1563V18.1641V18.1719V18.1797V18.1875V18.1953V18.2031V18.211V18.2188V18.2266V18.2344V18.2422V18.25V18.2578V18.2656V18.2735V18.2813V18.2891V18.2969V18.3047V18.3125V18.3203V18.3281V18.336V18.3438V18.3516V18.3594V18.3672V18.375V18.3828V18.3906V18.3985V18.4063V18.4141V18.4219V18.4297V18.4375V18.4453V18.4531V18.461V18.4688V18.4766V18.4844V18.4922V18.5V18.5078V18.5156V18.5235V18.5313V18.5391V18.5469V18.5547V18.5625V18.5703V18.5781V18.586V18.5938V18.6016V18.6094V18.6172V18.625V18.6328V18.6406V18.6485V18.6563V18.6641V18.6719V18.6797V18.6875V18.6953V18.7031V18.711V18.7188V18.7266V18.7344V18.7422V18.75V18.7578V18.7656V18.7735V18.7813V18.7891V18.7969V18.8047V18.8125V18.8203V18.8281V18.836V18.8438V18.8516V18.8594V18.8672V18.875V18.8828V18.8906V18.8985V18.9063V18.9141V18.9219V18.9297V18.9375V18.9453V18.9531V18.961V18.9688V18.9766V18.9844V18.9922V19V19.0078V19.0156V19.0235V19.0313V19.0391V19.0469V19.0547V19.0625V19.0703V19.0781V19.086V19.0938V19.1016V19.1094V19.1172V19.125V19.1328V19.1406V19.1485V19.1563V19.1641V19.1719V19.1797V19.1875V19.1953V19.2031V19.211V19.2188V19.2266V19.2344V19.2422V19.25V19.2578V19.2656V19.2735V19.2813V19.2891V19.2969V19.3047V19.3125V19.3203V19.3281V19.336V19.3438V19.3516V19.3594V19.3672V19.375V19.3828V19.3906V19.3985V19.4063V19.4141V19.4219V19.4297V19.4375V19.4453V19.4531V19.461V19.4688V19.4766V19.4844V19.4922V19.5V19.5078V19.5156V19.5235V19.5313V19.5391V19.5469V19.5547V19.5625V19.5703V19.5781V19.586V19.5938V19.6016V19.6094V19.6172V19.625V19.6328V19.6406V19.6485V19.6563V19.6641V19.6719V19.6797V19.6875V19.6953V19.7031V19.711V19.7188V19.7266V19.7344V19.7422V19.75V19.7578V19.7656V19.7735V19.7813V19.7891V19.7969V19.8047V19.8125V19.8203V19.8281V19.836V19.8438V19.8516V19.8594V19.8672V19.875V19.8828V19.8906V19.8985V19.9063V19.9141V19.9219V19.9297V19.9375V19.9453V19.9531V19.961V19.9688V19.9766V19.9844V19.9922V20C20.8504 20.4695 20.4698 20.85 20.0004 20.85C14.83 20.85 10.5938 19.2956 7.64935 16.3511C4.70486 13.4066 3.15039 9.17046 3.15039 4.00002ZM13.2263 17.9762C14.9518 18.6563 16.9315 19.0542 19.1504 19.1348V19.1328V19.125V19.1172V19.1094V19.1016V19.0938V19.086V19.0781V19.0703V19.0625V19.0547V19.0469V19.0391V19.0313V19.0235V19.0156V19.0078V19V18.9922V18.9844V18.9766V18.9688V18.961V18.9531V18.9453V18.9375V18.9297V18.9219V18.9141V18.9063V18.8985V18.8906V18.8828V18.875V18.8672V18.8594V18.8516V18.8438V18.836V18.8281V18.8203V18.8125V18.8047V18.7969V18.7891V18.7813V18.7735V18.7656V18.7578V18.75V18.7422V18.7344V18.7266V18.7188V18.711V18.7031V18.6953V18.6875V18.6797V18.6719V18.6641V18.6563V18.6485V18.6406V18.6328V18.625V18.6172V18.6094V18.6016V18.5938V18.586V18.5781V18.5703V18.5625V18.5547V18.5469V18.5391V18.5313V18.5235V18.5156V18.5078V18.5V18.4922V18.4844V18.4766V18.4688V18.461V18.4531V18.4453V18.4375V18.4297V18.4219V18.4141V18.4063V18.3985V18.3906V18.3828V18.375V18.3672V18.3594V18.3516V18.3438V18.336V18.3281V18.3203V18.3125V18.3047V18.2969V18.2891V18.2813V18.2735V18.2656V18.2578V18.25V18.2422V18.2344V18.2266V18.2188V18.211V18.2031V18.1953V18.1875V18.1797V18.1719V18.1641V18.1563V18.1485V18.1406V18.1328V18.125V18.1172V18.1094V18.1016V18.0938V18.086V18.0781V18.0703V18.0625V18.0547V18.0469V18.0391V18.0313V18.0235V18.0156V18.0078V18V17.9922V17.9844V17.9766V17.9688V17.961V17.9531V17.9453V17.9375V17.9297V17.9219V17.9141V17.9063V17.8985V17.8906V17.8828V17.875V17.8672V17.8594V17.8516V17.8438V17.836V17.8281V17.8203V17.8125V17.8047V17.7969V17.7891V17.7813V17.7735V17.7656V17.7578V17.75V17.7422V17.7344V17.7266V17.7188V17.711V17.7031V17.6953V17.6875V17.6797V17.6719V17.6641V17.6563V17.6485V17.6406V17.6328V17.625V17.6172V17.6094V17.6016V17.5938V17.586V17.5781V17.5703V17.5625V17.5547V17.5469V17.5391V17.5313V17.5235V17.5156V17.5078V17.5V17.4922V17.4844V17.4766V17.4688V17.461V17.4531V17.4453V17.4375V17.4297V17.4219V17.4141V17.4063V17.3985V17.3906V17.3828V17.375V17.3672V17.3594V17.3516V17.3438V17.336V17.3281V17.3203V17.3125V17.3047V17.2969V17.2891V17.2813V17.2735V17.2656V17.2578V17.25V17.2422V17.2344V17.2266V17.2188V17.211V17.2031V17.1953V17.1875V17.1797V17.1719V17.1641V17.1563V17.1485V17.1406V17.1328V17.125V17.1172V17.1094V17.1016V17.0938V17.086V17.0781V17.0703V17.0625V17.0547V17.0469V17.0391V17.0313V17.0235V17.0156V17.0078V17V16.9922V16.9844V16.9766V16.9688V16.961V16.9531V16.9453V16.9375V16.9297V16.9219V16.9141V16.9063V16.8985V16.8906V16.8828V16.875V16.8672V16.8594V16.8516V16.8438V16.836V16.8281V16.8203V16.8125V16.8047V16.7969V16.7891V16.7813V16.7735V16.7656V16.7578V16.75V16.7422V16.7344V16.7266V16.7188V16.711V16.7031V16.6969L15.2798 15.9227L13.2263 17.9762ZM6.02423 10.7741L8.07768 8.72065L7.30356 4.85002H4.86565C4.94618 7.06888 5.34413 9.04857 6.02423 10.7741Z"/>
    </symbol>

    <symbol width="24" height="24" viewBox="0 0 24 24" id="download" xmlns="http://www.w3.org/2000/svg">
        <path fill-rule="evenodd" clip-rule="evenodd" d="M21.8504 14C21.8504 13.5305 21.4698 13.15 21.0004 13.15C20.5309 13.15 20.1504 13.5305 20.1504 14L20.1504 15.2C20.1504 16.0541 20.1497 16.6435 20.1123 17.1012C20.0758 17.5488 20.0083 17.795 19.9161 17.9761C19.7099 18.3806 19.381 18.7095 18.9765 18.9156C18.7954 19.0079 18.5493 19.0753 18.1016 19.1119C17.644 19.1493 17.0545 19.15 16.2004 19.15L7.80039 19.15C6.94629 19.15 6.35683 19.1493 5.89921 19.1119C5.45152 19.0753 5.20538 19.0079 5.02431 18.9156C4.61976 18.7095 4.29085 18.3806 4.08473 17.9761C3.99247 17.795 3.92502 17.5488 3.88844 17.1012C3.85105 16.6435 3.85039 16.0541 3.85039 15.2L3.85039 14C3.85039 13.5305 3.46983 13.15 3.00039 13.15C2.53095 13.15 2.15039 13.5305 2.15039 14L2.15039 15.2L2.15039 15.2358C2.15038 16.0455 2.15037 16.7046 2.19409 17.2396C2.23925 17.7924 2.3353 18.2872 2.57002 18.7478C2.93913 19.4723 3.5281 20.0612 4.25253 20.4304C4.71319 20.6651 5.20796 20.7611 5.76078 20.8063C6.2958 20.85 6.9549 20.85 7.76453 20.85L7.80039 20.85L16.2004 20.85L16.2362 20.85C17.0459 20.85 17.705 20.85 18.24 20.8063C18.7928 20.7611 19.2876 20.6651 19.7483 20.4303C20.4727 20.0612 21.0617 19.4723 21.4308 18.7478C21.6655 18.2872 21.7615 17.7924 21.8067 17.2396C21.8504 16.7046 21.8504 16.0454 21.8504 15.2358L21.8504 15.2L21.8504 14ZM12.6014 3.39891C12.2695 3.06697 11.7313 3.06696 11.3994 3.39891L7.39937 7.39891C7.06742 7.73086 7.06742 8.26905 7.39937 8.60099C7.73131 8.93294 8.2695 8.93294 8.60145 8.60099L11.1504 6.05203L11.1504 14C11.1504 14.4694 11.531 14.85 12.0004 14.85C12.4699 14.85 12.8504 14.4694 12.8504 14L12.8504 6.05203L15.3994 8.60099C15.7313 8.93294 16.2695 8.93294 16.6014 8.60099C16.9334 8.26905 16.9334 7.73086 16.6014 7.39891L12.6014 3.39891Z"/>
    </symbol>

    <symbol width="24" height="24" viewBox="0 0 24 24" id="catalog" xmlns="http://www.w3.org/2000/svg"> 
        <path fill-rule="evenodd" clip-rule="evenodd" d="M3.15039 6.9999C3.15039 6.53046 3.53095 6.1499 4.00039 6.1499H20.0004C20.4698 6.1499 20.8504 6.53046 20.8504 6.9999C20.8504 7.46934 20.4698 7.8499 20.0004 7.8499H4.00039C3.53095 7.8499 3.15039 7.46934 3.15039 6.9999ZM3.15039 11.9999C3.15039 11.5305 3.53095 11.1499 4.00039 11.1499L20.0004 11.1499C20.4698 11.1499 20.8504 11.5305 20.8504 11.9999C20.8504 12.4693 20.4698 12.8499 20.0004 12.8499L4.00039 12.8499C3.53095 12.8499 3.15039 12.4693 3.15039 11.9999ZM4.00039 16.1499C3.53095 16.1499 3.15039 16.5305 3.15039 16.9999C3.15039 17.4693 3.53095 17.8499 4.00039 17.8499H20.0004C20.4698 17.8499 20.8504 17.4693 20.8504 16.9999C20.8504 16.5305 20.4698 16.1499 20.0004 16.1499H4.00039Z"/>
    </symbol>

    <symbol width="32" height="32" viewBox="0 0 32 32" id="login" xmlns="http://www.w3.org/2000/svg">
        <path d="M25.3327 2.6665H6.66602C4.45688 2.6665 2.66602 4.45736 2.66602 6.6665V25.3332C2.66602 27.5423 4.45687 29.3332 6.66601 29.3332H25.3327C27.5418 29.3332 29.3327 27.5423 29.3327 25.3332V6.6665C29.3327 4.45737 27.5418 2.6665 25.3327 2.6665Z" stroke-linejoin="round"/>
        <circle cx="16" cy="12" r="3.5"/>
        <path d="M9.75646 20.2732C10.5041 18.778 12.0323 17.8335 13.7041 17.8335H18.088C19.844 17.8335 21.4231 18.9026 22.0753 20.533C22.6438 21.9542 21.5971 23.5002 20.0664 23.5002H11.7508C10.0933 23.5002 9.01518 21.7558 9.75646 20.2732Z"/>
    </symbol>

    <symbol width="24" height="24" viewBox="0 0 24 24" id="to-top"  xmlns="http://www.w3.org/2000/svg">
        <path fill-rule="evenodd" clip-rule="evenodd" d="M11.3993 4.39886C11.7313 4.06692 12.2695 4.06692 12.6014 4.39886L18.6014 10.3989C18.9334 10.7308 18.9334 11.269 18.6014 11.6009C18.2695 11.9329 17.7313 11.9329 17.3994 11.6009L12.8504 7.05198L12.8504 18.9999C12.8504 19.4693 12.4698 19.8499 12.0004 19.8499C11.5309 19.8499 11.1504 19.4693 11.1504 18.9999L11.1504 7.05198L6.60143 11.6009C6.26949 11.9329 5.7313 11.9329 5.39935 11.6009C5.0674 11.269 5.0674 10.7308 5.39935 10.3989L11.3993 4.39886Z"/>
    </symbol>

    <symbol viewBox="0 0 14 14" id="close" xmlns="http://www.w3.org/2000/svg">
        <path fill-rule="evenodd" clip-rule="evenodd" d="M0.248959 0.248959C0.580905 -0.0829864 1.1191 -0.0829864 1.45104 0.248959L6.85 5.64792L12.249 0.248959C12.5809 -0.0829864 13.1191 -0.0829864 13.451 0.248959C13.783 0.580905 13.783 1.1191 13.451 1.45104L8.05208 6.85L13.451 12.249C13.783 12.5809 13.783 13.1191 13.451 13.451C13.1191 13.783 12.5809 13.783 12.249 13.451L6.85 8.05208L1.45104 13.451C1.1191 13.783 0.580905 13.783 0.248959 13.451C-0.0829864 13.1191 -0.0829864 12.5809 0.248959 12.249L5.64792 6.85L0.248959 1.45104C-0.0829864 1.1191 -0.0829864 0.580905 0.248959 0.248959Z"/>
    </symbol>

    <symbol width="24px" height="24px" id="delete-cart" viewBox="0 0 24 24" version="1.1" xmlns="http://www.w3.org/2000/svg" xmlns:xlink="http://www.w3.org/1999/xlink">
        <g id="Iconly/Light-Outline/Delete" stroke="none" stroke-width="1" fill-rule="evenodd">
            <g id="Delete" transform="translate(3.000000, 2.000000)">
                <path d="M16.3846,6.72 C16.7976,6.754 17.1056,7.115 17.0726,7.528 C17.0666,7.596 16.5246,14.307 16.2126,17.122 C16.0186,18.869 14.8646,19.932 13.1226,19.964 C11.7896,19.987 10.5036,20 9.2466,20 C7.8916,20 6.5706,19.985 5.2636,19.958 C3.5916,19.925 2.4346,18.841 2.2456,17.129 C1.9306,14.289 1.3916,7.595 1.3866,7.528 C1.3526,7.115 1.6606,6.753 2.0736,6.72 C2.4806,6.709 2.8486,6.995 2.8816,7.407 C2.88479149,7.45040426 3.10514006,10.1840303 3.34526171,12.888712 L3.3934912,13.4284567 C3.5144316,14.7728253 3.63702553,16.0646383 3.7366,16.964 C3.8436,17.937 4.3686,18.439 5.2946,18.458 C7.7946,18.511 10.3456,18.514 13.0956,18.464 C14.0796,18.445 14.6116,17.953 14.7216,16.957 C15.0316,14.163 15.5716,7.475 15.5776,7.407 C15.6106,6.995 15.9756,6.707 16.3846,6.72 Z M11.3454,0.0003 C12.2634,0.0003 13.0704,0.6193 13.3074,1.5063 L13.5614,2.7673 C13.6434814,3.18067391 14.0062454,3.48255718 14.426277,3.48918855 L17.708,3.4893 C18.122,3.4893 18.458,3.8253 18.458,4.2393 C18.458,4.6533 18.122,4.9893 17.708,4.9893 L14.455585,4.98914909 C14.4505353,4.98924954 14.4454735,4.9893 14.4404,4.9893 L14.416,4.9883 L4.04161866,4.98917751 C4.03355343,4.98925911 4.02548047,4.9893 4.0174,4.9893 L4.002,4.9883 L0.75,4.9893 C0.336,4.9893 0,4.6533 0,4.2393 C0,3.8253 0.336,3.4893 0.75,3.4893 L4.031,3.4883 L4.13202059,3.48190556 C4.50830909,3.43308512 4.82103636,3.1473 4.8974,2.7673 L5.1404,1.5513 C5.3874,0.6193 6.1944,0.0003 7.1124,0.0003 L11.3454,0.0003 Z M11.3454,1.5003 L7.1124,1.5003 C6.8724,1.5003 6.6614,1.6613 6.6004,1.8923 L6.3674,3.0623 C6.33778734,3.2104961 6.29466721,3.35331391 6.23948439,3.48956855 L12.2186152,3.48956855 C12.1633631,3.35331391 12.1201455,3.2104961 12.0904,3.0623 L11.8474,1.8463 C11.7964,1.6613 11.5854,1.5003 11.3454,1.5003 Z" id="Combined-Shape"></path>
            </g>
        </g>
    </symbol>

    <symbol width="24" height="24" viewBox="0 0 24 24" id="search" xmlns="http://www.w3.org/2000/svg">
        <path fill-rule="evenodd" clip-rule="evenodd" d="M3.85039 10.9999C3.85039 7.05107 7.05155 3.8499 11.0004 3.8499C14.9492 3.8499 18.1504 7.05107 18.1504 10.9999C18.1504 14.9487 14.9492 18.1499 11.0004 18.1499C7.05155 18.1499 3.85039 14.9487 3.85039 10.9999ZM11.0004 2.1499C6.11267 2.1499 2.15039 6.11218 2.15039 10.9999C2.15039 15.8876 6.11267 19.8499 11.0004 19.8499C13.1382 19.8499 15.0989 19.0919 16.6285 17.8301L19.3994 20.6009C19.7313 20.9329 20.2695 20.9329 20.6014 20.6009C20.9334 20.269 20.9334 19.7308 20.6014 19.3989L17.8306 16.628C19.0924 15.0984 19.8504 13.1377 19.8504 10.9999C19.8504 6.11218 15.8881 2.1499 11.0004 2.1499Z"/>
    </symbol>

    <symbol width="32" height="32" viewBox="0 0 32 32"  id="cart" xmlns="http://www.w3.org/2000/svg">
        <path d="M1.33398 2.66667C2.66732 2.22222 5.33398 2.66666 6.66732 6.66667M6.66732 6.66667C7.89686 10.3553 9.50435 15.5557 10.4442 18.0856C10.5878 18.472 10.8176 18.817 11.1091 19.1085V19.1085C11.68 19.6793 12.4542 20 13.2615 20L22.7996 20C23.5686 20 24.3061 19.6945 24.8499 19.1507V19.1507C25.1683 18.8324 25.4081 18.4443 25.5505 18.0173L28.1318 10.2732C28.46 9.28862 28.2037 8.20309 27.4699 7.46921V7.46921C26.956 6.95535 26.2591 6.66667 25.5323 6.66667H6.66732Z" stroke-linecap="round" stroke-linejoin="round"/>
        <path d="M16.834 26.6665C16.834 28.5995 15.267 30.1665 13.334 30.1665C11.401 30.1665 9.83398 28.5995 9.83398 26.6665C9.83398 24.7335 11.401 23.1665 13.334 23.1665C15.267 23.1665 16.834 24.7335 16.834 26.6665Z"/>
        <circle cx="24" cy="26.6665" r="3.5"/>
    </symbol>

    <symbol viewBox="0 0 24 24" id="enter" xmlns="http://www.w3.org/2000/svg">
        <path fill-rule="evenodd" clip-rule="evenodd" d="M13.6009 7.39901C13.269 7.06707 12.7308 7.06707 12.3989 7.39901C12.0669 7.73096 12.0669 8.26915 12.3989 8.6011L14.9478 11.1501L2.9999 11.1501C2.53046 11.1501 2.1499 11.5306 2.1499 12.0001C2.1499 12.4695 2.53046 12.8501 2.9999 12.8501L14.9478 12.8501L12.3989 15.399C12.0669 15.731 12.0669 16.2692 12.3989 16.6011C12.7308 16.933 13.269 16.933 13.6009 16.6011L17.6009 12.6011C17.9329 12.2692 17.9329 11.731 17.6009 11.399L13.6009 7.39901ZM16.2 2.84997C17.0541 2.84997 17.6435 2.85064 18.1012 2.88802C18.5489 2.9246 18.795 2.99205 18.9761 3.08431C19.3806 3.29044 19.7095 3.61935 19.9157 4.0239C20.0079 4.20496 20.0754 4.45111 20.1119 4.8988C20.1493 5.35641 20.15 5.94587 20.15 6.79998L20.15 17.2C20.15 18.0541 20.1493 18.6435 20.1119 19.1012C20.0754 19.5488 20.0079 19.795 19.9156 19.9761C19.7095 20.3806 19.3806 20.7095 18.9761 20.9156C18.795 21.0079 18.5489 21.0753 18.1012 21.1119C17.6435 21.1493 17.0541 21.15 16.2 21.15L11.8 21.15C10.9459 21.15 10.3564 21.1493 9.89881 21.1119C9.45112 21.0753 9.20498 21.0079 9.02391 20.9156C8.61936 20.7095 8.29045 20.3806 8.08432 19.9761C7.99206 19.795 7.92462 19.5488 7.88804 19.1012C7.85065 18.6435 7.84999 18.0541 7.84999 17.2L7.84999 16C7.84999 15.5305 7.46943 15.15 6.99999 15.15C6.53055 15.15 6.14999 15.5305 6.14999 16L6.14999 17.2L6.14999 17.2358C6.14998 18.0455 6.14997 18.7046 6.19368 19.2396C6.23885 19.7924 6.33489 20.2872 6.56961 20.7478C6.93873 21.4723 7.5277 22.0612 8.25213 22.4304C8.71279 22.6651 9.20756 22.7611 9.76038 22.8063C10.2954 22.85 10.9545 22.85 11.7642 22.85L11.8 22.85L16.2 22.85L16.2358 22.85C17.0454 22.85 17.7046 22.85 18.2396 22.8063C18.7924 22.7611 19.2872 22.6651 19.7478 22.4304C20.4723 22.0612 21.0612 21.4723 21.4304 20.7478C21.6651 20.2872 21.7611 19.7924 21.8063 19.2396C21.85 18.7046 21.85 18.0455 21.85 17.2358L21.85 17.2L21.85 6.79998L21.85 6.76412C21.85 5.95449 21.85 5.29539 21.8063 4.76036C21.7611 4.20754 21.6651 3.71278 21.4304 3.25211C21.0612 2.52769 20.4723 1.93871 19.7478 1.5696C19.2872 1.33488 18.7924 1.23884 18.2396 1.19367C17.7046 1.14996 17.0455 1.14996 16.2358 1.14997L16.2 1.14997L11.8 1.14997L11.7641 1.14997C10.9545 1.14996 10.2954 1.14996 9.76038 1.19367C9.20756 1.23884 8.71279 1.33488 8.25212 1.5696C7.5277 1.93871 6.93873 2.52769 6.56961 3.25211C6.33489 3.71278 6.23885 4.20754 6.19368 4.76036C6.14997 5.29539 6.14998 5.95449 6.14999 6.76411L6.14999 6.79997L6.14999 7.99997C6.14999 8.46942 6.53055 8.84997 6.99999 8.84997C7.46943 8.84997 7.84999 8.46942 7.84999 7.99997L7.84999 6.79998C7.84999 5.94587 7.85065 5.35641 7.88804 4.8988C7.92462 4.45111 7.99206 4.20497 8.08432 4.0239C8.29045 3.61935 8.61936 3.29044 9.02391 3.08431C9.20498 2.99205 9.45112 2.9246 9.89881 2.88802C10.3564 2.85064 10.9459 2.84998 11.8 2.84998L16.2 2.84997Z"/>
    </symbol>
    <symbol viewBox="0 0 24 24" id="burger"><path d="M12 4a1 1 0 110-2c5.523 0 10 4.477 10 10s-4.477 10-10 10S2 17.523 2 12a9.997 9.997 0 015.26-8.807 1 1 0 01.95 1.76A8 8 0 1012 4zm-4 6a1 1 0 010-2h8a1 1 0 110 2H8zm0 3a1 1 0 010-2h8a1 1 0 010 2H8zm0 3a1 1 0 010-2h5a1 1 0 010 2H8z"/></symbol><symbol viewBox="0 0 24 24" id="cart" xmlns="http://www.w3.org/2000/svg"><path d="M5.247 18.27l.693-1.386L3.22 6H2a1 1 0 010-2h2a1 1 0 01.97.757L6.03 9H20a1 1 0 01.98 1.196l-1 5a1 1 0 01-.737.774l-8 2a1 1 0 01-.486-1.94l7.387-1.847L18.78 11H6.53l1.44 5.757a1 1 0 01-.076.69l-1 2a.998.998 0 01-.186.26 3 3 0 11-1.461-1.436v-.001zM4 22a1 1 0 100-2 1 1 0 000 2zm14 2a3 3 0 110-6 3 3 0 010 6zm0-2a1 1 0 100-2 1 1 0 000 2z"/></symbol><symbol viewBox="0 0 19 18" id="cart-arrow" xmlns="http://www.w3.org/2000/svg"><path d="M14.586 8L9.293 2.707a1 1 0 111.414-1.414l7 7c.63.63.184 1.707-.707 1.707H1a1 1 0 010-2h13.586zm-.75 3.253a.999.999 0 111.328 1.494l-4.5 4a.999.999 0 11-1.328-1.494l4.5-4z"/></symbol>
    <symbol viewBox="0 0 15 16" id="file" xmlns="http://www.w3.org/2000/svg"><path d="M13.042 6.417H4.333a.792.792 0 010-1.584h9.5a.791.791 0 01.792.792v8.708a.791.791 0 01-.792.792H1.167a.792.792 0 01-.792-.792V1.667a.792.792 0 01.792-.792H7.5a.79.79 0 01.56.232L9.643 2.69a.792.792 0 11-1.12 1.12l-1.35-1.352H1.957v11.084h11.084V6.417z"/></symbol><symbol viewBox="0 0 24 24" id="folder" xmlns="http://www.w3.org/2000/svg"><path d="M19 10H8a1 1 0 010-2h12a1 1 0 011 1v11a1 1 0 01-1 1H4a1 1 0 01-1-1V4a1 1 0 011-1h8a1 1 0 01.707.293l2 2a1 1 0 11-1.414 1.414L11.586 5H5v14h14v-9z"/></symbol><symbol viewBox="0 0 18 10" id="sorting_1" xmlns="http://www.w3.org/2000/svg"><path d="M0 6h2V4H0v2zm0 4h2V8H0v2zm0-8h2V0H0v2zm4 4h14V4H4v2zm0 4h14V8H4v2zM4 0v2h14V0H4z"/></symbol><symbol viewBox="0 0 18 10" id="sorting_2" xmlns="http://www.w3.org/2000/svg"><path d="M0 6h18V4H0v2zm0 4h18V8H0v2zm0-8h18V0H0v2z"/></symbol><symbol viewBox="0 0 16 10" id="sorting_3" xmlns="http://www.w3.org/2000/svg"><path d="M0 4h4V0H0v4zm0 6h4V6H0v4zm6 0h4V6H6v4zm6 0h4V6h-4v4zM6 4h4V0H6v4zm6-4v4h4V0h-4z"/></symbol>
    
    <symbol viewBox="0 0 24 24" id="add-plus" xmlns="http://www.w3.org/2000/svg">
        <path fill-rule="evenodd" clip-rule="evenodd" d="M11.9999 5.15039C12.4693 5.15039 12.8499 5.53095 12.8499 6.00039V11.1504H17.9999C18.4693 11.1504 18.8499 11.5309 18.8499 12.0004C18.8499 12.4698 18.4693 12.8504 17.9999 12.8504H12.8499V18.0004C12.8499 18.4698 12.4693 18.8504 11.9999 18.8504C11.5305 18.8504 11.1499 18.4698 11.1499 18.0004V12.8504H5.9999C5.53046 12.8504 5.1499 12.4698 5.1499 12.0004C5.1499 11.5309 5.53046 11.1504 5.9999 11.1504H11.1499V6.00039C11.1499 5.53095 11.5305 5.15039 11.9999 5.15039Z"/>
    </symbol>

    <symbol viewBox="0 0 14 14" id="table-del" xmlns="http://www.w3.org/2000/svg">
        <path fill-rule="evenodd" clip-rule="evenodd" d="M0.248959 0.248959C0.580905 -0.0829864 1.1191 -0.0829864 1.45104 0.248959L6.85 5.64792L12.249 0.248959C12.5809 -0.0829864 13.1191 -0.0829864 13.451 0.248959C13.783 0.580905 13.783 1.1191 13.451 1.45104L8.05208 6.85L13.451 12.249C13.783 12.5809 13.783 13.1191 13.451 13.451C13.1191 13.783 12.5809 13.783 12.249 13.451L6.85 8.05208L1.45104 13.451C1.1191 13.783 0.580905 13.783 0.248959 13.451C-0.0829864 13.1191 -0.0829864 12.5809 0.248959 12.249L5.64792 6.85L0.248959 1.45104C-0.0829864 1.1191 -0.0829864 0.580905 0.248959 0.248959Z"/>
    </symbol>
</svg>