<svg width="100" height="25" viewBox="0 0 100 25" fill="none" xmlns="http://www.w3.org/2000/svg">
<g clip-path="url(#clip0)">
<path d="M38.1621 2.19663V9.45605C38.1621 9.62341 38.0983 9.74893 37.9707 9.87446C37.843 9.97906 37.6941 10.0418 37.5027 10.0418C37.3325 10.0418 37.1836 9.97906 37.056 9.87446C36.9283 9.74893 36.8645 9.62341 36.8645 9.45605V2.19663H35.3117C35.1415 2.19663 34.9926 2.13387 34.8437 2.00835C34.716 1.88283 34.6522 1.7573 34.6522 1.61086C34.6522 1.4435 34.716 1.29705 34.8437 1.19245C34.9713 1.08785 35.1202 1.02509 35.3117 1.02509H39.7575C39.9277 1.02509 40.0766 1.08785 40.2042 1.19245C40.3319 1.29705 40.3957 1.4435 40.3957 1.61086C40.3957 1.7573 40.3319 1.90375 40.2042 2.00835C40.0766 2.13387 39.9277 2.19663 39.7575 2.19663H38.1621Z" fill="#333333"/>
<path d="M42.5441 7.46863C42.5441 7.65691 42.5867 7.8452 42.6718 8.01256C42.7569 8.17993 42.8845 8.32637 43.0334 8.45189C43.1823 8.57742 43.3312 8.68202 43.5227 8.74478C43.7141 8.82846 43.9056 8.84938 44.1396 8.84938C44.3523 8.84938 44.5437 8.80754 44.7139 8.74478C44.9054 8.6611 45.0755 8.5565 45.2244 8.43097C45.3733 8.30545 45.4797 8.15901 45.5648 7.99164C45.6499 7.82428 45.6924 7.63599 45.6924 7.44771V3.64018C45.6924 3.45189 45.6499 3.26361 45.5648 3.07532C45.4797 2.88704 45.3733 2.7406 45.2244 2.59415C45.0968 2.46863 44.9266 2.36403 44.7352 2.28034C44.5437 2.21758 44.331 2.17574 44.1183 2.17574C43.8843 2.17574 43.6928 2.21758 43.5014 2.28034C43.3099 2.34311 43.1398 2.46863 42.9909 2.61507C42.8632 2.7406 42.7569 2.90796 42.6718 3.07532C42.5867 3.24269 42.5441 3.43097 42.5441 3.64018V7.46863ZM41.2466 3.64018C41.2466 3.28453 41.3104 2.92888 41.4593 2.63599C41.5869 2.32219 41.7996 2.05022 42.0336 1.79917C42.2889 1.56905 42.608 1.38076 42.9483 1.25524C43.3099 1.12972 43.6928 1.06696 44.1183 1.06696C44.5012 1.06696 44.8628 1.12972 45.2244 1.27616C45.5861 1.40168 45.8839 1.58997 46.1391 1.82009C46.3944 2.05022 46.6071 2.34311 46.7347 2.65691C46.8837 2.97072 46.9687 3.30545 46.9687 3.68202V7.46863C46.9687 7.82428 46.9049 8.15901 46.7347 8.47281C46.5858 8.7657 46.3944 9.05859 46.1391 9.28871C45.8839 9.51884 45.5861 9.70712 45.2244 9.85357C44.8841 9.97909 44.5012 10.0419 44.1183 10.0419C43.7354 10.0419 43.3525 9.97909 43.0121 9.85357C42.6718 9.70712 42.3527 9.51884 42.0974 9.30963C41.8422 9.07951 41.6295 8.80754 41.4805 8.49373C41.3316 8.17993 41.2466 7.86612 41.2466 7.53139V3.64018Z" fill="#333333"/>
<path d="M52.5207 1.02509H53.3503C53.478 1.02509 53.6056 1.06693 53.7545 1.19245C53.9034 1.29705 53.9885 1.48534 53.9672 1.7573C53.9672 2.02927 53.9672 4.58157 53.9672 9.43513C53.9672 9.60249 53.9034 9.72801 53.7758 9.85354C53.6694 9.95814 53.5205 10.0209 53.3291 10.0209C53.1589 10.0209 52.9887 9.95814 52.8611 9.85354C52.7335 9.72801 52.6909 9.60249 52.6909 9.43513V2.17571H49.5639V9.45605C49.5639 9.62341 49.5001 9.74893 49.3725 9.87446C49.2448 9.97906 49.0959 10.0209 48.9258 10.0209C48.7343 10.0209 48.5854 9.95814 48.4578 9.85354C48.3301 9.72801 48.2663 9.60249 48.2663 9.43513C48.2663 4.58157 48.2663 2.02927 48.2663 1.7573C48.2663 1.48534 48.3301 1.29705 48.479 1.19245C48.6067 1.08785 48.7556 1.02509 48.9258 1.02509H52.5207Z" fill="#333333"/>
<path d="M60.0085 2.30122C59.9447 2.2803 59.8596 2.25938 59.7533 2.25938C59.6469 2.23846 59.5406 2.21754 59.4129 2.21754C59.2853 2.19662 59.1577 2.19662 59.03 2.1757C58.9024 2.15478 58.7748 2.15478 58.6471 2.15478C58.4344 2.15478 58.2217 2.1757 57.9877 2.21754C57.775 2.30122 57.5835 2.3849 57.4346 2.48951C57.2644 2.59411 57.1368 2.71963 57.0305 2.86607C56.9241 3.01252 56.8603 3.2008 56.8603 3.41001V9.41419C56.8603 9.58156 56.7965 9.728 56.6688 9.8326C56.5412 9.9372 56.4136 9.99997 56.2434 9.99997C56.0519 9.99997 55.903 9.9372 55.7754 9.8326C55.6478 9.70708 55.6052 9.58156 55.6052 9.41419V3.41001C55.6052 3.05436 55.669 2.74055 55.8392 2.42674C56.0094 2.13386 56.2008 1.88281 56.4561 1.67361C56.7114 1.44348 57.0305 1.29704 57.3708 1.17151C57.7112 1.06691 58.0941 1.00415 58.477 1.00415C58.6259 1.00415 58.8173 1.00415 59.0088 1.00415C59.2215 1.00415 59.4342 1.02507 59.6469 1.04599C59.8809 1.06691 60.0724 1.10875 60.2851 1.17151C60.4978 1.21336 60.668 1.29704 60.8382 1.40164C61.0083 1.48532 61.136 1.61084 61.2211 1.75729C61.2423 1.92465 61.3061 2.09202 61.3061 2.30122V9.43511C61.3061 9.60248 61.2423 9.728 61.1147 9.85352C60.9871 9.95813 60.8382 10.0209 60.6467 10.0209C60.4553 10.0209 60.3064 9.95813 60.1787 9.85352C60.0511 9.728 60.0085 9.60248 60.0085 9.43511V2.30122Z" fill="#333333"/>
<path d="M68.6237 9.47698C68.6237 9.64435 68.5599 9.76987 68.4322 9.89539C68.3046 10 68.177 10.0628 67.9855 10.0628C67.8153 10.0628 67.6664 10 67.5175 9.89539C67.4112 9.76987 67.3474 9.64435 67.3474 9.47698V4.05857L64.1565 9.70711C64.1353 9.72803 64.114 9.76987 64.0927 9.81171C64.0715 9.85355 64.0289 9.89539 63.9651 9.91631C63.9013 9.95815 63.8375 9.97907 63.7524 10C63.6886 10.0418 63.5822 10.0418 63.4758 10.0418C63.4333 10.0418 63.3907 10.0418 63.3269 10.0209C63.2631 10.0209 63.1993 9.97907 63.1568 9.93723C63.0929 9.89539 63.0504 9.83263 63.0079 9.76987C62.9653 9.68619 62.9228 9.58158 62.9228 9.45606V1.63179C62.9228 1.46443 62.9866 1.33891 63.1142 1.21338C63.2418 1.08786 63.3907 1.04602 63.5822 1.04602C63.7736 1.04602 63.9225 1.10878 64.0289 1.21338C64.1565 1.33891 64.2204 1.46443 64.2204 1.63179V7.02928L67.4112 1.42259C67.4537 1.31799 67.5388 1.21338 67.6452 1.15062C67.7515 1.08786 67.8792 1.04602 68.0068 1.04602C68.1982 1.04602 68.3471 1.10878 68.4535 1.21338C68.5811 1.33891 68.645 1.46443 68.645 1.63179V9.47698H68.6237Z" fill="#333333"/>
<path d="M73.1547 4.53972H73.1759C73.3674 4.53972 73.5376 4.49787 73.729 4.45603C73.9205 4.39327 74.0694 4.33051 74.2183 4.22591C74.3672 4.1213 74.4735 4.0167 74.5799 3.87026C74.6863 3.72382 74.7288 3.57737 74.7288 3.43093C74.7288 3.2008 74.665 3.01252 74.5586 2.86607C74.4523 2.67779 74.3246 2.55227 74.1545 2.44766C73.9843 2.34306 73.8141 2.2803 73.6014 2.23846C73.3887 2.19662 73.1759 2.1757 72.9632 2.1757C72.7292 2.1757 72.4952 2.1757 72.24 2.21754C71.9847 2.23846 71.772 2.25938 71.5593 2.30122V4.53972H73.1547ZM73.1547 5.71126H71.5593V8.72382C71.5593 8.72382 71.6231 8.74474 71.7294 8.76566C71.8571 8.78658 71.9847 8.8075 72.1549 8.8075C72.325 8.8075 72.4952 8.82842 72.6654 8.84934C72.8569 8.84934 73.0058 8.84934 73.1334 8.84934C73.3248 8.84934 73.5163 8.82842 73.7077 8.76566C73.8992 8.70289 74.0694 8.61921 74.2183 8.51461C74.3672 8.41001 74.4735 8.28448 74.5586 8.13804C74.6437 7.9916 74.7075 7.80331 74.7075 7.61503V6.94557C74.7075 6.75729 74.665 6.58992 74.5586 6.44348C74.4948 6.27612 74.3884 6.15059 74.2395 6.04599C74.0906 5.94139 73.9205 5.85771 73.729 5.79494C73.5588 5.73218 73.3674 5.71126 73.1547 5.71126ZM75.0053 5.10457C75.3031 5.31377 75.5584 5.58574 75.7286 5.89955C75.92 6.21336 76.0051 6.54808 76.0051 6.94557V7.59411C76.0051 7.97068 75.92 8.28448 75.7499 8.59829C75.601 8.89118 75.3882 9.16315 75.1117 9.37235C74.8564 9.58156 74.5374 9.728 74.197 9.85352C73.8566 9.95813 73.495 10.0209 73.1334 10.0209C72.8569 10.0209 72.559 10.0209 72.2187 9.99997C71.8783 9.97905 71.5805 9.91628 71.2827 9.85352C71.0062 9.76984 70.7509 9.64432 70.5595 9.47695C70.368 9.28867 70.2617 9.05854 70.2617 8.74474V2.2803C70.2617 2.0711 70.3042 1.90373 70.4106 1.75729C70.5169 1.61084 70.6446 1.48532 70.7722 1.40164C70.9424 1.29704 71.1125 1.21336 71.304 1.17151C71.4954 1.10875 71.7082 1.06691 71.9209 1.04599C72.1336 1.00415 72.3463 1.00415 72.559 1.00415C72.7718 1.00415 72.9845 1.00415 73.1759 1.00415C73.5376 1.00415 73.8779 1.06691 74.2395 1.17151C74.5799 1.27612 74.8777 1.44348 75.1542 1.65269C75.4095 1.86189 75.6222 2.11294 75.7924 2.40582C75.9626 2.69871 76.0477 3.03344 76.0477 3.41001C76.0477 3.55645 76.0264 3.70289 75.9839 3.87026C75.8988 4.0167 75.8349 4.18407 75.7499 4.33051C75.6648 4.47695 75.5584 4.64432 75.4308 4.76984C75.3031 4.89536 75.1755 5.02089 75.0053 5.10457Z" fill="#333333"/>
<path d="M77.6856 1.61086C77.6856 1.4435 77.7494 1.31797 77.8771 1.19245C78.0047 1.08785 78.1536 1.02509 78.3238 1.02509C78.5152 1.02509 78.6641 1.08785 78.7918 1.19245C78.9194 1.31797 78.9832 1.4435 78.9832 1.61086V4.58157H82.1315V1.61086C82.1315 1.4435 82.1953 1.31797 82.3016 1.19245C82.4293 1.08785 82.5782 1.02509 82.7484 1.02509C82.9185 1.02509 83.0887 1.08785 83.1951 1.19245C83.3227 1.31797 83.3865 1.4435 83.3865 1.61086V9.43513C83.3865 9.60249 83.3227 9.72801 83.1951 9.85354C83.0887 9.95814 82.9185 10.0209 82.7484 10.0209C82.5782 10.0209 82.4293 9.95814 82.3016 9.85354C82.1953 9.72801 82.1315 9.60249 82.1315 9.43513V5.75312H78.9832V9.45605C78.9832 9.62341 78.9194 9.74893 78.7918 9.87446C78.6641 9.97906 78.5152 10.0418 78.3238 10.0418C78.1536 10.0418 78.0047 9.97906 77.8771 9.87446C77.7707 9.74893 77.6856 9.62341 77.6856 9.45605V1.61086Z" fill="#333333"/>
<path d="M91.3848 1.61086C91.3848 1.4435 91.4486 1.31797 91.5763 1.19245C91.7039 1.08785 91.8528 1.02509 92.0443 1.02509C92.2357 1.02509 92.3846 1.08785 92.491 1.19245C92.6186 1.29705 92.6824 1.4435 92.6824 1.61086V9.43513C92.6824 9.60249 92.6186 9.74893 92.491 9.85354C92.3633 9.95814 92.2357 10.0209 92.0443 10.0209C91.8741 10.0209 91.7252 9.95814 91.5763 9.85354C91.4486 9.74893 91.3848 9.60249 91.3848 9.43513V1.61086ZM89.5342 6.96651C89.5342 6.73638 89.4916 6.5481 89.3852 6.40165C89.2789 6.25521 89.1513 6.10877 88.9598 6.02509C88.7896 5.92048 88.6195 5.85772 88.4067 5.81588C88.194 5.77404 87.9813 5.7322 87.7686 5.7322C87.5346 5.7322 87.3006 5.7322 87.0453 5.77404C86.79 5.81588 86.5773 5.81588 86.3646 5.85772V8.72383C86.5773 8.76567 86.8113 8.80751 87.0879 8.82843C87.3644 8.84935 87.6197 8.84935 87.8324 8.84935C88.0451 8.84935 88.2366 8.82843 88.4493 8.76567C88.6407 8.72383 88.8322 8.64015 88.9811 8.53554C89.1513 8.43094 89.2789 8.30542 89.3852 8.13806C89.4916 7.99161 89.5342 7.80333 89.5342 7.59412V6.96651ZM90.8105 7.61504C90.8105 8.01253 90.7254 8.34726 90.5552 8.66107C90.385 8.95396 90.151 9.205 89.8745 9.41421C89.598 9.60249 89.2576 9.76985 88.8747 9.87446C88.5131 9.97906 88.1302 10.0209 87.7473 10.0209C87.5133 10.0209 87.2155 10.0209 86.9177 9.99998C86.5986 9.97906 86.3221 9.9163 86.0455 9.83262C85.7903 9.74893 85.5563 9.60249 85.3648 9.43513C85.1734 9.26776 85.0883 9.03764 85.0883 8.72383V1.58994C85.0883 1.42257 85.1521 1.29705 85.2797 1.19245C85.4074 1.08785 85.5563 1.02509 85.7264 1.02509C85.9179 1.02509 86.0668 1.08785 86.1732 1.19245C86.3008 1.29705 86.3646 1.4435 86.3646 1.61086V4.66525C86.6411 4.60249 86.9177 4.58157 87.2155 4.56065C87.5133 4.56065 87.7473 4.56065 87.9813 4.56065C88.3429 4.56065 88.7045 4.62341 89.0449 4.72801C89.3852 4.83262 89.7043 4.99998 89.9596 5.20919C90.2149 5.41839 90.4276 5.66944 90.5978 5.96232C90.7467 6.25521 90.8318 6.58994 90.8318 6.94559V7.61504H90.8105Z" fill="#333333"/>
<path d="M99.3406 1.02509C99.532 1.02509 99.6809 1.08785 99.8086 1.19245C99.9362 1.31797 100 1.4435 100 1.61086C100 1.77822 99.9362 1.90375 99.8086 2.02927C99.6809 2.13387 99.532 2.19663 99.3406 2.19663C98.7237 2.19663 98.1919 2.19663 97.7452 2.19663C97.3197 2.19663 96.9581 2.19663 96.6816 2.21755C96.405 2.21755 96.1923 2.21755 96.0434 2.21755C95.8945 2.21755 95.7669 2.21755 95.7031 2.21755C95.6392 2.21755 95.5967 2.21755 95.5754 2.21755C95.5754 2.21755 95.5541 2.21755 95.5541 2.23847V4.58157H98.2557C98.4259 4.58157 98.5748 4.64433 98.7024 4.74893C98.8301 4.85354 98.8939 4.99998 98.8939 5.14642C98.8939 5.31379 98.8301 5.43931 98.7024 5.56483C98.5748 5.66944 98.4259 5.71128 98.2557 5.71128H95.5541V8.78659C95.5541 8.80751 95.5541 8.82843 95.5967 8.82843C95.618 8.82843 95.6818 8.84935 95.7669 8.84935H99.3619C99.5533 8.84935 99.7022 8.91211 99.8086 9.01672C99.9362 9.12132 100 9.26776 100 9.43513C100 9.60249 99.9362 9.74893 99.8086 9.85354C99.6809 9.95814 99.5533 10.0209 99.3619 10.0209H95.7669C95.4265 10.0209 95.15 9.97906 94.9585 9.93722C94.7671 9.87446 94.6182 9.79078 94.5331 9.68617C94.4267 9.58157 94.3629 9.45605 94.3416 9.3096C94.2991 9.16316 94.2991 8.97488 94.2991 8.80751V2.21755C94.2991 2.05019 94.3204 1.88283 94.3416 1.73638C94.3629 1.58994 94.448 1.46442 94.5331 1.35981C94.6394 1.25521 94.7884 1.17153 94.9798 1.10877C95.1713 1.04601 95.4478 1.02509 95.7881 1.02509H99.3406Z" fill="#333333"/>
<path d="M39.6299 17.3431C39.6299 17.113 39.5873 16.9456 39.481 16.7992C39.3746 16.6318 39.247 16.5063 39.0768 16.4226C38.9279 16.318 38.7365 16.2343 38.545 16.1925C38.3536 16.1506 38.1408 16.1088 37.9281 16.1088C37.6941 16.1088 37.4601 16.1088 37.1836 16.1506C36.9071 16.1716 36.6731 16.1925 36.4603 16.2552V19.1214C36.6731 19.1632 36.9071 19.1841 37.141 19.226C37.3963 19.2469 37.6303 19.2469 37.8643 19.2469C38.077 19.2469 38.2897 19.226 38.5025 19.1841C38.7152 19.1423 38.9066 19.0586 39.0768 18.9749C39.247 18.8703 39.3746 18.7448 39.481 18.5983C39.5873 18.431 39.6299 18.2427 39.6299 18.0335V17.3431ZM40.9062 17.3431V17.9917C40.9062 18.3473 40.8424 18.682 40.6722 18.9749C40.5233 19.2678 40.3106 19.5398 40.034 19.7281C39.7788 19.9373 39.481 20.1046 39.1194 20.2092C38.779 20.3347 38.4174 20.3975 38.0557 20.3975C37.843 20.3975 37.5878 20.3975 37.3112 20.3766C37.0347 20.3766 36.7369 20.3347 36.4816 20.2929V23.3473C36.4816 23.5147 36.4178 23.6402 36.2902 23.7657C36.1625 23.8703 36.0136 23.9331 35.8435 23.9331C35.6733 23.9331 35.5031 23.8703 35.3755 23.7657C35.2478 23.6611 35.184 23.5147 35.184 23.3682V16.2343C35.184 15.9414 35.2691 15.6904 35.4606 15.523C35.652 15.3557 35.8647 15.2092 36.1413 15.1465C36.4178 15.0628 36.7156 15 37.0134 14.9791C37.3325 14.9582 37.609 14.9373 37.843 14.9373C38.2259 14.9373 38.6088 14.9791 38.9704 15.0837C39.3533 15.1883 39.6724 15.3347 39.9702 15.544C40.268 15.7322 40.4808 15.9833 40.6509 16.2971C40.8211 16.6109 40.9062 16.9456 40.9062 17.3431Z" fill="#333333"/>
<path d="M47.1602 14.9373C47.3516 14.9373 47.5005 15 47.6069 15.1046C47.7345 15.2092 47.7984 15.3557 47.7984 15.523C47.7984 15.6904 47.7345 15.8159 47.6069 15.9414C47.4793 16.046 47.3516 16.1088 47.1602 16.1088C46.5433 16.1088 46.0115 16.1088 45.5648 16.1088C45.1393 16.1088 44.7777 16.1088 44.5012 16.1297C44.2246 16.1297 44.0119 16.1297 43.863 16.1297C43.7141 16.1297 43.6078 16.1297 43.5227 16.1297C43.4589 16.1297 43.4163 16.1297 43.395 16.1297C43.395 16.1297 43.395 16.1297 43.395 16.1506V18.4937H46.0753C46.2455 18.4937 46.3944 18.5565 46.522 18.6611C46.6497 18.7866 46.7135 18.9122 46.7135 19.0586C46.7135 19.226 46.6497 19.3724 46.522 19.477C46.3944 19.5816 46.2455 19.6444 46.0753 19.6444H43.395V22.7197C43.395 22.7406 43.395 22.7615 43.4163 22.7615C43.4589 22.7615 43.5014 22.7824 43.5865 22.7824H47.1815C47.3729 22.7824 47.5218 22.8452 47.6494 22.9498C47.7771 23.0544 47.8409 23.2009 47.8409 23.3473C47.8409 23.4937 47.7771 23.6611 47.6494 23.7657C47.5218 23.8703 47.3729 23.9331 47.1815 23.9331H43.5865C43.2461 23.9331 42.9909 23.8912 42.7781 23.8494C42.5867 23.7866 42.4378 23.7029 42.3314 23.5983C42.2251 23.4937 42.1613 23.3682 42.14 23.2218C42.1187 23.0753 42.0974 22.887 42.0974 22.7197V16.1297C42.0974 15.9624 42.1187 15.795 42.14 15.6486C42.1613 15.5021 42.2463 15.3766 42.3527 15.272C42.4591 15.1674 42.5867 15.0837 42.7781 15.0209C42.9909 14.9582 43.2461 14.9373 43.5865 14.9373H47.1602Z" fill="#333333"/>
<path d="M49.4788 23.9331C49.3087 23.9331 49.181 23.8703 49.0321 23.7657C48.9045 23.6611 48.8407 23.4728 48.8407 23.2009C48.8407 22.9289 48.8407 20.3557 48.8407 15.523C48.8407 15.3557 48.9045 15.2092 49.0108 15.1046C49.1385 15 49.2874 14.9373 49.4788 14.9373C49.649 14.9373 49.7979 15 49.9255 15.1046C50.0532 15.2092 50.117 15.3557 50.117 15.523V22.8034H52.3718V15.523C52.3718 15.3766 52.4356 15.2301 52.5633 15.1046C52.6909 15 52.8398 14.9373 53.01 14.9373C53.2014 14.9373 53.3503 15 53.4567 15.1046C53.5843 15.2092 53.6482 15.3557 53.6482 15.523V22.8034H55.8605V15.523C55.8605 15.3557 55.9243 15.2092 56.0306 15.1046C56.1583 15 56.3072 14.9373 56.4986 14.9373C56.6901 14.9373 56.839 15 56.9453 15.1046C57.073 15.2092 57.1368 15.3557 57.1368 15.523C57.1368 20.3766 57.1368 22.9289 57.1581 23.2009C57.1581 23.4728 57.0942 23.6611 56.9453 23.7866C56.7964 23.8912 56.6688 23.954 56.5412 23.9331H55.7116H49.4788Z" fill="#333333"/>
<path d="M63.7524 14.9373C63.9438 14.9373 64.0927 15 64.1991 15.1046C64.3267 15.2092 64.3906 15.3557 64.3906 15.523C64.3906 15.6904 64.3267 15.8159 64.1991 15.9414C64.0715 16.046 63.9438 16.1088 63.7524 16.1088C63.1355 16.1088 62.6037 16.1088 62.157 16.1088C61.7315 16.1088 61.3699 16.1088 61.0934 16.1297C60.8168 16.1297 60.6041 16.1297 60.4339 16.1297C60.285 16.1297 60.1787 16.1297 60.0936 16.1297C60.0298 16.1297 59.9872 16.1297 59.966 16.1297C59.966 16.1297 59.966 16.1297 59.966 16.1506V18.4937H62.6462C62.8164 18.4937 62.9653 18.5565 63.1142 18.6611C63.2419 18.7866 63.3057 18.9122 63.3057 19.0586C63.3057 19.226 63.2419 19.3724 63.1142 19.477C62.9866 19.5816 62.8377 19.6444 62.6462 19.6444H59.966V22.7197C59.966 22.7406 59.966 22.7615 60.0085 22.7615C60.0298 22.7615 60.0936 22.7824 60.1574 22.7824H63.7524C63.9438 22.7824 64.0927 22.8452 64.2204 22.9498C64.348 23.0544 64.4118 23.2009 64.4118 23.3473C64.4118 23.4937 64.348 23.6611 64.2204 23.7657C64.0927 23.8703 63.9438 23.9331 63.7524 23.9331H60.1574C59.8171 23.9331 59.5618 23.8912 59.3491 23.8494C59.1576 23.7866 59.0087 23.7029 58.9024 23.5983C58.796 23.4937 58.7322 23.3682 58.7109 23.2218C58.6896 23.0753 58.6684 22.887 58.6684 22.7197V16.1297C58.6684 15.9624 58.6896 15.795 58.7109 15.6486C58.7535 15.5021 58.8173 15.3766 58.9236 15.272C59.03 15.1674 59.1789 15.0837 59.3703 15.0209C59.5618 14.9582 59.8383 14.9373 60.1574 14.9373H63.7524Z" fill="#333333"/>
<path d="M65.5179 15.544C65.5179 15.3766 65.5818 15.2511 65.6881 15.1256C65.8158 15 65.9647 14.9582 66.1561 14.9582C66.3476 14.9582 66.4965 15.021 66.6028 15.1256C66.7305 15.2511 66.7943 15.3766 66.7943 15.544V18.5147H69.9425V15.544C69.9425 15.3766 70.0063 15.2511 70.1127 15.1256C70.2403 15 70.3892 14.9582 70.5807 14.9582C70.7721 14.9582 70.921 15.021 71.0274 15.1256C71.155 15.2511 71.2189 15.3766 71.2189 15.544V23.3682C71.2189 23.5356 71.155 23.6611 71.0274 23.7866C70.8998 23.8912 70.7721 23.954 70.5807 23.954C70.4105 23.954 70.2616 23.8912 70.1127 23.7866C69.9851 23.682 69.9425 23.5356 69.9425 23.3682V19.6653H66.7943V23.3682C66.7943 23.5356 66.7305 23.6611 66.6028 23.7866C66.4752 23.8912 66.3476 23.954 66.1561 23.954C65.9859 23.954 65.837 23.8912 65.6881 23.7866C65.5605 23.682 65.5179 23.5356 65.5179 23.3682V15.544Z" fill="#333333"/>
<path d="M78.6216 23.3892C78.6216 23.5565 78.5578 23.682 78.4301 23.8076C78.3025 23.9331 78.1749 23.9749 77.9834 23.9749C77.8133 23.9749 77.6644 23.9331 77.5154 23.8076C77.4091 23.703 77.3453 23.5565 77.3453 23.3892V17.9707L74.1545 23.6193C74.1332 23.6402 74.1119 23.682 74.0906 23.7239C74.0694 23.7657 74.0268 23.7866 73.963 23.8285C73.9205 23.8703 73.8567 23.8912 73.7716 23.9122C73.7077 23.9331 73.6014 23.954 73.4738 23.954C73.4312 23.954 73.3887 23.954 73.3249 23.9331C73.261 23.9331 73.1972 23.9122 73.1547 23.8703C73.0909 23.8285 73.0483 23.7657 73.0058 23.703C72.9632 23.6193 72.942 23.5147 72.942 23.3892V15.5649C72.942 15.3975 73.0058 15.272 73.1334 15.1465C73.261 15.021 73.4099 14.9582 73.6014 14.9582C73.7928 14.9582 73.9417 15.021 74.0481 15.1465C74.1757 15.2511 74.2396 15.3975 74.2396 15.5649V20.9624L77.4304 15.3557C77.4729 15.2511 77.558 15.1465 77.6643 15.0837C77.7707 15.021 77.8983 14.9791 78.026 14.9791C78.2174 14.9791 78.3663 15.0419 78.4727 15.1674C78.6003 15.272 78.6641 15.4184 78.6641 15.5858V23.3892H78.6216Z" fill="#333333"/>
<path d="M83.1525 20.3975C82.9611 20.3975 82.7697 20.4393 82.5782 20.4812C82.3868 20.523 82.2379 20.6067 82.0889 20.7113C81.94 20.8159 81.8337 20.9414 81.7273 21.1088C81.6422 21.2552 81.5997 21.4226 81.5997 21.6318V23.3473C81.5997 23.5146 81.5359 23.6611 81.4082 23.7657C81.2806 23.8703 81.153 23.9331 80.9615 23.9331C80.7914 23.9331 80.6424 23.8703 80.5148 23.7657C80.3872 23.6611 80.3234 23.5146 80.3234 23.3473V21.6318C80.3234 21.2552 80.4085 20.8996 80.5786 20.6067C80.7701 20.2929 80.9828 20.0209 81.3019 19.8117C81.0041 19.5816 80.7701 19.3305 80.5999 19.0377C80.4297 18.7448 80.3446 18.3891 80.3446 17.9916V17.3222C80.3446 16.9665 80.4297 16.6527 80.5786 16.3598C80.7275 16.0669 80.9403 15.8159 81.1955 15.5858C81.4508 15.3766 81.7699 15.2092 82.1102 15.0837C82.4506 14.9582 82.8122 14.9163 83.1738 14.9163C83.4504 14.9163 83.7482 14.9372 84.0672 14.9582C84.4076 14.9791 84.7054 15.0209 85.0032 15.1046C85.301 15.1883 85.535 15.3138 85.7477 15.4812C85.9392 15.6485 86.0455 15.8996 86.0455 16.2134V23.3264C86.0455 23.4937 85.9817 23.6402 85.8541 23.7448C85.7265 23.8494 85.5776 23.9121 85.4074 23.9121C85.2159 23.9121 85.067 23.8494 84.9394 23.7448C84.8118 23.6402 84.7692 23.4937 84.7692 23.3264V20.3975H83.1525ZM84.748 19.2259V16.2343C84.6841 16.2134 84.5991 16.1925 84.4927 16.1925C84.3863 16.1716 84.2587 16.1506 84.1098 16.1506C83.9822 16.1506 83.8333 16.1297 83.6844 16.1297C83.5354 16.1297 83.4291 16.1088 83.3015 16.1088C83.0887 16.1088 82.8973 16.1297 82.6846 16.1925C82.4718 16.2343 82.3017 16.2971 82.1315 16.4226C81.9826 16.5272 81.8337 16.6527 81.7273 16.7992C81.621 16.9456 81.5784 17.1339 81.5784 17.3431V17.9916C81.5784 18.1799 81.621 18.3682 81.706 18.5146C81.7911 18.6611 81.9188 18.7866 82.0677 18.8912C82.2166 18.9958 82.3868 19.0795 82.5782 19.1423C82.7697 19.205 82.9611 19.2259 83.1525 19.2259H84.748Z" fill="#333333"/>
<path d="M13.5925 6.67364C13.55 6.67364 13.5074 6.65272 13.5074 6.6318C13.4862 6.6318 12.3162 5.9205 10.9335 5.06276C9.52955 4.22594 8.38086 3.51464 8.35959 3.51464C8.31704 3.49372 8.25323 3.4728 8.18941 3.4728C8.14686 3.4728 6.36001 3.24268 4.2328 2.99163C2.1056 2.74059 0.318743 2.51046 0.297471 2.51046C0.212382 2.51046 0.106022 2.46862 0.063478 2.4477C0.0422059 2.4477 0.0422059 2.40586 0.0209338 2.40586C-0.0216103 2.30126 -0.0216103 2.30126 0.08475 1.27615C0.148566 0.711297 0.212382 0.292887 0.212382 0.251046C0.254927 0.125523 0.340015 0.041841 0.467647 0C0.531464 0 0.637824 0 1.74397 0.146444C2.40341 0.230126 3.14793 0.313808 3.40319 0.355649C4.25408 0.460251 7.14708 0.8159 7.59379 0.878661C7.80651 0.878661 8.08305 0.920502 8.18941 0.920502C8.55103 0.962343 8.78503 1.00418 9.08284 1.08787L9.23174 1.12971L11.9546 2.80335C13.9329 4.01674 14.6774 4.47699 14.7199 4.51883C14.7625 4.58159 14.805 4.64435 14.8263 4.70711C14.8263 4.74895 14.8263 4.85356 14.7838 4.91632C14.7625 4.93724 14.5498 5.33473 14.3158 5.77406C14.0605 6.27615 13.8903 6.56904 13.8691 6.61088C13.784 6.67364 13.7414 6.69456 13.5925 6.67364Z" fill="#FFCC00"/>
<path d="M21.8039 21.9874C21.8677 21.9665 21.9528 21.9456 21.9953 21.9247C22.0379 21.9037 22.8037 21.2552 23.6758 20.5021C24.548 19.7489 25.2712 19.1213 25.2712 19.1213C25.2712 19.1213 24.7607 17.8243 24.1438 16.2343C23.0589 13.4937 22.9951 13.3263 22.91 13.2636C22.6548 13.0335 22.3995 12.887 22.1017 12.7824C21.9315 12.7406 21.889 12.7196 21.5699 12.7196C21.1444 12.7196 21.0381 12.7406 20.6977 12.9289C20.1447 13.1799 19.9319 13.3682 19.3576 14.0586C18.5918 14.9581 18.5493 15 18.5067 15.2092C18.4429 15.4602 18.4003 15.774 18.4003 16.046V16.2761L19.4001 18.7866C19.9532 20.1673 20.4212 21.3389 20.4637 21.3807C20.6126 21.6109 21.0381 21.9247 21.3146 22.0084C21.421 22.0293 21.655 22.0293 21.8039 21.9874ZM21.1232 24.9791C20.9105 24.9372 20.6339 24.7071 20.5063 24.456C20.4637 24.3933 19.4427 21.7782 18.2302 18.6401C16.2519 13.6192 15.9966 12.9079 15.9753 12.7615C15.9753 12.6778 15.9541 12.3849 15.9541 12.1339C15.9541 11.4644 15.9966 11.0878 16.1881 10.3975C16.2519 10.2092 16.2944 10.0418 16.2944 10.0209C16.2944 9.99998 16.1455 9.89538 15.8052 9.64433C15.5286 9.45605 15.2734 9.26776 15.2308 9.22592C15.0606 9.03764 15.0394 8.82843 15.1244 8.59831C15.1883 8.45186 16.9538 5.31379 17.0177 5.25103C17.0815 5.18827 17.2729 5.08366 17.4006 5.06274C17.4644 5.04182 17.5495 5.06274 17.6558 5.08366C17.7835 5.10458 17.9111 5.16734 18.4216 5.48115C18.7832 5.69036 19.1449 5.89956 19.2512 5.96232L19.464 6.06693L20.6339 5.96232C22.0804 5.8368 21.9741 5.8368 22.2293 6.10877C22.3144 6.21337 23.0164 6.96651 23.7822 7.82425C24.548 8.68199 25.1861 9.37237 25.1861 9.39329C25.1861 9.39329 26.2497 12.092 27.5261 15.3556L29.866 21.2971V21.4435C29.866 21.7782 29.7809 21.9037 29.3342 22.1339C28.6322 22.5104 28.0153 22.7406 27.441 22.8452C27.2708 22.8661 27.1219 22.887 26.8454 22.887H26.4625L24.1225 23.8912C22.5697 24.5607 21.7188 24.9163 21.6124 24.9372C21.4635 25 21.2508 25 21.1232 24.9791Z" fill="#FFCC00"/>
<path d="M20.1446 15.1674C20.2085 15.1674 20.2723 15.0837 20.2935 15.0209C20.3361 14.8745 20.251 14.728 20.1234 14.6862C19.9319 14.6234 19.7617 14.8117 19.8256 15C19.8681 15.1464 20.017 15.2301 20.1446 15.1674ZM21.7613 21.0669H21.655V20.8577C21.655 20.6485 21.7188 16.6318 21.7401 16.2343C21.7401 16.0042 21.74 15.9414 21.6762 15.8368C21.6124 15.7113 21.5273 15.6485 21.3146 15.5858L21.1657 15.5648H20.2297H19.2938V15.3766V15.1883L19.4001 15.0837C19.6128 14.8326 19.9107 14.4561 19.9957 14.3305L20.0383 14.2887H20.2297C20.3361 14.2887 20.6977 14.2887 21.0593 14.2887C21.7613 14.2887 21.8251 14.3096 21.9953 14.3515C22.1442 14.3933 22.2293 14.477 22.3357 14.5816C22.4633 14.728 22.5271 14.8535 22.5909 15.0628C22.6335 15.251 22.6547 15.3138 22.6547 15.5858C22.6547 15.7113 22.6335 16.8828 22.6122 18.2218L22.5697 20.6067L22.3144 20.8368L22.0591 21.0669H21.9953C21.889 21.0669 21.8039 21.0669 21.7613 21.0669Z" fill="#FFCC00"/>
<path d="M27.3134 12.8033C27.2921 12.7615 25.8243 9.05858 25.8243 9.03766C25.8243 9.03766 26.0158 9.03766 26.1647 9.03766C26.505 9.05858 26.7603 9.14226 26.973 9.2887C27.0794 9.37239 27.1006 9.39331 27.1645 9.51883C27.3559 9.87448 27.6537 10.6067 27.8664 11.2552L27.909 11.3808V11.4854C27.909 11.7573 27.8664 11.9874 27.7601 12.1967C27.6963 12.3431 27.6112 12.4686 27.441 12.6778C27.3772 12.7406 27.3346 12.7824 27.3134 12.8033Z" fill="#FFCC00"/>
</g>
<defs>
<clipPath id="clip0">
<rect width="100" height="25" fill="white"/>
</clipPath>
</defs>
</svg>
