<svg width="15" height="17" viewBox="0 0 15 17" fill="none" xmlns="http://www.w3.org/2000/svg">
<path d="M14.4 5.1H0.4C0.1 5.1 0 5 0 4.7V3.6C0 3.2 0.2 2.8 0.5 2.5C0.8 2.2 1.2 2.1 1.6 2.1H3.2V0.4C3.2 0.1 3.3 0 3.6 0H4.9C5.2 0 5.3 0.1 5.3 0.4V2.1H9.5V0.4C9.5 0.1 9.7 0 9.9 0H11.2C11.5 0 11.6 0.1 11.6 0.4V2.1H13.2C13.6 2.1 14 2.3 14.3 2.5C14.6 2.8 14.8 3.2 14.8 3.6V4.8C14.8 5 14.7 5.1 14.4 5.1ZM0.4 6.2H14.4C14.7 6.2 14.8 6.3 14.8 6.6V14.9C14.8 15.3 14.6 15.7 14.3 16C14 16.3 13.6 16.4 13.2 16.4H1.6C1.2 16.4 0.8 16.3 0.5 16C0.2 15.7 0 15.3 0 14.9V6.5C0 6.3 0.1 6.2 0.4 6.2ZM11.4 9.2L10.5 8.3C10.3 8.1 10.1 8.1 9.9 8.3L6.4 11.7L4.9 10.2C4.7 10 4.5 10 4.3 10.2L3.4 11.1C3.2 11.3 3.2 11.5 3.4 11.6L6.1 14.3C6.3 14.5 6.5 14.5 6.7 14.3L11.4 9.7C11.6 9.6 11.6 9.4 11.4 9.2Z" fill="#FCD600"/>
</svg>
