<svg width="18" height="17" viewBox="0 0 18 17" fill="none" xmlns="http://www.w3.org/2000/svg">
<path d="M16.6 12.7C16.8 12.9 17 13.2 17 13.5C17 13.8 16.9 14.1 16.6 14.3L14.8 16C14.6 16.2 14.3 16.4 14 16.4C13.7 16.4 13.4 16.3 13.1 16L9.2 12.2C8.9 12 8.6 11.5 8.5 11C8.4 10.5 8.5 10 8.7 9.6L5.2 6.2H3.2L0 2.1L2.1 0L6.3 3.1V5.1L9.8 8.5C10.2 8.3 10.7 8.2 11.3 8.3C11.9 8.4 12.3 8.6 12.7 9L16.6 12.7ZM7.5 9.9C7.3 10.6 7.4 11.2 7.7 11.9L3.6 15.8C3.2 16.2 2.7 16.4 2.1 16.4C1.5 16.4 1 16.2 0.6 15.8C0.2 15.4 0 15 0 14.4C0 13.8 0.2 13.3 0.6 12.9L5.6 8L7.5 9.9ZM1.6 14.9C1.8 15 1.9 15.1 2.2 15.1C2.5 15.1 2.6 15 2.8 14.9C3 14.7 3 14.6 3 14.4C3 14.2 2.8 14 2.7 13.8C2.5 13.7 2.4 13.6 2.1 13.6C1.8 13.6 1.7 13.7 1.5 13.8C1.3 14 1.3 14.1 1.3 14.3C1.3 14.5 1.4 14.8 1.6 14.9ZM11 7.2C10.7 7.2 10.4 7.2 10.2 7.3L7.4 4.7C7.4 3.4 7.8 2.3 8.8 1.4C9.4 0.8 10.1 0.4 10.9 0.2C11.7 0 12.5 0 13.3 0.2C13.5 0.2 13.5 0.3 13.6 0.5C13.6 0.6 13.6 0.8 13.5 0.9L11.1 3.3L11.5 5.5L13.8 5.9L16.3 3.5C16.4 3.4 16.5 3.4 16.7 3.4C16.8 3.4 16.9 3.5 17 3.7C17.2 4.5 17.2 5.3 17 6C16.8 6.8 16.4 7.5 15.8 8.1C15.4 8.5 14.9 8.8 14.3 9L13.7 8.4C12.8 7.6 12 7.2 11 7.2Z" fill="#FCD600"/>
</svg>
