<svg width="16" height="16" viewBox="0 0 16 16" fill="none" xmlns="http://www.w3.org/2000/svg">
<path d="M15.5 9.925C15.7 10.025 15.8 10.125 15.7 10.325C15.3 11.425 14.7 12.425 13.9 13.325C13.8 13.425 13.6 13.525 13.4 13.425L12 12.625C11.4 13.125 10.7 13.525 10 13.725V15.325C10 15.525 9.9 15.625 9.7 15.725C8.5 16.025 7.3 16.025 6.1 15.725C5.9 15.725 5.8 15.525 5.8 15.325V13.725C5.1 13.425 4.4 13.125 3.8 12.625L2.4 13.425C2.2 13.525 2 13.525 1.9 13.325C1.1 12.425 0.5 11.425 0.1 10.325C0 10.125 0 10.025 0.2 9.925L1.6 9.125C1.5 8.725 1.5 8.325 1.5 8.025C1.5 7.625 1.5 7.225 1.6 6.925L0.2 6.025C0 5.925 0 5.825 0 5.625C0.4 4.525 1 3.525 1.8 2.625C2 2.425 2.1 2.425 2.3 2.525L3.7 3.325C4.3 2.825 5 2.425 5.7 2.225V0.625C5.7 0.425 5.8 0.325 6 0.225C7.2 -0.075 8.4 -0.075 9.6 0.225C9.8 0.225 9.9 0.425 9.9 0.625V2.225C10.6 2.525 11.3 2.825 11.9 3.325L13.3 2.525C13.5 2.425 13.7 2.425 13.8 2.625C14.6 3.525 15.2 4.525 15.6 5.625C15.7 5.825 15.6 6.025 15.4 6.025L14 6.825C14.1 7.525 14.1 8.325 14 9.025L15.5 9.925ZM6 9.825C6.5 10.325 7.1 10.625 7.9 10.625C8.7 10.625 9.3 10.325 9.8 9.825C10.3 9.325 10.6 8.725 10.6 8.025C10.6 7.325 10.3 6.725 9.8 6.225C9.2 5.625 8.6 5.425 7.9 5.425C7.2 5.425 6.5 5.625 6 6.125C5.5 6.625 5.2 7.225 5.2 8.025C5.2 8.725 5.5 9.325 6 9.825Z" fill="#FCD600"/>
</svg>
