<svg width="17" height="17" viewBox="0 0 17 17" fill="none" xmlns="http://www.w3.org/2000/svg">
<path d="M13.8 4.1C13.8 4.4 13.7 4.6 13.5 4.8C13.3 5 13 5.1 12.7 5.1H1.1C0.8 5.1 0.5 5 0.3 4.8C0.1 4.6 0 4.4 0 4.1V1C0 0.7 0.1 0.5 0.3 0.3C0.5 0.1 0.8 0 1.1 0H12.7C13 0 13.2 0.1 13.4 0.3C13.6 0.5 13.7 0.7 13.7 1V4.1H13.8ZM14.8 2.1C15.4 2.1 15.9 2.3 16.3 2.7C16.7 3.1 16.9 3.6 16.9 4.2V6.3C16.9 7.2 16.6 7.9 16 8.5C15.4 9.1 14.6 9.4 13.7 9.4H8.5V10.4C8.8 10.4 9 10.5 9.2 10.7C9.4 10.9 9.5 11.1 9.5 11.4V15.5C9.5 15.8 9.4 16 9.2 16.2C9 16.4 8.7 16.5 8.5 16.5H6.4C6.1 16.5 5.9 16.4 5.7 16.2C5.5 16 5.4 15.8 5.4 15.5V11.4C5.4 11.1 5.5 10.9 5.7 10.7C5.9 10.5 6.2 10.4 6.4 10.4V9.4C6.4 8.8 6.6 8.3 7 7.9C7.4 7.5 7.9 7.3 8.5 7.3H13.8C14.1 7.3 14.3 7.2 14.5 7C14.7 6.8 14.8 6.6 14.8 6.3V2.1Z" fill="#FCD600"/>
</svg>
