<svg width="17" height="17" viewBox="0 0 17 17" fill="none" xmlns="http://www.w3.org/2000/svg">
<path d="M2.7 7.1C3 7.4 3.2 7.8 3.2 8.2C3.2 8.6 3 9 2.7 9.3C2.4 9.6 2 9.7 1.6 9.7C1.2 9.7 0.8 9.6 0.5 9.3C0.2 9 0 8.6 0 8.2C0 7.8 0.2 7.4 0.5 7.1C0.8 6.8 1.2 6.7 1.6 6.7C2 6.7 2.4 6.8 2.7 7.1ZM2.5 2.4C2.8 2.1 3.2 2 3.6 2C4 2 4.4 2.1 4.7 2.4C5 2.7 5.2 3.1 5.2 3.5C5.2 3.9 5 4.3 4.7 4.6C4.4 4.9 4 5 3.6 5C3.2 5 2.8 4.9 2.5 4.6C2.2 4.3 2 3.9 2 3.5C2 3.1 2.2 2.7 2.5 2.4ZM2.5 11.8C2.8 11.5 3.2 11.4 3.6 11.4C4 11.4 4.4 11.5 4.7 11.8C5 12.1 5.2 12.5 5.2 12.9C5.2 13.3 5 13.7 4.7 14C4.4 14.3 4 14.4 3.6 14.4C3.2 14.4 2.8 14.3 2.5 14C2.2 13.7 2 13.4 2 12.9C2 12.5 2.2 12.1 2.5 11.8ZM9.6 0.4C9.9 0.7 10.1 1.1 10.1 1.5C10.1 1.9 9.9 2.3 9.6 2.6C9.3 2.9 8.9 3.1 8.5 3.1C8.1 3.1 7.7 2.9 7.3 2.6C7 2.3 6.9 2 6.9 1.5C6.9 1 7 0.7 7.3 0.4C7.7 0.1 8 0 8.5 0C9 0 9.3 0.1 9.6 0.4ZM7.3 13.8C7.6 13.5 8 13.4 8.4 13.4C8.8 13.4 9.2 13.5 9.5 13.8C9.8 14.1 10 14.5 10 14.9C10 15.3 9.8 15.7 9.5 16C9.2 16.3 8.8 16.4 8.4 16.4C8 16.4 7.7 16.3 7.3 16C7 15.7 6.8 15.3 6.8 14.9C6.9 14.5 7 14.1 7.3 13.8ZM12.2 11.8C12.5 11.5 12.9 11.4 13.3 11.4C13.7 11.4 14.1 11.5 14.4 11.8C14.7 12.1 14.9 12.5 14.9 12.9C14.9 13.3 14.7 13.7 14.4 14C14.1 14.3 13.7 14.4 13.3 14.4C12.9 14.4 12.5 14.3 12.2 14C11.9 13.7 11.7 13.3 11.7 12.9C11.7 12.5 11.9 12.1 12.2 11.8ZM14.2 7.1C14.5 6.8 14.9 6.7 15.3 6.7C15.7 6.7 16.1 6.8 16.4 7.1C16.7 7.4 16.9 7.8 16.9 8.2C16.9 8.6 16.7 9 16.4 9.3C16.1 9.6 15.7 9.7 15.3 9.7C14.9 9.7 14.5 9.6 14.2 9.3C13.9 9 13.7 8.6 13.7 8.2C13.8 7.8 13.9 7.4 14.2 7.1Z" fill="#FCD600"/>
</svg>
