<svg width="17" height="15" viewBox="0 0 17 15" fill="none" xmlns="http://www.w3.org/2000/svg">
<path d="M16.6 5.9C16.8 6.1 16.9 6.3 16.9 6.6V9.3H12.7V8.7C12.7 8.6 12.7 8.4 12.6 8.3C12.5 8.2 12.4 8.2 12.2 8.2H11.1C10.9 8.2 10.8 8.2 10.7 8.3C10.6 8.4 10.6 8.5 10.6 8.7V9.2H6.4V8.7C6.4 8.6 6.4 8.4 6.3 8.3C6.1 8.3 6 8.2 5.8 8.2H4.8C4.6 8.2 4.5 8.2 4.4 8.3C4.3 8.4 4.2 8.6 4.2 8.7V9.2H0V6.6C0 6.3 0.1 6.1 0.3 5.9L1.8 4.4C2 4.2 2.3 4.1 2.5 4.1H4.2V1.5C4.2 1.1 4.4 0.7 4.7 0.4C5 0.1 5.4 0 5.8 0H11.1C11.5 0 11.9 0.1 12.2 0.4C12.5 0.7 12.7 1.1 12.7 1.5V4.1H14.4C14.7 4.1 14.9 4.2 15.1 4.4L16.6 5.9ZM12.7 10.8V10.3H16.9V13.4C16.9 13.7 16.8 13.9 16.6 14.1C16.4 14.3 16.1 14.4 15.9 14.4H1.1C0.8 14.4 0.6 14.3 0.4 14.1C0.1 13.9 0 13.6 0 13.3V10.2H4.2V10.7C4.2 10.8 4.2 11 4.3 11.1C4.4 11.2 4.5 11.2 4.7 11.2H5.8C6 11.2 6.1 11.2 6.2 11.1C6.3 11 6.3 10.9 6.3 10.7V10.2H10.5V10.7C10.5 10.8 10.5 11 10.6 11.1C10.7 11.2 10.8 11.2 11 11.2H12.1C12.3 11.2 12.4 11.2 12.5 11.1C12.7 11 12.7 10.9 12.7 10.8ZM10.6 4.1V2.1H6.4V4.2H10.6V4.1Z" fill="#FCD600"/>
</svg>
