<svg width="17" height="17" viewBox="0 0 17 17" fill="none" xmlns="http://www.w3.org/2000/svg">
<path d="M11.6 13.7L9 16.2C8.8 16.3 8.7 16.4 8.4 16.4C8.2 16.4 8 16.3 7.8 16.2L5.2 13.7C5 13.4 4.9 13.2 5 12.8C5.1 12.5 5.4 12.3 5.7 12.3H7.4V9.1H4.2V10.7C4.2 11 4 11.3 3.7 11.4C3.4 11.5 3.1 11.5 2.8 11.2L0.2 8.8C0.1 8.6 0 8.4 0 8.2C0 8 0.1 7.8 0.2 7.7L2.8 5.2C3.1 4.9 3.4 4.8 3.7 5C4 5.1 4.2 5.3 4.2 5.7V7.3H7.5V4.1H5.9C5.5 4.1 5.3 3.9 5.2 3.6C5.1 3.3 5 3 5.3 2.8L7.9 0.3C8.1 0.1 8.3 0 8.5 0C8.7 0 8.9 0.1 9 0.2L11.6 2.7C11.8 3 11.9 3.2 11.8 3.6C11.7 3.9 11.4 4.1 11.1 4.1H9.4V7.3H12.7V5.7C12.7 5.4 12.9 5.1 13.2 5C13.5 4.9 13.8 4.9 14.1 5.2L16.7 7.7C16.9 7.8 16.9 8 16.9 8.2C16.9 8.4 16.8 8.6 16.7 8.7L14.1 11.2C13.8 11.5 13.5 11.5 13.2 11.4C12.9 11.3 12.7 11 12.7 10.7V9.1H9.4V12.3H11.1C11.5 12.3 11.7 12.5 11.8 12.8C12 13.1 11.9 13.4 11.6 13.7Z" fill="#FCD600"/>
</svg>
