<svg width="15" height="15" viewBox="0 0 15 15" fill="none" xmlns="http://www.w3.org/2000/svg">
<path d="M7.4 0C3.3 0 0 3.3 0 7.4C0 11.5 3.3 14.8 7.4 14.8C11.5 14.8 14.8 11.5 14.8 7.4C14.7 3.3 11.4 0 7.4 0ZM2.2 9.1C3.3 8.9 4.4 8.7 5.5 8.6C5.5 8.6 5.9 10 6 12.6C4.3 12.2 2.8 10.9 2.2 9.1ZM8.7 12.6C8.9 10 9.2 8.6 9.2 8.6C10.3 8.7 11.4 8.8 12.5 9.1C11.9 10.9 10.5 12.2 8.7 12.6ZM7.4 6.1C5.5 6.1 3.7 6.4 2 7.1C2.1 4.1 4.7 1.8 7.7 1.9C10.5 2 12.8 4.3 12.9 7.1C11.1 6.5 9.2 6.1 7.4 6.1Z" fill="#FCD600"/>
</svg>
