<svg width="180" height="22" viewBox="0 0 180 22" fill="none" xmlns="http://www.w3.org/2000/svg">
<path d="M0.594 21L9.555 0.699999H15.21L24.2 21H18.226L11.208 3.513H13.47L6.452 21H0.594ZM5.495 17.056L6.974 12.822H16.892L18.371 17.056H5.495ZM25.8279 21V0.699999H35.1079C36.9639 0.699999 38.5589 0.999665 39.8929 1.599C41.2462 2.19833 42.2902 3.06833 43.0249 4.209C43.7595 5.33033 44.1269 6.66433 44.1269 8.211C44.1269 9.73833 43.7595 11.0627 43.0249 12.184C42.2902 13.286 41.2462 14.1367 39.8929 14.736C38.5589 15.316 36.9639 15.606 35.1079 15.606H29.0179L31.5699 13.199V21H25.8279ZM38.3849 21L33.3389 13.605H39.4579L44.5329 21H38.3849ZM31.5699 13.808L29.0179 11.169H34.7599C35.9585 11.169 36.8479 10.908 37.4279 10.386C38.0272 9.864 38.3269 9.139 38.3269 8.211C38.3269 7.26367 38.0272 6.529 37.4279 6.007C36.8479 5.485 35.9585 5.224 34.7599 5.224H29.0179L31.5699 2.585V13.808ZM47.2946 21V0.699999H52.0216L60.4316 14.504H57.9376L66.1156 0.699999H70.8426L70.9007 21H65.6226L65.5646 8.733H66.4636L60.3446 18.999H57.7926L51.4996 8.733H52.6016V21H47.2946ZM80.0966 21V12.416L81.4306 15.867L72.3536 0.699999H78.4146L84.9686 11.691H81.4596L88.0426 0.699999H93.6106L84.5626 15.867L85.8386 12.416V21H80.0966ZM104.314 21.406C102.709 21.406 101.221 21.1547 99.8481 20.652C98.4948 20.13 97.3154 19.3953 96.3101 18.448C95.3241 17.5007 94.5508 16.389 93.9901 15.113C93.4294 13.8177 93.1491 12.3967 93.1491 10.85C93.1491 9.30333 93.4294 7.892 93.9901 6.616C94.5508 5.32067 95.3241 4.19933 96.3101 3.252C97.3154 2.30467 98.4948 1.57967 99.8481 1.077C101.221 0.554999 102.709 0.293999 104.314 0.293999C106.189 0.293999 107.862 0.622666 109.331 1.28C110.82 1.93733 112.057 2.88467 113.043 4.122L109.389 7.428C108.732 6.65467 108.007 6.065 107.214 5.659C106.441 5.253 105.571 5.05 104.604 5.05C103.773 5.05 103.009 5.18533 102.313 5.456C101.617 5.72667 101.018 6.123 100.515 6.645C100.032 7.14767 99.6451 7.75667 99.3551 8.472C99.0844 9.18733 98.9491 9.98 98.9491 10.85C98.9491 11.72 99.0844 12.5127 99.3551 13.228C99.6451 13.9433 100.032 14.562 100.515 15.084C101.018 15.5867 101.617 15.9733 102.313 16.244C103.009 16.5147 103.773 16.65 104.604 16.65C105.571 16.65 106.441 16.447 107.214 16.041C108.007 15.635 108.732 15.0453 109.389 14.272L113.043 17.578C112.057 18.796 110.82 19.7433 109.331 20.42C107.862 21.0773 106.189 21.406 104.314 21.406ZM125.415 21.406C123.791 21.406 122.293 21.145 120.92 20.623C119.548 20.101 118.349 19.3663 117.324 18.419C116.319 17.4523 115.536 16.331 114.975 15.055C114.415 13.779 114.134 12.3773 114.134 10.85C114.134 9.32267 114.415 7.921 114.975 6.645C115.536 5.369 116.319 4.25733 117.324 3.31C118.349 2.34333 119.548 1.599 120.92 1.077C122.293 0.554999 123.791 0.293999 125.415 0.293999C127.059 0.293999 128.557 0.554999 129.91 1.077C131.283 1.599 132.472 2.34333 133.477 3.31C134.483 4.25733 135.266 5.369 135.826 6.645C136.406 7.921 136.696 9.32267 136.696 10.85C136.696 12.3773 136.406 13.7887 135.826 15.084C135.266 16.36 134.483 17.4717 133.477 18.419C132.472 19.3663 131.283 20.101 129.91 20.623C128.557 21.145 127.059 21.406 125.415 21.406ZM125.415 16.65C126.189 16.65 126.904 16.5147 127.561 16.244C128.238 15.9733 128.818 15.5867 129.301 15.084C129.804 14.562 130.191 13.9433 130.461 13.228C130.751 12.5127 130.896 11.72 130.896 10.85C130.896 9.96067 130.751 9.168 130.461 8.472C130.191 7.75667 129.804 7.14767 129.301 6.645C128.818 6.123 128.238 5.72667 127.561 5.456C126.904 5.18533 126.189 5.05 125.415 5.05C124.642 5.05 123.917 5.18533 123.24 5.456C122.583 5.72667 122.003 6.123 121.5 6.645C121.017 7.14767 120.63 7.75667 120.34 8.472C120.07 9.168 119.934 9.96067 119.934 10.85C119.934 11.72 120.07 12.5127 120.34 13.228C120.63 13.9433 121.017 14.562 121.5 15.084C122.003 15.5867 122.583 15.9733 123.24 16.244C123.917 16.5147 124.642 16.65 125.415 16.65ZM139.704 21V0.699999H144.431L155.625 14.214H153.392V0.699999H159.018V21H154.291L143.097 7.486H145.33V21H139.704ZM170.202 21.406C168.539 21.406 166.935 21.203 165.388 20.797C163.861 20.3717 162.614 19.8303 161.647 19.173L163.532 14.939C164.441 15.519 165.485 16.0023 166.664 16.389C167.863 16.7563 169.052 16.94 170.231 16.94C171.024 16.94 171.662 16.8723 172.145 16.737C172.628 16.5823 172.976 16.389 173.189 16.157C173.421 15.9057 173.537 15.6157 173.537 15.287C173.537 14.823 173.324 14.4557 172.899 14.185C172.474 13.9143 171.923 13.692 171.246 13.518C170.569 13.344 169.815 13.17 168.984 12.996C168.172 12.822 167.35 12.5997 166.519 12.329C165.707 12.0583 164.963 11.7103 164.286 11.285C163.609 10.8403 163.058 10.27 162.633 9.574C162.208 8.85867 161.995 7.95967 161.995 6.877C161.995 5.659 162.324 4.557 162.981 3.571C163.658 2.585 164.663 1.79233 165.997 1.193C167.331 0.593666 168.994 0.293999 170.985 0.293999C172.319 0.293999 173.624 0.448666 174.9 0.758C176.195 1.048 177.346 1.483 178.351 2.063L176.582 6.326C175.615 5.804 174.658 5.41733 173.711 5.166C172.764 4.89533 171.845 4.76 170.956 4.76C170.163 4.76 169.525 4.847 169.042 5.021C168.559 5.17567 168.211 5.38833 167.998 5.659C167.785 5.92967 167.679 6.239 167.679 6.587C167.679 7.03167 167.882 7.38933 168.288 7.66C168.713 7.91133 169.264 8.124 169.941 8.298C170.637 8.45267 171.391 8.617 172.203 8.791C173.034 8.965 173.856 9.18733 174.668 9.458C175.499 9.70933 176.253 10.0573 176.93 10.502C177.607 10.9273 178.148 11.4977 178.554 12.213C178.979 12.909 179.192 13.7887 179.192 14.852C179.192 16.0313 178.854 17.1237 178.177 18.129C177.52 19.115 176.524 19.9077 175.19 20.507C173.875 21.1063 172.213 21.406 170.202 21.406Z" fill="#683714"/>
</svg>
