<svg width="21" height="38" viewBox="0 0 21 38" fill="none" xmlns="http://www.w3.org/2000/svg">
<path d="M2.14282 11.3333V26.6667C2.14282 29.2083 3.00825 31.6459 4.54873 33.4431C6.08921 35.2403 8.17854 36.25 10.3571 36.25C12.5357 36.25 14.625 35.2403 16.1655 33.4431C17.706 31.6459 18.5714 29.2083 18.5714 26.6667V8.45833C18.5714 6.67917 17.9656 4.97288 16.8873 3.71483C15.8089 2.45677 14.3464 1.75 12.8214 1.75C11.2964 1.75 9.83386 2.45677 8.75553 3.71483C7.6772 4.97288 7.07139 6.67917 7.07139 8.45833V24.75C7.07139 25.7667 7.41757 26.7417 8.03376 27.4606C8.64995 28.1795 9.48568 28.5833 10.3571 28.5833C11.2285 28.5833 12.0643 28.1795 12.6805 27.4606C13.2966 26.7417 13.6428 25.7667 13.6428 24.75V11.3333" stroke="#DC0000" stroke-width="3" stroke-linecap="round" stroke-linejoin="round"/>
</svg>
