<svg width="28" height="28" viewBox="0 0 28 28" fill="none" xmlns="http://www.w3.org/2000/svg">
<rect width="28" height="28" rx="14" fill="#36A9E1"/>
<path d="M13.6364 20.1591C12.8864 20.1591 12.2178 20.0303 11.6307 19.7727C11.0473 19.5152 10.5833 19.1572 10.2386 18.6989C9.89773 18.2367 9.71212 17.7008 9.68182 17.0909H11.1136C11.1439 17.4659 11.2727 17.7898 11.5 18.0625C11.7273 18.3314 12.0246 18.5398 12.392 18.6875C12.7595 18.8352 13.1667 18.9091 13.6136 18.9091C14.1136 18.9091 14.5568 18.822 14.9432 18.6477C15.3295 18.4735 15.6326 18.2311 15.8523 17.9205C16.072 17.6098 16.1818 17.25 16.1818 16.8409C16.1818 16.4129 16.0758 16.036 15.8636 15.7102C15.6515 15.3807 15.3409 15.1231 14.9318 14.9375C14.5227 14.7519 14.0227 14.6591 13.4318 14.6591H12.5V13.4091H13.4318C13.8939 13.4091 14.2992 13.3258 14.6477 13.1591C15 12.9924 15.2746 12.7576 15.4716 12.4545C15.6723 12.1515 15.7727 11.7955 15.7727 11.3864C15.7727 10.9924 15.6856 10.6496 15.5114 10.358C15.3371 10.0663 15.0909 9.83901 14.7727 9.67614C14.4583 9.51326 14.0871 9.43182 13.6591 9.43182C13.2576 9.43182 12.8788 9.50568 12.5227 9.65341C12.1705 9.79735 11.8826 10.0076 11.6591 10.2841C11.4356 10.5568 11.3144 10.8864 11.2955 11.2727H9.93182C9.95455 10.6629 10.1383 10.1288 10.483 9.67045C10.8277 9.20833 11.2784 8.84848 11.8352 8.59091C12.3958 8.33333 13.0114 8.20455 13.6818 8.20455C14.4015 8.20455 15.0189 8.35038 15.5341 8.64205C16.0492 8.92992 16.4451 9.31061 16.7216 9.78409C16.9981 10.2576 17.1364 10.7689 17.1364 11.3182C17.1364 11.9735 16.964 12.5322 16.6193 12.9943C16.2784 13.4564 15.8144 13.7765 15.2273 13.9545V14.0455C15.9621 14.1667 16.536 14.4792 16.9489 14.983C17.3617 15.483 17.5682 16.1023 17.5682 16.8409C17.5682 17.4735 17.3958 18.0417 17.0511 18.5455C16.7102 19.0455 16.2443 19.4394 15.6534 19.7273C15.0625 20.0152 14.3902 20.1591 13.6364 20.1591Z" fill="white"/>
</svg>
