<svg width="20" height="20" viewBox="0 0 20 20" fill="none" xmlns="http://www.w3.org/2000/svg">
<path d="M8.15887 6.84641C8.06779 6.75211 8.01739 6.62581 8.01853 6.49471C8.01967 6.36362 8.07225 6.23821 8.16496 6.1455C8.25766 6.0528 8.38307 6.00022 8.51417 5.99908C8.64526 5.99794 8.77156 6.04833 8.86587 6.13941L12.3659 9.63941C12.8365 10.11 12.0954 10.783 11.6588 10.3465C10.4921 9.1798 9.32553 8.01308 8.15887 6.84641ZM10.4304 11.1194C10.479 11.0732 10.5364 11.0373 10.5992 11.0138C10.662 10.9902 10.7288 10.9795 10.7958 10.9824C10.8628 10.9852 10.9286 11.0015 10.9891 11.0302C11.0497 11.059 11.1039 11.0996 11.1484 11.1497C11.193 11.1999 11.227 11.2584 11.2485 11.322C11.2699 11.3855 11.2784 11.4527 11.2733 11.5195C11.2683 11.5864 11.2498 11.6516 11.2191 11.7112C11.1883 11.7708 11.1459 11.8235 11.0944 11.8664L8.84437 13.8664C8.79575 13.9126 8.73834 13.9485 8.67556 13.9721C8.61278 13.9956 8.5459 14.0063 8.4789 14.0035C8.41191 14.0006 8.34617 13.9844 8.28559 13.9556C8.22502 13.9268 8.17084 13.8862 8.1263 13.8361C8.08175 13.786 8.04774 13.7274 8.02628 13.6639C8.00483 13.6003 7.99637 13.5332 8.00142 13.4663C8.00646 13.3994 8.0249 13.3343 8.05565 13.2747C8.08639 13.2151 8.1288 13.1623 8.18037 13.1194L10.4304 11.1194Z" fill="#777777"/>
</svg>
