<svg width="14" height="14" viewBox="0 0 14 14" fill="none" xmlns="http://www.w3.org/2000/svg">
<path fill-rule="evenodd" clip-rule="evenodd" d="M0.254411 0.254411C0.593625 -0.0848036 1.1436 -0.0848036 1.48282 0.254411L7 5.7716L12.5172 0.254411C12.8564 -0.0848036 13.4064 -0.0848036 13.7456 0.254411C14.0848 0.593625 14.0848 1.1436 13.7456 1.48282L8.2284 7L13.7456 12.5172C14.0848 12.8564 14.0848 13.4064 13.7456 13.7456C13.4064 14.0848 12.8564 14.0848 12.5172 13.7456L7 8.2284L1.48282 13.7456C1.1436 14.0848 0.593625 14.0848 0.254411 13.7456C-0.0848036 13.4064 -0.0848036 12.8564 0.254411 12.5172L5.7716 7L0.254411 1.48282C-0.0848036 1.1436 -0.0848036 0.593625 0.254411 0.254411Z" fill="#B5B9BF"/>
</svg>
